<?xml version="1.0" encoding="UTF-8"?>
<svg width="1760" height="400" viewBox="0 0 1760 400" xmlns="http://www.w3.org/2000/svg">
  <rect width="1760" height="400" fill="#ffffff"/>
  <rect x="605.0" y="20" width="550" height="75" fill="#f0f0f0" stroke="#333" stroke-width="3" rx="5"/>
  <text x="880.0" y="67.5" text-anchor="middle" font-family="Microsoft YaHei, SimHei, Arial" font-size="28" font-weight="bold" fill="#333">SpringCloud组件选型</text>
  <line x1="880.0" y1="95" x2="127.5" y2="120" stroke="#666" stroke-width="2"/>
  <rect x="27.5" y="120" width="200" height="30" fill="#e0e0e0" stroke="#666" stroke-width="1" rx="3"/>
  <text x="127.5" y="138" text-anchor="middle" font-family="Microsoft YaHei, SimHei, Arial" font-size="14" font-weight="bold" fill="#333">服务注册中心</text>
  <rect x="37.5" y="160" width="180" height="50" fill="#fff" stroke="#666" stroke-width="2" rx="3"/>
  <circle cx="52.5" cy="185" r="9" fill="none" stroke="#333" stroke-width="2"/>
  <path d="M 48.5 185 L 51.5 189 L 57.5 180" stroke="#333" stroke-width="2" fill="none"/>
  <text x="75.5" y="191" font-family="Microsoft YaHei, SimHei, Arial" font-size="16" font-weight="bold" fill="#333">Nacos</text>
  <rect x="37.5" y="220" width="180" height="50" fill="#fff" stroke="#666" stroke-width="1" rx="3"/>
  <circle cx="52.5" cy="245" r="9" fill="none" stroke="#333" stroke-width="1"/>
  <line x1="47.5" y1="240" x2="57.5" y2="250" stroke="#333" stroke-width="1"/>
  <line x1="47.5" y1="250" x2="57.5" y2="240" stroke="#333" stroke-width="1"/>
  <text x="75.5" y="251" font-family="Microsoft YaHei, SimHei, Arial" font-size="16" font-weight="normal" fill="#333">Eureka</text>
  <line x1="880.0" y1="95" x2="342.5" y2="120" stroke="#666" stroke-width="2"/>
  <rect x="242.5" y="120" width="200" height="30" fill="#e0e0e0" stroke="#666" stroke-width="1" rx="3"/>
  <text x="342.5" y="138" text-anchor="middle" font-family="Microsoft YaHei, SimHei, Arial" font-size="14" font-weight="bold" fill="#333">服务负载均衡</text>
  <rect x="252.5" y="160" width="180" height="50" fill="#fff" stroke="#666" stroke-width="2" rx="3"/>
  <circle cx="267.5" cy="185" r="9" fill="none" stroke="#333" stroke-width="2"/>
  <path d="M 263.5 185 L 266.5 189 L 272.5 180" stroke="#333" stroke-width="2" fill="none"/>
  <text x="290.5" y="191" font-family="Microsoft YaHei, SimHei, Arial" font-size="16" font-weight="bold" fill="#333">Ribbon</text>
  <rect x="252.5" y="220" width="180" height="50" fill="#fff" stroke="#666" stroke-width="1" rx="3"/>
  <circle cx="267.5" cy="245" r="9" fill="none" stroke="#333" stroke-width="1"/>
  <line x1="262.5" y1="240" x2="272.5" y2="250" stroke="#333" stroke-width="1"/>
  <line x1="262.5" y1="250" x2="272.5" y2="240" stroke="#333" stroke-width="1"/>
  <text x="290.5" y="251" font-family="Microsoft YaHei, SimHei, Arial" font-size="16" font-weight="normal" fill="#333">LoadBalancer</text>
  <line x1="880.0" y1="95" x2="557.5" y2="120" stroke="#666" stroke-width="2"/>
  <rect x="457.5" y="120" width="200" height="30" fill="#e0e0e0" stroke="#666" stroke-width="1" rx="3"/>
  <text x="557.5" y="138" text-anchor="middle" font-family="Microsoft YaHei, SimHei, Arial" font-size="14" font-weight="bold" fill="#333">服务熔断降级</text>
  <rect x="467.5" y="160" width="180" height="50" fill="#fff" stroke="#666" stroke-width="2" rx="3"/>
  <circle cx="482.5" cy="185" r="9" fill="none" stroke="#333" stroke-width="2"/>
  <path d="M 478.5 185 L 481.5 189 L 487.5 180" stroke="#333" stroke-width="2" fill="none"/>
  <text x="505.5" y="191" font-family="Microsoft YaHei, SimHei, Arial" font-size="16" font-weight="bold" fill="#333">Sentinel</text>
  <rect x="467.5" y="220" width="180" height="50" fill="#fff" stroke="#666" stroke-width="1" rx="3"/>
  <circle cx="482.5" cy="245" r="9" fill="none" stroke="#333" stroke-width="1"/>
  <line x1="477.5" y1="240" x2="487.5" y2="250" stroke="#333" stroke-width="1"/>
  <line x1="477.5" y1="250" x2="487.5" y2="240" stroke="#333" stroke-width="1"/>
  <text x="505.5" y="251" font-family="Microsoft YaHei, SimHei, Arial" font-size="16" font-weight="normal" fill="#333">Hystrix</text>
  <line x1="880.0" y1="95" x2="772.5" y2="120" stroke="#666" stroke-width="2"/>
  <rect x="672.5" y="120" width="200" height="30" fill="#e0e0e0" stroke="#666" stroke-width="1" rx="3"/>
  <text x="772.5" y="138" text-anchor="middle" font-family="Microsoft YaHei, SimHei, Arial" font-size="14" font-weight="bold" fill="#333">服务调用</text>
  <rect x="682.5" y="160" width="180" height="50" fill="#fff" stroke="#666" stroke-width="2" rx="3"/>
  <circle cx="697.5" cy="185" r="9" fill="none" stroke="#333" stroke-width="2"/>
  <path d="M 693.5 185 L 696.5 189 L 702.5 180" stroke="#333" stroke-width="2" fill="none"/>
  <text x="720.5" y="191" font-family="Microsoft YaHei, SimHei, Arial" font-size="16" font-weight="bold" fill="#333">OpenFeign</text>
  <rect x="682.5" y="220" width="180" height="50" fill="#fff" stroke="#666" stroke-width="1" rx="3"/>
  <circle cx="697.5" cy="245" r="9" fill="none" stroke="#333" stroke-width="1"/>
  <line x1="692.5" y1="240" x2="702.5" y2="250" stroke="#333" stroke-width="1"/>
  <line x1="692.5" y1="250" x2="702.5" y2="240" stroke="#333" stroke-width="1"/>
  <text x="720.5" y="251" font-family="Microsoft YaHei, SimHei, Arial" font-size="16" font-weight="normal" fill="#333">Feign</text>
  <line x1="880.0" y1="95" x2="987.5" y2="120" stroke="#666" stroke-width="2"/>
  <rect x="887.5" y="120" width="200" height="30" fill="#e0e0e0" stroke="#666" stroke-width="1" rx="3"/>
  <text x="987.5" y="138" text-anchor="middle" font-family="Microsoft YaHei, SimHei, Arial" font-size="14" font-weight="bold" fill="#333">服务网关</text>
  <rect x="897.5" y="160" width="180" height="50" fill="#fff" stroke="#666" stroke-width="2" rx="3"/>
  <circle cx="912.5" cy="185" r="9" fill="none" stroke="#333" stroke-width="2"/>
  <path d="M 908.5 185 L 911.5 189 L 917.5 180" stroke="#333" stroke-width="2" fill="none"/>
  <text x="935.5" y="191" font-family="Microsoft YaHei, SimHei, Arial" font-size="16" font-weight="bold" fill="#333">GateWay</text>
  <rect x="897.5" y="220" width="180" height="50" fill="#fff" stroke="#666" stroke-width="1" rx="3"/>
  <circle cx="912.5" cy="245" r="9" fill="none" stroke="#333" stroke-width="1"/>
  <line x1="907.5" y1="240" x2="917.5" y2="250" stroke="#333" stroke-width="1"/>
  <line x1="907.5" y1="250" x2="917.5" y2="240" stroke="#333" stroke-width="1"/>
  <text x="935.5" y="251" font-family="Microsoft YaHei, SimHei, Arial" font-size="16" font-weight="normal" fill="#333">Zuul</text>
  <line x1="880.0" y1="95" x2="1202.5" y2="120" stroke="#666" stroke-width="2"/>
  <rect x="1102.5" y="120" width="200" height="30" fill="#e0e0e0" stroke="#666" stroke-width="1" rx="3"/>
  <text x="1202.5" y="138" text-anchor="middle" font-family="Microsoft YaHei, SimHei, Arial" font-size="14" font-weight="bold" fill="#333">服务配置</text>
  <rect x="1112.5" y="160" width="180" height="50" fill="#fff" stroke="#666" stroke-width="2" rx="3"/>
  <circle cx="1127.5" cy="185" r="9" fill="none" stroke="#333" stroke-width="2"/>
  <path d="M 1123.5 185 L 1126.5 189 L 1132.5 180" stroke="#333" stroke-width="2" fill="none"/>
  <text x="1150.5" y="191" font-family="Microsoft YaHei, SimHei, Arial" font-size="16" font-weight="bold" fill="#333">Nacos</text>
  <rect x="1112.5" y="220" width="180" height="50" fill="#fff" stroke="#666" stroke-width="1" rx="3"/>
  <circle cx="1127.5" cy="245" r="9" fill="none" stroke="#333" stroke-width="1"/>
  <line x1="1122.5" y1="240" x2="1132.5" y2="250" stroke="#333" stroke-width="1"/>
  <line x1="1122.5" y1="250" x2="1132.5" y2="240" stroke="#333" stroke-width="1"/>
  <text x="1150.5" y="251" font-family="Microsoft YaHei, SimHei, Arial" font-size="16" font-weight="normal" fill="#333">Config</text>
  <line x1="880.0" y1="95" x2="1417.5" y2="120" stroke="#666" stroke-width="2"/>
  <rect x="1317.5" y="120" width="200" height="30" fill="#e0e0e0" stroke="#666" stroke-width="1" rx="3"/>
  <text x="1417.5" y="138" text-anchor="middle" font-family="Microsoft YaHei, SimHei, Arial" font-size="14" font-weight="bold" fill="#333">分布式事务</text>
  <rect x="1327.5" y="160" width="180" height="50" fill="#fff" stroke="#666" stroke-width="2" rx="3"/>
  <circle cx="1342.5" cy="185" r="9" fill="none" stroke="#333" stroke-width="2"/>
  <path d="M 1338.5 185 L 1341.5 189 L 1347.5 180" stroke="#333" stroke-width="2" fill="none"/>
  <text x="1365.5" y="191" font-family="Microsoft YaHei, SimHei, Arial" font-size="16" font-weight="bold" fill="#333">Seata</text>
  <rect x="1327.5" y="220" width="180" height="50" fill="#fff" stroke="#666" stroke-width="1" rx="3"/>
  <circle cx="1342.5" cy="245" r="9" fill="none" stroke="#333" stroke-width="1"/>
  <line x1="1337.5" y1="240" x2="1347.5" y2="250" stroke="#333" stroke-width="1"/>
  <line x1="1337.5" y1="250" x2="1347.5" y2="240" stroke="#333" stroke-width="1"/>
  <text x="1365.5" y="251" font-family="Microsoft YaHei, SimHei, Arial" font-size="16" font-weight="normal" fill="#333">TCC</text>
  <line x1="880.0" y1="95" x2="1632.5" y2="120" stroke="#666" stroke-width="2"/>
  <rect x="1532.5" y="120" width="200" height="30" fill="#e0e0e0" stroke="#666" stroke-width="1" rx="3"/>
  <text x="1632.5" y="138" text-anchor="middle" font-family="Microsoft YaHei, SimHei, Arial" font-size="14" font-weight="bold" fill="#333">服务监控</text>
  <rect x="1542.5" y="160" width="180" height="50" fill="#fff" stroke="#666" stroke-width="2" rx="3"/>
  <circle cx="1557.5" cy="185" r="9" fill="none" stroke="#333" stroke-width="2"/>
  <path d="M 1553.5 185 L 1556.5 189 L 1562.5 180" stroke="#333" stroke-width="2" fill="none"/>
  <text x="1580.5" y="191" font-family="Microsoft YaHei, SimHei, Arial" font-size="16" font-weight="bold" fill="#333">SpringBootAdmin</text>
  <rect x="1542.5" y="220" width="180" height="50" fill="#fff" stroke="#666" stroke-width="1" rx="3"/>
  <circle cx="1557.5" cy="245" r="9" fill="none" stroke="#333" stroke-width="1"/>
  <line x1="1552.5" y1="240" x2="1562.5" y2="250" stroke="#333" stroke-width="1"/>
  <line x1="1552.5" y1="250" x2="1562.5" y2="240" stroke="#333" stroke-width="1"/>
  <text x="1580.5" y="251" font-family="Microsoft YaHei, SimHei, Arial" font-size="16" font-weight="normal" fill="#333">Zipkin</text>
</svg>