<?xml version="1.0" encoding="UTF-8"?>
<svg width="1760" height="400" viewBox="0 0 1760 400" xmlns="http://www.w3.org/2000/svg">
  <rect width="1760" height="400" fill="#ffffff"/>
  <rect x="605.0" y="20" width="550" height="75" fill="#f0f0f0" stroke="#333" stroke-width="3" rx="5"/>
  <text x="880.0" y="67.5" text-anchor="middle" font-family="Microsoft YaHei, SimHei, Arial" font-size="28" font-weight="bold" fill="#333">SpringCloud组件选型</text>
  <line x1="880.0" y1="95" x2="130.0" y2="120" stroke="#666" stroke-width="2"/>
  <rect x="30.0" y="120" width="200" height="30" fill="#e0e0e0" stroke="#666" stroke-width="1" rx="3"/>
  <text x="130.0" y="138" text-anchor="middle" font-family="Microsoft YaHei, SimHei, Arial" font-size="14" font-weight="bold" fill="#333">服务注册中心</text>
  <rect x="40.0" y="160" width="180" height="50" fill="#fff" stroke="#666" stroke-width="2" rx="3"/>
  <circle cx="55.0" cy="185" r="9" fill="none" stroke="#333" stroke-width="2"/>
  <path d="M 51.0 185 L 54.0 189 L 60.0 180" stroke="#333" stroke-width="2" fill="none"/>
  <text x="78.0" y="191" font-family="Microsoft YaHei, SimHei, Arial" font-size="16" font-weight="bold" fill="#333">Nacos</text>
  <rect x="40.0" y="220" width="180" height="50" fill="#fff" stroke="#666" stroke-width="1" rx="3"/>
  <circle cx="55.0" cy="245" r="9" fill="none" stroke="#333" stroke-width="1"/>
  <line x1="50.0" y1="240" x2="60.0" y2="250" stroke="#333" stroke-width="1"/>
  <line x1="50.0" y1="250" x2="60.0" y2="240" stroke="#333" stroke-width="1"/>
  <text x="78.0" y="251" font-family="Microsoft YaHei, SimHei, Arial" font-size="16" font-weight="normal" fill="#333">Eureka</text>
  <line x1="880.0" y1="95" x2="380.0" y2="120" stroke="#666" stroke-width="2"/>
  <rect x="280.0" y="120" width="200" height="30" fill="#e0e0e0" stroke="#666" stroke-width="1" rx="3"/>
  <text x="380.0" y="138" text-anchor="middle" font-family="Microsoft YaHei, SimHei, Arial" font-size="14" font-weight="bold" fill="#333">服务负载均衡</text>
  <rect x="290.0" y="160" width="180" height="50" fill="#fff" stroke="#666" stroke-width="2" rx="3"/>
  <circle cx="305.0" cy="185" r="9" fill="none" stroke="#333" stroke-width="2"/>
  <path d="M 301.0 185 L 304.0 189 L 310.0 180" stroke="#333" stroke-width="2" fill="none"/>
  <text x="328.0" y="191" font-family="Microsoft YaHei, SimHei, Arial" font-size="16" font-weight="bold" fill="#333">LoadBalancer</text>
  <rect x="290.0" y="220" width="180" height="50" fill="#fff" stroke="#666" stroke-width="1" rx="3"/>
  <circle cx="305.0" cy="245" r="9" fill="none" stroke="#333" stroke-width="1"/>
  <line x1="300.0" y1="240" x2="310.0" y2="250" stroke="#333" stroke-width="1"/>
  <line x1="300.0" y1="250" x2="310.0" y2="240" stroke="#333" stroke-width="1"/>
  <text x="328.0" y="251" font-family="Microsoft YaHei, SimHei, Arial" font-size="16" font-weight="normal" fill="#333">Ribbon</text>
  <line x1="880.0" y1="95" x2="630.0" y2="120" stroke="#666" stroke-width="2"/>
  <rect x="530.0" y="120" width="200" height="30" fill="#e0e0e0" stroke="#666" stroke-width="1" rx="3"/>
  <text x="630.0" y="138" text-anchor="middle" font-family="Microsoft YaHei, SimHei, Arial" font-size="14" font-weight="bold" fill="#333">服务熔断降级</text>
  <rect x="540.0" y="160" width="180" height="50" fill="#fff" stroke="#666" stroke-width="2" rx="3"/>
  <circle cx="555.0" cy="185" r="9" fill="none" stroke="#333" stroke-width="2"/>
  <path d="M 551.0 185 L 554.0 189 L 560.0 180" stroke="#333" stroke-width="2" fill="none"/>
  <text x="578.0" y="191" font-family="Microsoft YaHei, SimHei, Arial" font-size="16" font-weight="bold" fill="#333">Sentinel</text>
  <rect x="540.0" y="220" width="180" height="50" fill="#fff" stroke="#666" stroke-width="1" rx="3"/>
  <circle cx="555.0" cy="245" r="9" fill="none" stroke="#333" stroke-width="1"/>
  <line x1="550.0" y1="240" x2="560.0" y2="250" stroke="#333" stroke-width="1"/>
  <line x1="550.0" y1="250" x2="560.0" y2="240" stroke="#333" stroke-width="1"/>
  <text x="578.0" y="251" font-family="Microsoft YaHei, SimHei, Arial" font-size="16" font-weight="normal" fill="#333">Hystrix</text>
  <line x1="880.0" y1="95" x2="880.0" y2="120" stroke="#666" stroke-width="2"/>
  <rect x="780.0" y="120" width="200" height="30" fill="#e0e0e0" stroke="#666" stroke-width="1" rx="3"/>
  <text x="880.0" y="138" text-anchor="middle" font-family="Microsoft YaHei, SimHei, Arial" font-size="14" font-weight="bold" fill="#333">服务调用</text>
  <rect x="790.0" y="160" width="180" height="50" fill="#fff" stroke="#666" stroke-width="2" rx="3"/>
  <circle cx="805.0" cy="185" r="9" fill="none" stroke="#333" stroke-width="2"/>
  <path d="M 801.0 185 L 804.0 189 L 810.0 180" stroke="#333" stroke-width="2" fill="none"/>
  <text x="828.0" y="191" font-family="Microsoft YaHei, SimHei, Arial" font-size="16" font-weight="bold" fill="#333">OpenFeign</text>
  <rect x="790.0" y="220" width="180" height="50" fill="#fff" stroke="#666" stroke-width="1" rx="3"/>
  <circle cx="805.0" cy="245" r="9" fill="none" stroke="#333" stroke-width="1"/>
  <line x1="800.0" y1="240" x2="810.0" y2="250" stroke="#333" stroke-width="1"/>
  <line x1="800.0" y1="250" x2="810.0" y2="240" stroke="#333" stroke-width="1"/>
  <text x="828.0" y="251" font-family="Microsoft YaHei, SimHei, Arial" font-size="16" font-weight="normal" fill="#333">Feign</text>
  <line x1="880.0" y1="95" x2="1130.0" y2="120" stroke="#666" stroke-width="2"/>
  <rect x="1030.0" y="120" width="200" height="30" fill="#e0e0e0" stroke="#666" stroke-width="1" rx="3"/>
  <text x="1130.0" y="138" text-anchor="middle" font-family="Microsoft YaHei, SimHei, Arial" font-size="14" font-weight="bold" fill="#333">服务网关</text>
  <rect x="1040.0" y="160" width="180" height="50" fill="#fff" stroke="#666" stroke-width="2" rx="3"/>
  <circle cx="1055.0" cy="185" r="9" fill="none" stroke="#333" stroke-width="2"/>
  <path d="M 1051.0 185 L 1054.0 189 L 1060.0 180" stroke="#333" stroke-width="2" fill="none"/>
  <text x="1078.0" y="191" font-family="Microsoft YaHei, SimHei, Arial" font-size="16" font-weight="bold" fill="#333">GateWay</text>
  <rect x="1040.0" y="220" width="180" height="50" fill="#fff" stroke="#666" stroke-width="1" rx="3"/>
  <circle cx="1055.0" cy="245" r="9" fill="none" stroke="#333" stroke-width="1"/>
  <line x1="1050.0" y1="240" x2="1060.0" y2="250" stroke="#333" stroke-width="1"/>
  <line x1="1050.0" y1="250" x2="1060.0" y2="240" stroke="#333" stroke-width="1"/>
  <text x="1078.0" y="251" font-family="Microsoft YaHei, SimHei, Arial" font-size="16" font-weight="normal" fill="#333">Zuul</text>
  <line x1="880.0" y1="95" x2="1380.0" y2="120" stroke="#666" stroke-width="2"/>
  <rect x="1280.0" y="120" width="200" height="30" fill="#e0e0e0" stroke="#666" stroke-width="1" rx="3"/>
  <text x="1380.0" y="138" text-anchor="middle" font-family="Microsoft YaHei, SimHei, Arial" font-size="14" font-weight="bold" fill="#333">分布式事务</text>
  <rect x="1290.0" y="160" width="180" height="50" fill="#fff" stroke="#666" stroke-width="2" rx="3"/>
  <circle cx="1305.0" cy="185" r="9" fill="none" stroke="#333" stroke-width="2"/>
  <path d="M 1301.0 185 L 1304.0 189 L 1310.0 180" stroke="#333" stroke-width="2" fill="none"/>
  <text x="1328.0" y="191" font-family="Microsoft YaHei, SimHei, Arial" font-size="16" font-weight="bold" fill="#333">Seata</text>
  <rect x="1290.0" y="220" width="180" height="50" fill="#fff" stroke="#666" stroke-width="1" rx="3"/>
  <circle cx="1305.0" cy="245" r="9" fill="none" stroke="#333" stroke-width="1"/>
  <line x1="1300.0" y1="240" x2="1310.0" y2="250" stroke="#333" stroke-width="1"/>
  <line x1="1300.0" y1="250" x2="1310.0" y2="240" stroke="#333" stroke-width="1"/>
  <text x="1328.0" y="251" font-family="Microsoft YaHei, SimHei, Arial" font-size="16" font-weight="normal" fill="#333">TCC</text>
  <line x1="880.0" y1="95" x2="1630.0" y2="120" stroke="#666" stroke-width="2"/>
  <rect x="1530.0" y="120" width="200" height="30" fill="#e0e0e0" stroke="#666" stroke-width="1" rx="3"/>
  <text x="1630.0" y="138" text-anchor="middle" font-family="Microsoft YaHei, SimHei, Arial" font-size="14" font-weight="bold" fill="#333">服务监控</text>
  <rect x="1540.0" y="160" width="180" height="50" fill="#fff" stroke="#666" stroke-width="2" rx="3"/>
  <circle cx="1555.0" cy="185" r="9" fill="none" stroke="#333" stroke-width="2"/>
  <path d="M 1551.0 185 L 1554.0 189 L 1560.0 180" stroke="#333" stroke-width="2" fill="none"/>
  <text x="1578.0" y="191" font-family="Microsoft YaHei, SimHei, Arial" font-size="16" font-weight="bold" fill="#333">SpringBootAdmin</text>
  <rect x="1540.0" y="220" width="180" height="50" fill="#fff" stroke="#666" stroke-width="1" rx="3"/>
  <circle cx="1555.0" cy="245" r="9" fill="none" stroke="#333" stroke-width="1"/>
  <line x1="1550.0" y1="240" x2="1560.0" y2="250" stroke="#333" stroke-width="1"/>
  <line x1="1550.0" y1="250" x2="1560.0" y2="240" stroke="#333" stroke-width="1"/>
  <text x="1578.0" y="251" font-family="Microsoft YaHei, SimHei, Arial" font-size="16" font-weight="normal" fill="#333">Zipkin</text>
</svg>