<?xml version="1.0" encoding="UTF-8"?>
<svg width="2000" height="1400" xmlns="http://www.w3.org/2000/svg">
<defs>
<marker id="arrowhead" markerWidth="10" markerHeight="10" refX="9" refY="5" orient="auto">
<polygon points="0 0, 10 5, 0 10" fill="black"/>
</marker>
</defs>
<rect width="2000" height="1400" fill="white"/>
<rect x="940.0" y="55.0" width="120" height="50" rx="15" ry="15" style="fill:white;stroke:black;stroke-width:2"/>
<text x="1000" y="86" style="font-family:Microsoft YaHei,SimHei,Arial;font-size:16px;text-anchor:middle">开始</text>
<line x1="1000" y1="105" x2="1000" y2="140" style="stroke:black;stroke-width:2;fill:none;marker-end:url(#arrowhead)"/>
<rect x="940.0" y="140.0" width="120" height="50" style="fill:white;stroke:black;stroke-width:2"/>
<text x="1000" y="171" style="font-family:Microsoft YaHei,SimHei,Arial;font-size:16px;text-anchor:middle">系统登录</text>
<line x1="1000" y1="190" x2="1000" y2="225" style="stroke:black;stroke-width:2;fill:none;marker-end:url(#arrowhead)"/>
<polygon points="1000,225.0 1070.0,255 1000,285.0 930.0,255" style="fill:white;stroke:black;stroke-width:2"/>
<text x="1000" y="260" style="font-family:Microsoft YaHei,SimHei,Arial;font-size:16px;text-anchor:middle;font-size:15px">是否注册?</text>
<line x1="1000" y1="285" x2="1000" y2="320" style="stroke:black;stroke-width:2;fill:none;marker-end:url(#arrowhead)"/>
<text x="1000.0" y="302.5" style="font-family:Microsoft YaHei,SimHei,Arial;font-size:14px;font-weight:bold;text-anchor:middle">Y</text>
<line x1="1070" y1="255" x2="1200" y2="255" style="stroke:black;stroke-width:2;fill:none;marker-end:url(#arrowhead)"/>
<text x="1135.0" y="255.0" style="font-family:Microsoft YaHei,SimHei,Arial;font-size:14px;font-weight:bold;text-anchor:middle">N</text>
<rect x="1200.0" y="230.0" width="140" height="50" style="fill:white;stroke:black;stroke-width:2"/>
<text x="1270" y="261" style="font-family:Microsoft YaHei,SimHei,Arial;font-size:16px;text-anchor:middle">注册账号</text>
<line x1="1270" y1="280" x2="1270" y2="340" style="stroke:black;stroke-width:2;fill:none;marker-end:url(#arrowhead)"/>
<line x1="1270" y1="340" x2="1000" y2="340" style="stroke:black;stroke-width:2;fill:none;marker-end:url(#arrowhead)"/>
<line x1="1000" y1="340" x2="1000" y2="320" style="stroke:black;stroke-width:2;fill:none;marker-end:url(#arrowhead)"/>
<polygon points="1000,335.0 1090.0,365 1000,395.0 910.0,365" style="fill:white;stroke:black;stroke-width:2"/>
<text x="1000" y="361.0" style="font-family:Microsoft YaHei,SimHei,Arial;font-size:16px;text-anchor:middle;font-size:15px">普通用户/</text>
<text x="1000" y="379.0" style="font-family:Microsoft YaHei,SimHei,Arial;font-size:16px;text-anchor:middle;font-size:15px">管理员?</text>
<line x1="910" y1="365" x2="650" y2="365" style="stroke:black;stroke-width:2;fill:none;marker-end:url(#arrowhead)"/>
<text x="780.0" y="350.0" style="font-family:Microsoft YaHei,SimHei,Arial;font-size:14px;font-weight:bold;text-anchor:middle">普通用户</text>
<rect x="420.0" y="335.0" width="160" height="60" style="fill:white;stroke:black;stroke-width:2"/>
<text x="500" y="360.0" style="font-family:Microsoft YaHei,SimHei,Arial;font-size:16px;text-anchor:middle">输入用户名和</text>
<text x="500" y="380.0" style="font-family:Microsoft YaHei,SimHei,Arial;font-size:16px;text-anchor:middle">密码获取验证码</text>
<line x1="500" y1="395" x2="500" y2="440" style="stroke:black;stroke-width:2;fill:none;marker-end:url(#arrowhead)"/>
<polygon points="500,445.0 580.0,475 500,505.0 420.0,475" style="fill:white;stroke:black;stroke-width:2"/>
<text x="500" y="471.0" style="font-family:Microsoft YaHei,SimHei,Arial;font-size:16px;text-anchor:middle;font-size:15px">验证登录</text>
<text x="500" y="489.0" style="font-family:Microsoft YaHei,SimHei,Arial;font-size:16px;text-anchor:middle;font-size:15px">合法性?</text>
<line x1="500" y1="505" x2="500" y2="550" style="stroke:black;stroke-width:2;fill:none;marker-end:url(#arrowhead)"/>
<text x="500.0" y="527.5" style="font-family:Microsoft YaHei,SimHei,Arial;font-size:14px;font-weight:bold;text-anchor:middle">Y</text>
<line x1="420" y1="475" x2="350" y2="475" style="stroke:black;stroke-width:2;fill:none;marker-end:url(#arrowhead)"/>
<text x="385.0" y="475.0" style="font-family:Microsoft YaHei,SimHei,Arial;font-size:14px;font-weight:bold;text-anchor:middle">N</text>
<line x1="350" y1="475" x2="350" y2="365" style="stroke:black;stroke-width:2;fill:none;marker-end:url(#arrowhead)"/>
<line x1="350" y1="365" x2="420" y2="365" style="stroke:black;stroke-width:2;fill:none;marker-end:url(#arrowhead)"/>
<text x="350" y="420.0" style="font-family:Microsoft YaHei,SimHei,Arial;font-size:14px;font-weight:bold;text-anchor:middle;font-size:12px">重新输入</text>
<rect x="440.0" y="555.0" width="120" height="50" style="fill:white;stroke:black;stroke-width:2"/>
<text x="500" y="586" style="font-family:Microsoft YaHei,SimHei,Arial;font-size:16px;text-anchor:middle">商品展示</text>
<line x1="500" y1="605" x2="500" y2="645" style="stroke:black;stroke-width:2;fill:none;marker-end:url(#arrowhead)"/>
<rect x="440.0" y="645.0" width="120" height="50" style="fill:white;stroke:black;stroke-width:2"/>
<text x="500" y="676" style="font-family:Microsoft YaHei,SimHei,Arial;font-size:16px;text-anchor:middle">选择商品</text>
<line x1="500" y1="695" x2="500" y2="735" style="stroke:black;stroke-width:2;fill:none;marker-end:url(#arrowhead)"/>
<polygon points="500,730.0 560.0,760 500,790.0 440.0,760" style="fill:white;stroke:black;stroke-width:2"/>
<text x="500" y="765" style="font-family:Microsoft YaHei,SimHei,Arial;font-size:16px;text-anchor:middle;font-size:15px">是否购买?</text>
<line x1="500" y1="790" x2="500" y2="835" style="stroke:black;stroke-width:2;fill:none;marker-end:url(#arrowhead)"/>
<text x="500.0" y="812.5" style="font-family:Microsoft YaHei,SimHei,Arial;font-size:14px;font-weight:bold;text-anchor:middle">Y</text>
<line x1="560" y1="760" x2="650" y2="760" style="stroke:black;stroke-width:2;fill:none;marker-end:url(#arrowhead)"/>
<text x="605.0" y="760.0" style="font-family:Microsoft YaHei,SimHei,Arial;font-size:14px;font-weight:bold;text-anchor:middle">N</text>
<rect x="640.0" y="735.0" width="120" height="50" style="fill:white;stroke:black;stroke-width:2"/>
<text x="700" y="766" style="font-family:Microsoft YaHei,SimHei,Arial;font-size:16px;text-anchor:middle">继续浏览</text>
<text x="350" y="845" style="font-family:Microsoft YaHei,SimHei,Arial;font-size:14px;font-weight:bold;text-anchor:middle;font-size:12px">运输</text>
<rect x="340.0" y="840.0" width="120" height="50" style="fill:white;stroke:black;stroke-width:2"/>
<text x="400" y="871" style="font-family:Microsoft YaHei,SimHei,Arial;font-size:16px;text-anchor:middle">直接购买商品</text>
<rect x="540.0" y="840.0" width="120" height="50" style="fill:white;stroke:black;stroke-width:2"/>
<text x="600" y="871" style="font-family:Microsoft YaHei,SimHei,Arial;font-size:16px;text-anchor:middle">加入购物车</text>
<line x1="500" y1="790" x2="400" y2="840" style="stroke:black;stroke-width:2;fill:none;marker-end:url(#arrowhead)"/>
<line x1="500" y1="790" x2="600" y2="840" style="stroke:black;stroke-width:2;fill:none;marker-end:url(#arrowhead)"/>
<line x1="400" y1="890" x2="400" y2="940" style="stroke:black;stroke-width:2;fill:none;marker-end:url(#arrowhead)"/>
<line x1="600" y1="890" x2="600" y2="940" style="stroke:black;stroke-width:2;fill:none;marker-end:url(#arrowhead)"/>
<rect x="340.0" y="935.0" width="120" height="60" style="fill:white;stroke:black;stroke-width:2"/>
<text x="400" y="960.0" style="font-family:Microsoft YaHei,SimHei,Arial;font-size:16px;text-anchor:middle">是否提送货</text>
<text x="400" y="980.0" style="font-family:Microsoft YaHei,SimHei,Arial;font-size:16px;text-anchor:middle">上门</text>
<rect x="540.0" y="940.0" width="120" height="50" style="fill:white;stroke:black;stroke-width:2"/>
<text x="600" y="971" style="font-family:Microsoft YaHei,SimHei,Arial;font-size:16px;text-anchor:middle">查看购物车</text>
<line x1="400" y1="995" x2="400" y2="1040" style="stroke:black;stroke-width:2;fill:none;marker-end:url(#arrowhead)"/>
<line x1="600" y1="990" x2="600" y2="1035" style="stroke:black;stroke-width:2;fill:none;marker-end:url(#arrowhead)"/>
<text x="370" y="1050" style="font-family:Microsoft YaHei,SimHei,Arial;font-size:14px;font-weight:bold;text-anchor:middle;font-size:12px">是</text>
<line x1="400" y1="1050" x2="500" y2="1050" style="stroke:black;stroke-width:2;fill:none;marker-end:url(#arrowhead)"/>
<line x1="600" y1="1050" x2="500" y2="1050" style="stroke:black;stroke-width:2;fill:none;marker-end:url(#arrowhead)"/>
<line x1="500" y1="1050" x2="500" y2="1015" style="stroke:black;stroke-width:2;fill:none;marker-end:url(#arrowhead)"/>
<rect x="440.0" y="1040.0" width="120" height="50" style="fill:white;stroke:black;stroke-width:2"/>
<text x="500" y="1071" style="font-family:Microsoft YaHei,SimHei,Arial;font-size:16px;text-anchor:middle">提交订单</text>
<line x1="1090" y1="365" x2="1350" y2="365" style="stroke:black;stroke-width:2;fill:none;marker-end:url(#arrowhead)"/>
<text x="1220.0" y="350.0" style="font-family:Microsoft YaHei,SimHei,Arial;font-size:14px;font-weight:bold;text-anchor:middle">管理员</text>
<rect x="1420.0" y="335.0" width="160" height="60" style="fill:white;stroke:black;stroke-width:2"/>
<text x="1500" y="360.0" style="font-family:Microsoft YaHei,SimHei,Arial;font-size:16px;text-anchor:middle">输入用户名和</text>
<text x="1500" y="380.0" style="font-family:Microsoft YaHei,SimHei,Arial;font-size:16px;text-anchor:middle">密码获取验证码</text>
<line x1="1500" y1="395" x2="1500" y2="440" style="stroke:black;stroke-width:2;fill:none;marker-end:url(#arrowhead)"/>
<polygon points="1500,445.0 1580.0,475 1500,505.0 1420.0,475" style="fill:white;stroke:black;stroke-width:2"/>
<text x="1500" y="471.0" style="font-family:Microsoft YaHei,SimHei,Arial;font-size:16px;text-anchor:middle;font-size:15px">验证登录</text>
<text x="1500" y="489.0" style="font-family:Microsoft YaHei,SimHei,Arial;font-size:16px;text-anchor:middle;font-size:15px">合法性?</text>
<line x1="1500" y1="505" x2="1500" y2="550" style="stroke:black;stroke-width:2;fill:none;marker-end:url(#arrowhead)"/>
<text x="1500.0" y="527.5" style="font-family:Microsoft YaHei,SimHei,Arial;font-size:14px;font-weight:bold;text-anchor:middle">Y</text>
<line x1="1580" y1="475" x2="1650" y2="475" style="stroke:black;stroke-width:2;fill:none;marker-end:url(#arrowhead)"/>
<text x="1615.0" y="475.0" style="font-family:Microsoft YaHei,SimHei,Arial;font-size:14px;font-weight:bold;text-anchor:middle">N</text>
<line x1="1650" y1="475" x2="1650" y2="365" style="stroke:black;stroke-width:2;fill:none;marker-end:url(#arrowhead)"/>
<line x1="1650" y1="365" x2="1580" y2="365" style="stroke:black;stroke-width:2;fill:none;marker-end:url(#arrowhead)"/>
<text x="1650" y="420.0" style="font-family:Microsoft YaHei,SimHei,Arial;font-size:14px;font-weight:bold;text-anchor:middle;font-size:12px">重新输入</text>
<rect x="1430.0" y="555.0" width="140" height="50" style="fill:white;stroke:black;stroke-width:2"/>
<text x="1500" y="586" style="font-family:Microsoft YaHei,SimHei,Arial;font-size:16px;text-anchor:middle">用户信息管理</text>
<line x1="1500" y1="605" x2="1500" y2="645" style="stroke:black;stroke-width:2;fill:none;marker-end:url(#arrowhead)"/>
<rect x="1430.0" y="645.0" width="140" height="50" style="fill:white;stroke:black;stroke-width:2"/>
<text x="1500" y="676" style="font-family:Microsoft YaHei,SimHei,Arial;font-size:16px;text-anchor:middle">商品信息管理</text>
<line x1="1500" y1="695" x2="1500" y2="735" style="stroke:black;stroke-width:2;fill:none;marker-end:url(#arrowhead)"/>
<rect x="1430.0" y="735.0" width="140" height="50" style="fill:white;stroke:black;stroke-width:2"/>
<text x="1500" y="766" style="font-family:Microsoft YaHei,SimHei,Arial;font-size:16px;text-anchor:middle">订单管理</text>
<line x1="1500" y1="785" x2="1500" y2="835" style="stroke:black;stroke-width:2;fill:none;marker-end:url(#arrowhead)"/>
<rect x="1240.0" y="840.0" width="100" height="50" style="fill:white;stroke:black;stroke-width:2"/>
<text x="1290" y="871" style="font-family:Microsoft YaHei,SimHei,Arial;font-size:16px;text-anchor:middle">查看订单</text>
<rect x="1380.0" y="840.0" width="100" height="50" style="fill:white;stroke:black;stroke-width:2"/>
<text x="1430" y="871" style="font-family:Microsoft YaHei,SimHei,Arial;font-size:16px;text-anchor:middle">订单状态</text>
<rect x="1520.0" y="840.0" width="100" height="50" style="fill:white;stroke:black;stroke-width:2"/>
<text x="1570" y="871" style="font-family:Microsoft YaHei,SimHei,Arial;font-size:16px;text-anchor:middle">删除订单</text>
<rect x="1660.0" y="840.0" width="100" height="50" style="fill:white;stroke:black;stroke-width:2"/>
<text x="1710" y="871" style="font-family:Microsoft YaHei,SimHei,Arial;font-size:16px;text-anchor:middle">完成订单</text>
<line x1="1500" y1="790" x2="1290" y2="840" style="stroke:black;stroke-width:2;fill:none;marker-end:url(#arrowhead)"/>
<line x1="1500" y1="790" x2="1430" y2="840" style="stroke:black;stroke-width:2;fill:none;marker-end:url(#arrowhead)"/>
<line x1="1500" y1="790" x2="1570" y2="840" style="stroke:black;stroke-width:2;fill:none;marker-end:url(#arrowhead)"/>
<line x1="1500" y1="790" x2="1710" y2="840" style="stroke:black;stroke-width:2;fill:none;marker-end:url(#arrowhead)"/>
<line x1="1290" y1="890" x2="1290" y2="935" style="stroke:black;stroke-width:2;fill:none;marker-end:url(#arrowhead)"/>
<line x1="1430" y1="890" x2="1430" y2="935" style="stroke:black;stroke-width:2;fill:none;marker-end:url(#arrowhead)"/>
<line x1="1570" y1="890" x2="1570" y2="935" style="stroke:black;stroke-width:2;fill:none;marker-end:url(#arrowhead)"/>
<line x1="1710" y1="890" x2="1710" y2="935" style="stroke:black;stroke-width:2;fill:none;marker-end:url(#arrowhead)"/>
<line x1="1290" y1="960" x2="1500" y2="960" style="stroke:black;stroke-width:2;fill:none;marker-end:url(#arrowhead)"/>
<line x1="1430" y1="960" x2="1500" y2="960" style="stroke:black;stroke-width:2;fill:none;marker-end:url(#arrowhead)"/>
<line x1="1570" y1="960" x2="1500" y2="960" style="stroke:black;stroke-width:2;fill:none;marker-end:url(#arrowhead)"/>
<line x1="1710" y1="960" x2="1500" y2="960" style="stroke:black;stroke-width:2;fill:none;marker-end:url(#arrowhead)"/>
<line x1="1500" y1="960" x2="1500" y2="1000" style="stroke:black;stroke-width:2;fill:none;marker-end:url(#arrowhead)"/>
<rect x="1430.0" y="1000.0" width="140" height="50" style="fill:white;stroke:black;stroke-width:2"/>
<text x="1500" y="1031" style="font-family:Microsoft YaHei,SimHei,Arial;font-size:16px;text-anchor:middle">首页配置管理</text>
<line x1="500" y1="930" x2="500" y2="1140" style="stroke:black;stroke-width:2;fill:none;marker-end:url(#arrowhead)"/>
<line x1="500" y1="1140" x2="1000" y2="1140" style="stroke:black;stroke-width:2;fill:none;marker-end:url(#arrowhead)"/>
<line x1="1500" y1="1050" x2="1500" y2="1140" style="stroke:black;stroke-width:2;fill:none;marker-end:url(#arrowhead)"/>
<line x1="1500" y1="1140" x2="1000" y2="1140" style="stroke:black;stroke-width:2;fill:none;marker-end:url(#arrowhead)"/>
<line x1="1000" y1="1140" x2="1000" y2="1110" style="stroke:black;stroke-width:2;fill:none;marker-end:url(#arrowhead)"/>
<rect x="940.0" y="1175.0" width="120" height="50" style="fill:white;stroke:black;stroke-width:2"/>
<text x="1000" y="1206" style="font-family:Microsoft YaHei,SimHei,Arial;font-size:16px;text-anchor:middle">退出登录</text>
<line x1="1000" y1="1225" x2="1000" y2="1265" style="stroke:black;stroke-width:2;fill:none;marker-end:url(#arrowhead)"/>
<rect x="940.0" y="1275.0" width="120" height="50" rx="15" ry="15" style="fill:white;stroke:black;stroke-width:2"/>
<text x="1000" y="1306" style="font-family:Microsoft YaHei,SimHei,Arial;font-size:16px;text-anchor:middle">结束</text>
</svg>