<?xml version="1.0" encoding="UTF-8"?>
<svg width="2200" height="1270" xmlns="http://www.w3.org/2000/svg">
<defs>
  <marker id="arrow" markerWidth="10" markerHeight="10" refX="9" refY="5" orient="auto">
    <polygon points="0 0, 10 5, 0 10" fill="black"/>
  </marker>
</defs>
<rect width="2200" height="1270" fill="white"/>
<rect x="1030.0" y="30.0" width="140" height="60" rx="20" style="fill:white;stroke:black;stroke-width:2"/>
<text x="1100.0" y="60" style="font-family:Microsoft YaHei,SimHei,Arial;font-size:18px;text-anchor:middle;dominant-baseline:middle">开始</text>
<line x1="1100.0" y1="90" x2="1100.0" y2="120" style="stroke:black;stroke-width:2;fill:none;marker-end:url(#arrow)"/>
<rect x="1030.0" y="120.0" width="140" height="60" style="fill:white;stroke:black;stroke-width:2"/>
<text x="1100.0" y="150" style="font-family:Microsoft YaHei,SimHei,Arial;font-size:18px;text-anchor:middle;dominant-baseline:middle">系统登录</text>
<line x1="1100.0" y1="180" x2="1100.0" y2="210" style="stroke:black;stroke-width:2;fill:none;marker-end:url(#arrow)"/>
<polygon points="1100.0,210.0 1180.0,245 1100.0,280.0 1020.0,245" style="fill:white;stroke:black;stroke-width:2"/>
<text x="1100.0" y="245" style="font-family:Microsoft YaHei,SimHei,Arial;font-size:18px;text-anchor:middle;dominant-baseline:middle">是否注册?</text>
<line x1="1180.0" y1="245" x2="1430.0" y2="245" style="stroke:black;stroke-width:2;fill:none;marker-end:url(#arrow)"/>
<text x="1305.0" y="237.0" style="font-family:Microsoft YaHei,SimHei,Arial;font-size:16px;font-weight:bold;text-anchor:middle">N</text>
<rect x="1430.0" y="215.0" width="140" height="60" style="fill:white;stroke:black;stroke-width:2"/>
<text x="1500.0" y="245" style="font-family:Microsoft YaHei,SimHei,Arial;font-size:18px;text-anchor:middle;dominant-baseline:middle">注册账号</text>
<line x1="1500.0" y1="275" x2="1500.0" y2="295" style="stroke:black;stroke-width:2;fill:none"/>
<line x1="1500.0" y1="295" x2="1100.0" y2="295" style="stroke:black;stroke-width:2;fill:none"/>
<line x1="1100.0" y1="295" x2="1100.0" y2="280" style="stroke:black;stroke-width:2;fill:none"/>
<line x1="1100.0" y1="280" x2="1100.0" y2="305" style="stroke:black;stroke-width:2;fill:none;marker-end:url(#arrow)"/>
<text x="1100.0" y="284.5" style="font-family:Microsoft YaHei,SimHei,Arial;font-size:16px;font-weight:bold;text-anchor:middle">Y</text>
<polygon points="1100.0,305.0 1200.0,340 1100.0,375.0 1000.0,340" style="fill:white;stroke:black;stroke-width:2"/>
<text x="1100.0" y="330.0" style="font-family:Microsoft YaHei,SimHei,Arial;font-size:16px;text-anchor:middle;dominant-baseline:middle">普通用户/</text>
<text x="1100.0" y="350.0" style="font-family:Microsoft YaHei,SimHei,Arial;font-size:16px;text-anchor:middle;dominant-baseline:middle">管理员?</text>
<line x1="1000.0" y1="340" x2="640.0" y2="340" style="stroke:black;stroke-width:2;fill:none;marker-end:url(#arrow)"/>
<text x="820.0" y="332.0" style="font-family:Microsoft YaHei,SimHei,Arial;font-size:16px;font-weight:bold;text-anchor:middle">普通用户</text>
<rect x="460.0" y="305.0" width="180" height="70" style="fill:white;stroke:black;stroke-width:2"/>
<text x="550" y="329.0" style="font-family:Microsoft YaHei,SimHei,Arial;font-size:16px;text-anchor:middle;dominant-baseline:middle">输入用户名和</text>
<text x="550" y="351.0" style="font-family:Microsoft YaHei,SimHei,Arial;font-size:16px;text-anchor:middle;dominant-baseline:middle">密码获取验证码</text>
<line x1="550" y1="375" x2="550" y2="410" style="stroke:black;stroke-width:2;fill:none;marker-end:url(#arrow)"/>
<polygon points="550,410.0 635.0,445 550,480.0 465.0,445" style="fill:white;stroke:black;stroke-width:2"/>
<text x="550" y="435.0" style="font-family:Microsoft YaHei,SimHei,Arial;font-size:16px;text-anchor:middle;dominant-baseline:middle">验证登录</text>
<text x="550" y="455.0" style="font-family:Microsoft YaHei,SimHei,Arial;font-size:16px;text-anchor:middle;dominant-baseline:middle">合法性?</text>
<line x1="550" y1="480" x2="550" y2="510" style="stroke:black;stroke-width:2;fill:none;marker-end:url(#arrow)"/>
<text x="550.0" y="487.0" style="font-family:Microsoft YaHei,SimHei,Arial;font-size:16px;font-weight:bold;text-anchor:middle">Y</text>
<line x1="465" y1="445" x2="370" y2="445" style="stroke:black;stroke-width:2;fill:none;marker-end:url(#arrow)"/>
<text x="417.5" y="437.0" style="font-family:Microsoft YaHei,SimHei,Arial;font-size:16px;font-weight:bold;text-anchor:middle">N</text>
<line x1="370" y1="445" x2="370" y2="340" style="stroke:black;stroke-width:2;fill:none"/>
<line x1="370" y1="340" x2="460" y2="340" style="stroke:black;stroke-width:2;fill:none;marker-end:url(#arrow)"/>
<text x="370" y="392" style="font-family:Microsoft YaHei,SimHei,Arial;font-size:16px;text-anchor:middle;dominant-baseline:middle">重新输入</text>
<rect x="480.0" y="510.0" width="140" height="60" style="fill:white;stroke:black;stroke-width:2"/>
<text x="550" y="540" style="font-family:Microsoft YaHei,SimHei,Arial;font-size:18px;text-anchor:middle;dominant-baseline:middle">商品展示</text>
<line x1="550" y1="570" x2="550" y2="600" style="stroke:black;stroke-width:2;fill:none;marker-end:url(#arrow)"/>
<rect x="480.0" y="600.0" width="140" height="60" style="fill:white;stroke:black;stroke-width:2"/>
<text x="550" y="630" style="font-family:Microsoft YaHei,SimHei,Arial;font-size:18px;text-anchor:middle;dominant-baseline:middle">选择商品</text>
<rect x="360.0" y="700.0" width="140" height="60" style="fill:white;stroke:black;stroke-width:2"/>
<text x="430" y="730" style="font-family:Microsoft YaHei,SimHei,Arial;font-size:18px;text-anchor:middle;dominant-baseline:middle">直接购买商品</text>
<rect x="600.0" y="700.0" width="140" height="60" style="fill:white;stroke:black;stroke-width:2"/>
<text x="670" y="730" style="font-family:Microsoft YaHei,SimHei,Arial;font-size:18px;text-anchor:middle;dominant-baseline:middle">加入购物车</text>
<line x1="550" y1="660" x2="430" y2="700" style="stroke:black;stroke-width:2;fill:none;marker-end:url(#arrow)"/>
<line x1="550" y1="660" x2="670" y2="700" style="stroke:black;stroke-width:2;fill:none;marker-end:url(#arrow)"/>
<line x1="430" y1="760" x2="430" y2="830" style="stroke:black;stroke-width:2;fill:none;marker-end:url(#arrow)"/>
<line x1="670" y1="760" x2="670" y2="800" style="stroke:black;stroke-width:2;fill:none;marker-end:url(#arrow)"/>
<rect x="600.0" y="800.0" width="140" height="60" style="fill:white;stroke:black;stroke-width:2"/>
<text x="670" y="830" style="font-family:Microsoft YaHei,SimHei,Arial;font-size:18px;text-anchor:middle;dominant-baseline:middle">查看购物车</text>
<line x1="670" y1="860" x2="670" y2="920" style="stroke:black;stroke-width:2;fill:none;marker-end:url(#arrow)"/>
<line x1="430" y1="830" x2="430" y2="950" style="stroke:black;stroke-width:2;fill:none"/>
<line x1="430" y1="950" x2="550" y2="950" style="stroke:black;stroke-width:2;fill:none"/>
<line x1="670" y1="920" x2="550" y2="920" style="stroke:black;stroke-width:2;fill:none"/>
<line x1="550" y1="920" x2="550" y2="950" style="stroke:black;stroke-width:2;fill:none"/>
<line x1="550" y1="950" x2="550" y2="980" style="stroke:black;stroke-width:2;fill:none;marker-end:url(#arrow)"/>
<rect x="480.0" y="980.0" width="140" height="60" style="fill:white;stroke:black;stroke-width:2"/>
<text x="550" y="1010" style="font-family:Microsoft YaHei,SimHei,Arial;font-size:18px;text-anchor:middle;dominant-baseline:middle">提交订单</text>
<line x1="1200.0" y1="340" x2="1560.0" y2="340" style="stroke:black;stroke-width:2;fill:none;marker-end:url(#arrow)"/>
<text x="1380.0" y="332.0" style="font-family:Microsoft YaHei,SimHei,Arial;font-size:16px;font-weight:bold;text-anchor:middle">管理员</text>
<rect x="1560.0" y="305.0" width="180" height="70" style="fill:white;stroke:black;stroke-width:2"/>
<text x="1650" y="329.0" style="font-family:Microsoft YaHei,SimHei,Arial;font-size:16px;text-anchor:middle;dominant-baseline:middle">输入用户名和</text>
<text x="1650" y="351.0" style="font-family:Microsoft YaHei,SimHei,Arial;font-size:16px;text-anchor:middle;dominant-baseline:middle">密码获取验证码</text>
<line x1="1650" y1="375" x2="1650" y2="410" style="stroke:black;stroke-width:2;fill:none;marker-end:url(#arrow)"/>
<polygon points="1650,410.0 1735.0,445 1650,480.0 1565.0,445" style="fill:white;stroke:black;stroke-width:2"/>
<text x="1650" y="435.0" style="font-family:Microsoft YaHei,SimHei,Arial;font-size:16px;text-anchor:middle;dominant-baseline:middle">验证登录</text>
<text x="1650" y="455.0" style="font-family:Microsoft YaHei,SimHei,Arial;font-size:16px;text-anchor:middle;dominant-baseline:middle">合法性?</text>
<line x1="1650" y1="480" x2="1650" y2="510" style="stroke:black;stroke-width:2;fill:none;marker-end:url(#arrow)"/>
<text x="1650.0" y="487.0" style="font-family:Microsoft YaHei,SimHei,Arial;font-size:16px;font-weight:bold;text-anchor:middle">Y</text>
<line x1="1735" y1="445" x2="1830" y2="445" style="stroke:black;stroke-width:2;fill:none;marker-end:url(#arrow)"/>
<text x="1782.5" y="437.0" style="font-family:Microsoft YaHei,SimHei,Arial;font-size:16px;font-weight:bold;text-anchor:middle">N</text>
<line x1="1830" y1="445" x2="1830" y2="340" style="stroke:black;stroke-width:2;fill:none"/>
<line x1="1830" y1="340" x2="1740" y2="340" style="stroke:black;stroke-width:2;fill:none;marker-end:url(#arrow)"/>
<text x="1830" y="392" style="font-family:Microsoft YaHei,SimHei,Arial;font-size:16px;text-anchor:middle;dominant-baseline:middle">重新输入</text>
<rect x="1570.0" y="510.0" width="160" height="60" style="fill:white;stroke:black;stroke-width:2"/>
<text x="1650" y="540" style="font-family:Microsoft YaHei,SimHei,Arial;font-size:18px;text-anchor:middle;dominant-baseline:middle">用户信息管理</text>
<line x1="1650" y1="570" x2="1650" y2="600" style="stroke:black;stroke-width:2;fill:none;marker-end:url(#arrow)"/>
<rect x="1570.0" y="600.0" width="160" height="60" style="fill:white;stroke:black;stroke-width:2"/>
<text x="1650" y="630" style="font-family:Microsoft YaHei,SimHei,Arial;font-size:18px;text-anchor:middle;dominant-baseline:middle">商品信息管理</text>
<line x1="1650" y1="660" x2="1650" y2="690" style="stroke:black;stroke-width:2;fill:none;marker-end:url(#arrow)"/>
<rect x="1570.0" y="690.0" width="160" height="60" style="fill:white;stroke:black;stroke-width:2"/>
<text x="1650" y="720" style="font-family:Microsoft YaHei,SimHei,Arial;font-size:18px;text-anchor:middle;dominant-baseline:middle">订单管理</text>
<rect x="1370" y="790" width="560" height="100" style="fill:none;stroke:black;stroke-width:2"/>
<line x1="1650" y1="750" x2="1650" y2="790" style="stroke:black;stroke-width:2;fill:none;marker-end:url(#arrow)"/>
<rect x="1385.0" y="810.0" width="110" height="60" style="fill:white;stroke:black;stroke-width:2"/>
<text x="1440" y="840" style="font-family:Microsoft YaHei,SimHei,Arial;font-size:18px;text-anchor:middle;dominant-baseline:middle">查看订单</text>
<rect x="1525.0" y="810.0" width="110" height="60" style="fill:white;stroke:black;stroke-width:2"/>
<text x="1580" y="840" style="font-family:Microsoft YaHei,SimHei,Arial;font-size:18px;text-anchor:middle;dominant-baseline:middle">订单状态</text>
<rect x="1665.0" y="810.0" width="110" height="60" style="fill:white;stroke:black;stroke-width:2"/>
<text x="1720" y="840" style="font-family:Microsoft YaHei,SimHei,Arial;font-size:18px;text-anchor:middle;dominant-baseline:middle">删除订单</text>
<rect x="1805.0" y="810.0" width="110" height="60" style="fill:white;stroke:black;stroke-width:2"/>
<text x="1860" y="840" style="font-family:Microsoft YaHei,SimHei,Arial;font-size:18px;text-anchor:middle;dominant-baseline:middle">完成订单</text>
<line x1="1650" y1="890" x2="1650" y2="940" style="stroke:black;stroke-width:2;fill:none;marker-end:url(#arrow)"/>
<rect x="1570.0" y="940.0" width="160" height="60" style="fill:white;stroke:black;stroke-width:2"/>
<text x="1650" y="970" style="font-family:Microsoft YaHei,SimHei,Arial;font-size:18px;text-anchor:middle;dominant-baseline:middle">首页配置管理</text>
<line x1="550" y1="1040" x2="550" y2="1140" style="stroke:black;stroke-width:2;fill:none"/>
<line x1="550" y1="1140" x2="1100.0" y2="1140" style="stroke:black;stroke-width:2;fill:none"/>
<line x1="1650" y1="1000" x2="1650" y2="1140" style="stroke:black;stroke-width:2;fill:none"/>
<line x1="1650" y1="1140" x2="1100.0" y2="1140" style="stroke:black;stroke-width:2;fill:none"/>
<line x1="1100.0" y1="1140" x2="1100.0" y2="1110" style="stroke:black;stroke-width:2;fill:none;marker-end:url(#arrow)"/>
<rect x="1030.0" y="1050.0" width="140" height="60" style="fill:white;stroke:black;stroke-width:2"/>
<text x="1100.0" y="1080" style="font-family:Microsoft YaHei,SimHei,Arial;font-size:18px;text-anchor:middle;dominant-baseline:middle">退出登录</text>
<line x1="1100.0" y1="1110" x2="1100.0" y2="1170" style="stroke:black;stroke-width:2;fill:none;marker-end:url(#arrow)"/>
<rect x="1030.0" y="1170.0" width="140" height="60" rx="20" style="fill:white;stroke:black;stroke-width:2"/>
<text x="1100.0" y="1200" style="font-family:Microsoft YaHei,SimHei,Arial;font-size:18px;text-anchor:middle;dominant-baseline:middle">结束</text>
</svg>