<svg xmlns="http://www.w3.org/2000/svg" xmlns:xlink="http://www.w3.org/1999/xlink" contentStyleType="text/css" data-diagram-type="CLASS" height="1098px" preserveAspectRatio="none" style="width:706px;height:1098px;background:#FFFFFF;" version="1.1" viewBox="0 0 706 1098" width="706px" zoomAndPan="magnify"><defs/><g><!--class users--><g class="entity" data-entity="users" data-source-line="11" data-uid="ent0002" id="entity_users"><rect fill="#E8F4FD" height="188.9688" rx="2.5" ry="2.5" style="stroke:#4A90E2;stroke-width:0.5;" width="205.293" x="14.45" y="272.97"/><ellipse cx="86.3847" cy="294.2669" fill="#ADD1B2" rx="11" ry="11" style="stroke:#181818;stroke-width:1;"/><path d="M90.494,300.2669 L82.7753,300.2669 L82.7753,287.8763 L90.494,287.8763 L90.494,290.0325 L85.2284,290.0325 L85.2284,292.7044 L89.994,292.7044 L89.994,294.8606 L85.2284,294.8606 L85.2284,298.1106 L90.494,298.1106 L90.494,300.2669 Z " fill="#000000"/><text fill="#000000" font-family="sans-serif" font-size="14" lengthAdjust="spacing" textLength="37.8301" x="114.4314" y="290.9651">users</text><text fill="#000000" font-family="sans-serif" font-size="14" lengthAdjust="spacing" textLength="52.9236" x="106.8847" y="307.262">(&#29992;&#25143;&#34920;)</text><line style="stroke:#4A90E2;stroke-width:0.5;" x1="15.45" x2="218.743" y1="315.5638" y2="315.5638"/><ellipse cx="25.45" cy="329.2122" fill="#000000" rx="3" ry="3" style="stroke:#000000;stroke-width:1;"/><text fill="#000000" font-family="sans-serif" font-size="14" lengthAdjust="spacing" textLength="113.333" x="34.45" y="332.5589">id : BIGINT &#171;PK&#187;</text><line style="stroke:#4A90E2;stroke-width:1;" x1="15.45" x2="218.743" y1="339.8606" y2="339.8606"/><text fill="#000000" font-family="sans-serif" font-size="14" lengthAdjust="spacing" textLength="189.9912" x="20.45" y="356.8557">username : VARCHAR(255)</text><text fill="#000000" font-family="sans-serif" font-size="14" lengthAdjust="spacing" textLength="193.293" x="20.45" y="373.1526">real_name : VARCHAR(255)</text><text fill="#000000" font-family="sans-serif" font-size="14" lengthAdjust="spacing" textLength="186.4639" x="20.45" y="389.4495">password : VARCHAR(255)</text><text fill="#000000" font-family="sans-serif" font-size="14" lengthAdjust="spacing" textLength="137.6689" x="20.45" y="405.7464">role : VARCHAR(50)</text><text fill="#000000" font-family="sans-serif" font-size="14" lengthAdjust="spacing" textLength="177.2422" x="20.45" y="422.0432">created_time : DATETIME</text><text fill="#000000" font-family="sans-serif" font-size="14" lengthAdjust="spacing" textLength="181.8223" x="20.45" y="438.3401">updated_time : DATETIME</text><text fill="#000000" font-family="sans-serif" font-size="14" lengthAdjust="spacing" textLength="107.9463" x="20.45" y="454.637">is_deleted : INT</text></g><!--class canteens--><g class="entity" data-entity="canteens" data-source-line="23" data-uid="ent0003" id="entity_canteens"><rect fill="#E8F4FD" height="188.9688" rx="2.5" ry="2.5" style="stroke:#4A90E2;stroke-width:0.5;" width="197.5342" x="272.33" y="7"/><ellipse cx="334.831" cy="28.2969" fill="#ADD1B2" rx="11" ry="11" style="stroke:#181818;stroke-width:1;"/><path d="M338.9404,34.2969 L331.2216,34.2969 L331.2216,21.9063 L338.9404,21.9063 L338.9404,24.0625 L333.6747,24.0625 L333.6747,26.7344 L338.4404,26.7344 L338.4404,28.8906 L333.6747,28.8906 L333.6747,32.1406 L338.9404,32.1406 L338.9404,34.2969 Z " fill="#000000"/><text fill="#000000" font-family="sans-serif" font-size="14" lengthAdjust="spacing" textLength="64.0322" x="355.331" y="24.9951">canteens</text><text fill="#000000" font-family="sans-serif" font-size="14" lengthAdjust="spacing" textLength="52.9236" x="360.8853" y="41.292">(&#39135;&#22530;&#34920;)</text><line style="stroke:#4A90E2;stroke-width:0.5;" x1="273.33" x2="468.8642" y1="49.5938" y2="49.5938"/><ellipse cx="283.33" cy="63.2422" fill="#000000" rx="3" ry="3" style="stroke:#000000;stroke-width:1;"/><text fill="#000000" font-family="sans-serif" font-size="14" lengthAdjust="spacing" textLength="113.333" x="292.33" y="66.5889">id : BIGINT &#171;PK&#187;</text><line style="stroke:#4A90E2;stroke-width:1;" x1="273.33" x2="468.8642" y1="73.8906" y2="73.8906"/><text fill="#000000" font-family="sans-serif" font-size="14" lengthAdjust="spacing" textLength="159.4551" x="278.33" y="90.8857">name : VARCHAR(255)</text><text fill="#000000" font-family="sans-serif" font-size="14" lengthAdjust="spacing" textLength="175.3008" x="278.33" y="107.1826">location : VARCHAR(255)</text><text fill="#000000" font-family="sans-serif" font-size="14" lengthAdjust="spacing" textLength="184.4131" x="278.33" y="123.4795">open_time : VARCHAR(50)</text><text fill="#000000" font-family="sans-serif" font-size="14" lengthAdjust="spacing" textLength="185.5342" x="278.33" y="139.7764">close_time : VARCHAR(50)</text><text fill="#000000" font-family="sans-serif" font-size="14" lengthAdjust="spacing" textLength="177.2422" x="278.33" y="156.0732">created_time : DATETIME</text><text fill="#000000" font-family="sans-serif" font-size="14" lengthAdjust="spacing" textLength="181.8223" x="278.33" y="172.3701">updated_time : DATETIME</text><text fill="#000000" font-family="sans-serif" font-size="14" lengthAdjust="spacing" textLength="107.9463" x="278.33" y="188.667">is_deleted : INT</text></g><!--class stalls--><g class="entity" data-entity="stalls" data-source-line="35" data-uid="ent0004" id="entity_stalls"><rect fill="#E8F4FD" height="172.6719" rx="2.5" ry="2.5" style="stroke:#4A90E2;stroke-width:0.5;" width="207.8223" x="267.18" y="281.12"/><ellipse cx="340.3793" cy="302.4169" fill="#ADD1B2" rx="11" ry="11" style="stroke:#181818;stroke-width:1;"/><path d="M344.4887,308.4169 L336.7699,308.4169 L336.7699,296.0263 L344.4887,296.0263 L344.4887,298.1825 L339.2231,298.1825 L339.2231,300.8544 L343.9887,300.8544 L343.9887,303.0106 L339.2231,303.0106 L339.2231,306.2606 L344.4887,306.2606 L344.4887,308.4169 Z " fill="#000000"/><text fill="#000000" font-family="sans-serif" font-size="14" lengthAdjust="spacing" textLength="36.4355" x="369.1234" y="299.1151">stalls</text><text fill="#000000" font-family="sans-serif" font-size="14" lengthAdjust="spacing" textLength="52.9236" x="360.8793" y="315.412">(&#26723;&#21475;&#34920;)</text><line style="stroke:#4A90E2;stroke-width:0.5;" x1="268.18" x2="474.0023" y1="323.7138" y2="323.7138"/><ellipse cx="278.18" cy="337.3622" fill="#000000" rx="3" ry="3" style="stroke:#000000;stroke-width:1;"/><text fill="#000000" font-family="sans-serif" font-size="14" lengthAdjust="spacing" textLength="113.333" x="287.18" y="340.7089">id : BIGINT &#171;PK&#187;</text><line style="stroke:#4A90E2;stroke-width:1;" x1="268.18" x2="474.0023" y1="348.0106" y2="348.0106"/><ellipse cx="278.18" cy="361.6591" fill="#000000" rx="3" ry="3" style="stroke:#000000;stroke-width:1;"/><text fill="#000000" font-family="sans-serif" font-size="14" lengthAdjust="spacing" textLength="176.6816" x="287.18" y="365.0057">canteen_id : BIGINT &#171;FK&#187;</text><text fill="#000000" font-family="sans-serif" font-size="14" lengthAdjust="spacing" textLength="159.4551" x="287.18" y="381.3026">name : VARCHAR(255)</text><text fill="#000000" font-family="sans-serif" font-size="14" lengthAdjust="spacing" textLength="126.998" x="287.18" y="397.5995">description : TEXT</text><text fill="#000000" font-family="sans-serif" font-size="14" lengthAdjust="spacing" textLength="177.2422" x="287.18" y="413.8964">created_time : DATETIME</text><text fill="#000000" font-family="sans-serif" font-size="14" lengthAdjust="spacing" textLength="181.8223" x="287.18" y="430.1932">updated_time : DATETIME</text><text fill="#000000" font-family="sans-serif" font-size="14" lengthAdjust="spacing" textLength="107.9463" x="287.18" y="446.4901">is_deleted : INT</text></g><!--class dishes--><g class="entity" data-entity="dishes" data-source-line="46" data-uid="ent0005" id="entity_dishes"><rect fill="#E8F4FD" height="254.1563" rx="2.5" ry="2.5" style="stroke:#4A90E2;stroke-width:0.5;" width="241.5781" x="420.3" y="538.94"/><ellipse cx="510.3772" cy="560.2369" fill="#ADD1B2" rx="11" ry="11" style="stroke:#181818;stroke-width:1;"/><path d="M514.4866,566.2369 L506.7679,566.2369 L506.7679,553.8463 L514.4866,553.8463 L514.4866,556.0025 L509.221,556.0025 L509.221,558.6744 L513.9866,558.6744 L513.9866,560.8306 L509.221,560.8306 L509.221,564.0806 L514.4866,564.0806 L514.4866,566.2369 Z " fill="#000000"/><text fill="#000000" font-family="sans-serif" font-size="14" lengthAdjust="spacing" textLength="44.8506" x="534.9138" y="556.9351">dishes</text><text fill="#000000" font-family="sans-serif" font-size="14" lengthAdjust="spacing" textLength="52.9236" x="530.8772" y="573.232">(&#33756;&#21697;&#34920;)</text><line style="stroke:#4A90E2;stroke-width:0.5;" x1="421.3" x2="660.8781" y1="581.5338" y2="581.5338"/><ellipse cx="431.3" cy="595.1822" fill="#000000" rx="3" ry="3" style="stroke:#000000;stroke-width:1;"/><text fill="#000000" font-family="sans-serif" font-size="14" lengthAdjust="spacing" textLength="113.333" x="440.3" y="598.5289">id : BIGINT &#171;PK&#187;</text><line style="stroke:#4A90E2;stroke-width:1;" x1="421.3" x2="660.8781" y1="605.8306" y2="605.8306"/><ellipse cx="431.3" cy="619.4791" fill="#000000" rx="3" ry="3" style="stroke:#000000;stroke-width:1;"/><text fill="#000000" font-family="sans-serif" font-size="14" lengthAdjust="spacing" textLength="149.085" x="440.3" y="622.8257">stall_id : BIGINT &#171;FK&#187;</text><text fill="#000000" font-family="sans-serif" font-size="14" lengthAdjust="spacing" textLength="159.4551" x="440.3" y="639.1226">name : VARCHAR(255)</text><text fill="#000000" font-family="sans-serif" font-size="14" lengthAdjust="spacing" textLength="140.5332" x="440.3" y="655.4195">publish_date : DATE</text><text fill="#000000" font-family="sans-serif" font-size="14" lengthAdjust="spacing" textLength="153.542" x="440.3" y="671.7164">price : DECIMAL(10,2)</text><text fill="#000000" font-family="sans-serif" font-size="14" lengthAdjust="spacing" textLength="126.998" x="440.3" y="688.0132">description : TEXT</text><text fill="#000000" font-family="sans-serif" font-size="14" lengthAdjust="spacing" textLength="202.1865" x="440.3" y="704.3101">image_path : VARCHAR(500)</text><text fill="#000000" font-family="sans-serif" font-size="14" lengthAdjust="spacing" textLength="215.5781" x="440.3" y="720.607">average_rating : DECIMAL(3,2)</text><text fill="#000000" font-family="sans-serif" font-size="14" lengthAdjust="spacing" textLength="124.7422" x="440.3" y="736.9039">rating_count : INT</text><text fill="#000000" font-family="sans-serif" font-size="14" lengthAdjust="spacing" textLength="177.2422" x="440.3" y="753.2007">created_time : DATETIME</text><text fill="#000000" font-family="sans-serif" font-size="14" lengthAdjust="spacing" textLength="181.8223" x="440.3" y="769.4976">updated_time : DATETIME</text><text fill="#000000" font-family="sans-serif" font-size="14" lengthAdjust="spacing" textLength="107.9463" x="440.3" y="785.7945">is_deleted : INT</text></g><!--class ratings--><g class="entity" data-entity="ratings" data-source-line="62" data-uid="ent0006" id="entity_ratings"><rect fill="#E8F4FD" height="221.5625" rx="2.5" ry="2.5" style="stroke:#4A90E2;stroke-width:0.5;" width="228.1865" x="7" y="870.1"/><ellipse cx="90.3814" cy="891.3969" fill="#ADD1B2" rx="11" ry="11" style="stroke:#181818;stroke-width:1;"/><path d="M94.4908,897.3969 L86.7721,897.3969 L86.7721,885.0063 L94.4908,885.0063 L94.4908,887.1625 L89.2252,887.1625 L89.2252,889.8344 L93.9908,889.8344 L93.9908,891.9906 L89.2252,891.9906 L89.2252,895.2406 L94.4908,895.2406 L94.4908,897.3969 Z " fill="#000000"/><text fill="#000000" font-family="sans-serif" font-size="14" lengthAdjust="spacing" textLength="48.7676" x="112.9595" y="888.0951">ratings</text><text fill="#000000" font-family="sans-serif" font-size="14" lengthAdjust="spacing" textLength="52.9236" x="110.8814" y="904.392">(&#35780;&#20215;&#34920;)</text><line style="stroke:#4A90E2;stroke-width:0.5;" x1="8" x2="234.1865" y1="912.6938" y2="912.6938"/><ellipse cx="18" cy="926.3422" fill="#000000" rx="3" ry="3" style="stroke:#000000;stroke-width:1;"/><text fill="#000000" font-family="sans-serif" font-size="14" lengthAdjust="spacing" textLength="113.333" x="27" y="929.6889">id : BIGINT &#171;PK&#187;</text><line style="stroke:#4A90E2;stroke-width:1;" x1="8" x2="234.1865" y1="936.9906" y2="936.9906"/><ellipse cx="18" cy="950.6391" fill="#000000" rx="3" ry="3" style="stroke:#000000;stroke-width:1;"/><text fill="#000000" font-family="sans-serif" font-size="14" lengthAdjust="spacing" textLength="150.4795" x="27" y="953.9857">user_id : BIGINT &#171;FK&#187;</text><ellipse cx="18" cy="966.9359" fill="#000000" rx="3" ry="3" style="stroke:#000000;stroke-width:1;"/><text fill="#000000" font-family="sans-serif" font-size="14" lengthAdjust="spacing" textLength="148.8867" x="27" y="970.2826">dish_id : BIGINT &#171;FK&#187;</text><text fill="#000000" font-family="sans-serif" font-size="14" lengthAdjust="spacing" textLength="74.6963" x="27" y="986.5795">score : INT</text><text fill="#000000" font-family="sans-serif" font-size="14" lengthAdjust="spacing" textLength="115.6709" x="27" y="1002.8764">comment : TEXT</text><text fill="#000000" font-family="sans-serif" font-size="14" lengthAdjust="spacing" textLength="202.1865" x="27" y="1019.1732">image_path : VARCHAR(500)</text><text fill="#000000" font-family="sans-serif" font-size="14" lengthAdjust="spacing" textLength="131.4141" x="27" y="1035.4701">rating_date : DATE</text><text fill="#000000" font-family="sans-serif" font-size="14" lengthAdjust="spacing" textLength="177.2422" x="27" y="1051.767">created_time : DATETIME</text><text fill="#000000" font-family="sans-serif" font-size="14" lengthAdjust="spacing" textLength="181.8223" x="27" y="1068.0639">updated_time : DATETIME</text><text fill="#000000" font-family="sans-serif" font-size="14" lengthAdjust="spacing" textLength="107.9463" x="27" y="1084.3607">is_deleted : INT</text></g><!--class complaints--><g class="entity" data-entity="complaints" data-source-line="76" data-uid="ent0007" id="entity_complaints"><rect fill="#E8F4FD" height="237.8594" rx="2.5" ry="2.5" style="stroke:#4A90E2;stroke-width:0.5;" width="207.8223" x="177.18" y="547.09"/><ellipse cx="236.3794" cy="568.3869" fill="#ADD1B2" rx="11" ry="11" style="stroke:#181818;stroke-width:1;"/><path d="M240.4887,574.3869 L232.77,574.3869 L232.77,561.9963 L240.4887,561.9963 L240.4887,564.1525 L235.2231,564.1525 L235.2231,566.8244 L239.9887,566.8244 L239.9887,568.9806 L235.2231,568.9806 L235.2231,572.2306 L240.4887,572.2306 L240.4887,574.3869 Z " fill="#000000"/><text fill="#000000" font-family="sans-serif" font-size="14" lengthAdjust="spacing" textLength="76.8018" x="258.9403" y="565.0851">complaints</text><text fill="#000000" font-family="sans-serif" font-size="14" lengthAdjust="spacing" textLength="80.9235" x="256.8794" y="581.382">(&#25237;&#35785;&#24314;&#35758;&#34920;)</text><line style="stroke:#4A90E2;stroke-width:0.5;" x1="178.18" x2="384.0023" y1="589.6838" y2="589.6838"/><ellipse cx="188.18" cy="603.3322" fill="#000000" rx="3" ry="3" style="stroke:#000000;stroke-width:1;"/><text fill="#000000" font-family="sans-serif" font-size="14" lengthAdjust="spacing" textLength="113.333" x="197.18" y="606.6789">id : BIGINT &#171;PK&#187;</text><line style="stroke:#4A90E2;stroke-width:1;" x1="178.18" x2="384.0023" y1="613.9806" y2="613.9806"/><ellipse cx="188.18" cy="627.6291" fill="#000000" rx="3" ry="3" style="stroke:#000000;stroke-width:1;"/><text fill="#000000" font-family="sans-serif" font-size="14" lengthAdjust="spacing" textLength="150.4795" x="197.18" y="630.9757">user_id : BIGINT &#171;FK&#187;</text><text fill="#000000" font-family="sans-serif" font-size="14" lengthAdjust="spacing" textLength="149.085" x="197.18" y="647.2726">stall_id : BIGINT &#171;FK&#187;</text><text fill="#000000" font-family="sans-serif" font-size="14" lengthAdjust="spacing" textLength="142.1191" x="197.18" y="663.5695">type : VARCHAR(20)</text><text fill="#000000" font-family="sans-serif" font-size="14" lengthAdjust="spacing" textLength="147.123" x="197.18" y="679.8664">title : VARCHAR(255)</text><text fill="#000000" font-family="sans-serif" font-size="14" lengthAdjust="spacing" textLength="102.7578" x="197.18" y="696.1632">content : TEXT</text><text fill="#000000" font-family="sans-serif" font-size="14" lengthAdjust="spacing" textLength="153.8633" x="197.18" y="712.4601">status : VARCHAR(20)</text><text fill="#000000" font-family="sans-serif" font-size="14" lengthAdjust="spacing" textLength="135.4541" x="197.18" y="728.757">admin_reply : TEXT</text><text fill="#000000" font-family="sans-serif" font-size="14" lengthAdjust="spacing" textLength="177.2422" x="197.18" y="745.0539">created_time : DATETIME</text><text fill="#000000" font-family="sans-serif" font-size="14" lengthAdjust="spacing" textLength="181.8223" x="197.18" y="761.3507">updated_time : DATETIME</text><text fill="#000000" font-family="sans-serif" font-size="14" lengthAdjust="spacing" textLength="107.9463" x="197.18" y="777.6476">is_deleted : INT</text></g><!--class sensitive_words--><g class="entity" data-entity="sensitive_words" data-source-line="91" data-uid="ent0008" id="entity_sensitive_words"><rect fill="#E8F4FD" height="172.6719" rx="2.5" ry="2.5" style="stroke:#4A90E2;stroke-width:0.5;" width="193.8223" x="505.18" y="15.15"/><ellipse cx="542.963" cy="36.4469" fill="#ADD1B2" rx="11" ry="11" style="stroke:#181818;stroke-width:1;"/><path d="M547.0724,42.4469 L539.3536,42.4469 L539.3536,30.0563 L547.0724,30.0563 L547.0724,32.2125 L541.8068,32.2125 L541.8068,34.8844 L546.5724,34.8844 L546.5724,37.0406 L541.8068,37.0406 L541.8068,40.2906 L547.0724,40.2906 L547.0724,42.4469 Z " fill="#000000"/><text fill="#000000" font-family="sans-serif" font-size="14" lengthAdjust="spacing" textLength="111.1934" x="562.0259" y="33.1451">sensitive_words</text><text fill="#000000" font-family="sans-serif" font-size="14" lengthAdjust="spacing" textLength="66.9236" x="584.1608" y="49.442">(&#25935;&#24863;&#35789;&#34920;)</text><line style="stroke:#4A90E2;stroke-width:0.5;" x1="506.18" x2="698.0023" y1="57.7438" y2="57.7438"/><ellipse cx="516.18" cy="71.3922" fill="#000000" rx="3" ry="3" style="stroke:#000000;stroke-width:1;"/><text fill="#000000" font-family="sans-serif" font-size="14" lengthAdjust="spacing" textLength="113.333" x="525.18" y="74.7389">id : BIGINT &#171;PK&#187;</text><line style="stroke:#4A90E2;stroke-width:1;" x1="506.18" x2="698.0023" y1="82.0406" y2="82.0406"/><text fill="#000000" font-family="sans-serif" font-size="14" lengthAdjust="spacing" textLength="154.4102" x="511.18" y="99.0357">word : VARCHAR(255)</text><text fill="#000000" font-family="sans-serif" font-size="14" lengthAdjust="spacing" textLength="172.7168" x="511.18" y="115.3326">category : VARCHAR(50)</text><text fill="#000000" font-family="sans-serif" font-size="14" lengthAdjust="spacing" textLength="153.8633" x="511.18" y="131.6295">status : VARCHAR(20)</text><text fill="#000000" font-family="sans-serif" font-size="14" lengthAdjust="spacing" textLength="177.2422" x="511.18" y="147.9264">created_time : DATETIME</text><text fill="#000000" font-family="sans-serif" font-size="14" lengthAdjust="spacing" textLength="181.8223" x="511.18" y="164.2232">updated_time : DATETIME</text><text fill="#000000" font-family="sans-serif" font-size="14" lengthAdjust="spacing" textLength="107.9463" x="511.18" y="180.5201">is_deleted : INT</text></g><!--link canteens to stalls--><g class="link" data-entity-1="canteens" data-entity-2="stalls" data-source-line="103" data-uid="lnk9" id="link_canteens_stalls"><path codeLine="103" d="M371.09,204.3 C371.09,231.86 371.09,235.85 371.09,262.87" fill="none" id="canteens-stalls" style="stroke:#2C5F8A;stroke-width:1;"/><line style="stroke:#2C5F8A;stroke-width:1;" x1="367.09" x2="375.09" y1="200.3" y2="200.3"/><line style="stroke:#2C5F8A;stroke-width:1;" x1="367.09" x2="375.09" y1="203.3" y2="203.3"/><line style="stroke:#2C5F8A;stroke-width:1;" x1="371.09" x2="371.09" y1="204.3" y2="196.3"/><line style="stroke:#2C5F8A;stroke-width:1;" x1="371.09" x2="377.09" y1="272.87" y2="280.87"/><line style="stroke:#2C5F8A;stroke-width:1;" x1="371.09" x2="365.09" y1="272.87" y2="280.87"/><line style="stroke:#2C5F8A;stroke-width:1;" x1="371.09" x2="371.09" y1="272.87" y2="280.87"/><ellipse cx="371.09" cy="266.87" fill="none" rx="4" ry="4" style="stroke:#2C5F8A;stroke-width:1;"/><text fill="#000000" font-family="sans-serif" font-size="13" lengthAdjust="spacing" textLength="55.0278" x="372.09" y="239.0369">contains</text></g><!--link stalls to dishes--><g class="link" data-entity-1="stalls" data-entity-2="dishes" data-source-line="104" data-uid="lnk10" id="link_stalls_dishes"><path codeLine="104" d="M424.2407,461.1793 C439.3507,487.5193 443.3559,494.5351 459.6759,522.9951" fill="none" id="stalls-dishes" style="stroke:#2C5F8A;stroke-width:1;"/><line style="stroke:#2C5F8A;stroke-width:1;" x1="418.7807" x2="425.72" y1="459.7" y2="455.7193"/><line style="stroke:#2C5F8A;stroke-width:1;" x1="420.2735" x2="427.2128" y1="462.3022" y2="458.3215"/><line style="stroke:#2C5F8A;stroke-width:1;" x1="424.2407" x2="420.26" y1="461.1793" y2="454.24"/><line style="stroke:#2C5F8A;stroke-width:1;" x1="464.6504" x2="473.835" y1="531.6701" y2="535.6253"/><line style="stroke:#2C5F8A;stroke-width:1;" x1="464.6504" x2="463.425" y1="531.6701" y2="541.5947"/><line style="stroke:#2C5F8A;stroke-width:1;" x1="464.6504" x2="468.63" y1="531.6701" y2="538.61"/><ellipse cx="461.6657" cy="526.4651" fill="none" rx="4" ry="4" style="stroke:#2C5F8A;stroke-width:1;"/><text fill="#000000" font-family="sans-serif" font-size="13" lengthAdjust="spacing" textLength="37.2227" x="451.09" y="505.0069">offers</text></g><!--link dishes to ratings--><g class="link" data-entity-1="dishes" data-entity-2="ratings" data-source-line="105" data-uid="lnk11" id="link_dishes_ratings"><path codeLine="105" d="M413.7713,783.8717 C407.8013,788.7817 408.01,788.49 402.09,793.1 C349.29,834.22 302.7904,866.105 250.7204,899.585" fill="none" id="dishes-ratings" style="stroke:#2C5F8A;stroke-width:1;"/><line style="stroke:#2C5F8A;stroke-width:1;" x1="414.3198" x2="419.4015" y1="778.2415" y2="784.4202"/><line style="stroke:#2C5F8A;stroke-width:1;" x1="412.0028" x2="417.0844" y1="780.1471" y2="786.3258"/><line style="stroke:#2C5F8A;stroke-width:1;" x1="413.7713" x2="419.95" y1="783.8717" y2="778.79"/><line style="stroke:#2C5F8A;stroke-width:1;" x1="242.309" x2="238.825" y1="904.9934" y2="914.3668"/><line style="stroke:#2C5F8A;stroke-width:1;" x1="242.309" x2="232.335" y1="904.9934" y2="904.2732"/><line style="stroke:#2C5F8A;stroke-width:1;" x1="242.309" x2="235.58" y1="904.9934" y2="909.32"/><ellipse cx="247.3558" cy="901.7484" fill="none" rx="4" ry="4" style="stroke:#2C5F8A;stroke-width:1;"/><text fill="#000000" font-family="sans-serif" font-size="13" lengthAdjust="spacing" textLength="54.5645" x="358.09" y="836.1669">receives</text></g><!--link users to ratings--><g class="link" data-entity-1="users" data-entity-2="ratings" data-source-line="106" data-uid="lnk12" id="link_users_ratings"><path codeLine="106" d="M112.223,470.2233 C111.203,495.1533 110.6,514.06 110.09,538.94 C107.78,651.88 106.77,680.19 110.09,793.1 C110.82,817.94 111.0798,826.6389 112.5098,851.8289" fill="none" id="users-ratings" style="stroke:#2C5F8A;stroke-width:1;"/><line style="stroke:#2C5F8A;stroke-width:1;" x1="108.3898" x2="116.3831" y1="466.0631" y2="466.3902"/><line style="stroke:#2C5F8A;stroke-width:1;" x1="108.2672" x2="116.2605" y1="469.0606" y2="469.3877"/><line style="stroke:#2C5F8A;stroke-width:1;" x1="112.223" x2="112.55" y1="470.2233" y2="462.23"/><line style="stroke:#2C5F8A;stroke-width:1;" x1="113.0766" x2="119.5204" y1="861.8129" y2="869.4599"/><line style="stroke:#2C5F8A;stroke-width:1;" x1="113.0766" x2="107.5396" y1="861.8129" y2="870.1401"/><line style="stroke:#2C5F8A;stroke-width:1;" x1="113.0766" x2="113.53" y1="861.8129" y2="869.8"/><ellipse cx="112.7365" cy="855.8225" fill="none" rx="4" ry="4" style="stroke:#2C5F8A;stroke-width:1;"/><text fill="#000000" font-family="sans-serif" font-size="13" lengthAdjust="spacing" textLength="48.3247" x="111.09" y="670.5869">creates</text></g><!--link users to complaints--><g class="link" data-entity-1="users" data-entity-2="complaints" data-source-line="107" data-uid="lnk13" id="link_users_complaints"><path codeLine="107" d="M172.8523,469.2904 C187.6823,496.1004 191.4461,502.9198 206.9761,530.9898" fill="none" id="users-complaints" style="stroke:#2C5F8A;stroke-width:1;"/><line style="stroke:#2C5F8A;stroke-width:1;" x1="167.4159" x2="174.4163" y1="467.7263" y2="463.8541"/><line style="stroke:#2C5F8A;stroke-width:1;" x1="168.868" x2="175.8684" y1="470.3515" y2="466.4792"/><line style="stroke:#2C5F8A;stroke-width:1;" x1="172.8523" x2="168.98" y1="469.2904" y2="462.29"/><line style="stroke:#2C5F8A;stroke-width:1;" x1="211.8171" x2="220.9401" y1="539.7399" y2="543.8354"/><line style="stroke:#2C5F8A;stroke-width:1;" x1="211.8171" x2="210.4399" y1="539.7399" y2="549.6446"/><line style="stroke:#2C5F8A;stroke-width:1;" x1="211.8171" x2="215.69" y1="539.7399" y2="546.74"/><ellipse cx="208.9125" cy="534.4899" fill="none" rx="4" ry="4" style="stroke:#2C5F8A;stroke-width:1;"/><text fill="#000000" font-family="sans-serif" font-size="13" lengthAdjust="spacing" textLength="51.4097" x="195.09" y="505.0069">submits</text></g><!--link stalls to complaints--><g class="link" data-entity-1="stalls" data-entity-2="complaints" data-source-line="108" data-uid="lnk14" id="link_stalls_complaints"><path codeLine="108" d="M342.7359,461.895 C333.9859,490.715 331.6316,498.517 322.2516,529.397" fill="none" id="stalls-complaints" style="stroke:#2C5F8A;stroke-width:1;"/><line style="stroke:#2C5F8A;stroke-width:1;" x1="340.0705" x2="347.7254" y1="456.9054" y2="459.2295"/><line style="stroke:#2C5F8A;stroke-width:1;" x1="339.1989" x2="346.8539" y1="459.776" y2="462.1002"/><line style="stroke:#2C5F8A;stroke-width:1;" x1="342.7359" x2="345.06" y1="461.895" y2="454.24"/><line style="stroke:#2C5F8A;stroke-width:1;" x1="319.3451" x2="322.761" y1="538.9653" y2="548.3639"/><line style="stroke:#2C5F8A;stroke-width:1;" x1="319.3451" x2="311.279" y1="538.9653" y2="544.8761"/><line style="stroke:#2C5F8A;stroke-width:1;" x1="319.3451" x2="317.02" y1="538.9653" y2="546.62"/><ellipse cx="321.089" cy="533.2244" fill="none" rx="4" ry="4" style="stroke:#2C5F8A;stroke-width:1;"/><text fill="#000000" font-family="sans-serif" font-size="13" lengthAdjust="spacing" textLength="61.9722" x="332.09" y="505.0069">relates to</text></g><!--SRC=[jLL1Inj15BxlhvYcXqP9G5C3LaHOuwODLLl2KbeeBEFkCmxExYmp4oKO3oqUsaBnq7ehMF7YIOz2_JkDJVz5tspMcfXDIMcQGqY-zytC-xvvxysz03PP1CHPTslkgtn4GoYG09G_HI3IJBU8WGXL96T-l8xoIJ1dtKiNrfrLswqzMy_3R850wVVYMRBVBXRRRSJ8GW9QbjfcKKmb3Sa6zRSRKZIZe2AuaEH-DVdqCNnEbI9x5Y7BTxdEV7Mkkc8YGWOWKtJEVZJZb12rfHIxALYgbAlpjhLlMQd0fWAf2kJ7vxFhTvVTaxEfv8XfmWBCShdskBRkaiN5vq-NbX0k5l7Bh4WyM20lx7hbYLtFbyhbAOn8eDpB3iMO_2vcbx58y7v-USQ0Fcwb8V0qIpPRiLt7hQqvvlGu615XoWk00mOHnxJxHFeqqW0HwlnvUjpv-dOidTb2kF2fPY8QZeWOefkqxgZXGi68q6I5AaqvHvdN9wUTmzEnP4wJr1rla5FjSR9TCEKhMPmQuJeltSbh2PZQ0jJIFVpI-VHcJ2s90N-Z96vkS3p8CmccgHbKCZ_vwrHgQ_PgVdQcK1gfcuMq0LvCzTR0zIRtItT0cgZ4eeaQVJi-x6tOmpqVkrcd3apSoDuPnicBW-zNbsCwQTeysyXfOgucEwPy8U5MY0X3I8IDOLLgnU15J7eGY33cb4NQzCY7e-x5-yxLj-xv-JzxyeUwqwrueEuIiVYIy8ngz0MsOhzXkAzkgg7bD0XPv4c8UUk_zP_2WSaqsm7F36vZsD7XzS5nz-BZM6vbJtiSdj0GiZKq24S8dPIc1wGEF1dSohfv3KWR7sInrxixStJEs8_LeN9MYgMCtYWo3B6vYUzbpagHD9vsc258y04zGqhoicOmUfBk4cuhqt1KSoDaUYYFGP8qYZ09BNA_0000]--></g></svg>