<svg xmlns="http://www.w3.org/2000/svg" xmlns:xlink="http://www.w3.org/1999/xlink" contentStyleType="text/css" height="1072px" preserveAspectRatio="none" style="width:769px;height:1072px;background:#FFFFFF;" version="1.1" viewBox="0 0 769 1072" width="769px" zoomAndPan="magnify"><defs/><g><!--class users--><g id="elem_users"><rect codeLine="3" fill="#FFFFFF" height="180.1172" id="users" rx="2.5" ry="2.5" style="stroke:#000000;stroke-width:1.0;" width="210.7822" x="51.32" y="269.12"/><ellipse cx="104.2619" cy="283.12" fill="#FFFFFF" rx="9" ry="9" style="stroke:#000000;stroke-width:1.0;"/><path d="M107.8762,289.62 L100.1564,289.62 L100.1564,277.2269 L107.8762,277.2269 L107.8762,279.3851 L102.6052,279.3851 L102.6052,282.058 L107.3781,282.058 L107.3781,284.2162 L102.6052,284.2162 L102.6052,287.4618 L107.8762,287.4618 Z " fill="#000000"/><text fill="#000000" font-family="Verdana" font-size="14" lengthAdjust="spacing" textLength="97.3984" x="121.7619" y="288.6879">users (&#29992;&#25143;&#34920;)</text><line style="stroke:#000000;stroke-width:1.0;" x1="52.32" x2="261.1022" y1="297.12" y2="297.12"/><ellipse cx="62.32" cy="311.1273" fill="#FFFFFF" rx="3" ry="3" style="stroke:#000000;stroke-width:1.0;"/><text fill="#000000" font-family="Verdana" font-size="14" font-weight="bold" lengthAdjust="spacing" textLength="14.5742" x="69.32" y="315.1952">id</text><text fill="#000000" font-family="Verdana" font-size="14" lengthAdjust="spacing" textLength="103.7285" x="88.8161" y="315.1952">: BIGINT &#171;PK&#187;</text><line style="stroke:#000000;stroke-width:1.0;" x1="52.32" x2="261.1022" y1="322.1346" y2="322.1346"/><text fill="#000000" font-family="Verdana" font-size="14" lengthAdjust="spacing" textLength="193.7852" x="57.32" y="340.2098">username : VARCHAR(255)</text><text fill="#000000" font-family="Verdana" font-size="14" lengthAdjust="spacing" textLength="198.7822" x="57.32" y="357.2245">real_name : VARCHAR(255)</text><text fill="#000000" font-family="Verdana" font-size="14" lengthAdjust="spacing" textLength="190.4629" x="57.32" y="374.2391">password : VARCHAR(255)</text><text fill="#000000" font-family="Verdana" font-size="14" lengthAdjust="spacing" textLength="141.8457" x="57.32" y="391.2538">role : VARCHAR(50)</text><text fill="#000000" font-family="Verdana" font-size="14" lengthAdjust="spacing" textLength="182.0205" x="57.32" y="408.2684">created_time : DATETIME</text><text fill="#000000" font-family="Verdana" font-size="14" lengthAdjust="spacing" textLength="186.7168" x="57.32" y="425.2831">updated_time : DATETIME</text><text fill="#000000" font-family="Verdana" font-size="14" lengthAdjust="spacing" textLength="113.0527" x="57.32" y="442.2977">is_deleted : INT</text></g><!--class canteens--><g id="elem_canteens"><rect codeLine="15" fill="#FFFFFF" height="180.1172" id="canteens" rx="2.5" ry="2.5" style="stroke:#000000;stroke-width:1.0;" width="202.6748" x="311.38" y="12"/><ellipse cx="347.8371" cy="26" fill="#FFFFFF" rx="9" ry="9" style="stroke:#000000;stroke-width:1.0;"/><path d="M351.4514,32.5 L343.7317,32.5 L343.7317,20.1069 L351.4514,20.1069 L351.4514,22.2651 L346.1804,22.2651 L346.1804,24.938 L350.9533,24.938 L350.9533,27.0962 L346.1804,27.0962 L346.1804,30.3418 L351.4514,30.3418 Z " fill="#000000"/><text fill="#000000" font-family="Verdana" font-size="14" lengthAdjust="spacing" textLength="122.5479" x="365.0498" y="31.5679">canteens (&#39135;&#22530;&#34920;)</text><line style="stroke:#000000;stroke-width:1.0;" x1="312.38" x2="513.0548" y1="40" y2="40"/><ellipse cx="322.38" cy="54.0073" fill="#FFFFFF" rx="3" ry="3" style="stroke:#000000;stroke-width:1.0;"/><text fill="#000000" font-family="Verdana" font-size="14" font-weight="bold" lengthAdjust="spacing" textLength="14.5742" x="329.38" y="58.0752">id</text><text fill="#000000" font-family="Verdana" font-size="14" lengthAdjust="spacing" textLength="103.7285" x="348.8761" y="58.0752">: BIGINT &#171;PK&#187;</text><line style="stroke:#000000;stroke-width:1.0;" x1="312.38" x2="513.0548" y1="65.0146" y2="65.0146"/><text fill="#000000" font-family="Verdana" font-size="14" lengthAdjust="spacing" textLength="163.3174" x="317.38" y="83.0898">name : VARCHAR(255)</text><text fill="#000000" font-family="Verdana" font-size="14" lengthAdjust="spacing" textLength="178.8486" x="317.38" y="100.1045">location : VARCHAR(255)</text><text fill="#000000" font-family="Verdana" font-size="14" lengthAdjust="spacing" textLength="189.8271" x="317.38" y="117.1191">open_time : VARCHAR(50)</text><text fill="#000000" font-family="Verdana" font-size="14" lengthAdjust="spacing" textLength="190.6748" x="317.38" y="134.1338">close_time : VARCHAR(50)</text><text fill="#000000" font-family="Verdana" font-size="14" lengthAdjust="spacing" textLength="182.0205" x="317.38" y="151.1484">created_time : DATETIME</text><text fill="#000000" font-family="Verdana" font-size="14" lengthAdjust="spacing" textLength="186.7168" x="317.38" y="168.1631">updated_time : DATETIME</text><text fill="#000000" font-family="Verdana" font-size="14" lengthAdjust="spacing" textLength="113.0527" x="317.38" y="185.1777">is_deleted : INT</text></g><!--class stalls--><g id="elem_stalls"><rect codeLine="27" fill="#FFFFFF" height="163.1025" id="stalls" rx="2.5" ry="2.5" style="stroke:#000000;stroke-width:1.0;" width="224.9971" x="300.22" y="277.63"/><ellipse cx="361.052" cy="291.63" fill="#FFFFFF" rx="9" ry="9" style="stroke:#000000;stroke-width:1.0;"/><path d="M364.6663,298.13 L356.9466,298.13 L356.9466,285.7369 L364.6663,285.7369 L364.6663,287.8951 L359.3953,287.8951 L359.3953,290.568 L364.1682,290.568 L364.1682,292.7262 L359.3953,292.7262 L359.3953,295.9718 L364.6663,295.9718 Z " fill="#000000"/><text fill="#000000" font-family="Verdana" font-size="14" lengthAdjust="spacing" textLength="95.833" x="378.552" y="297.1979">stalls (&#26723;&#21475;&#34920;)</text><line style="stroke:#000000;stroke-width:1.0;" x1="301.22" x2="524.2171" y1="305.63" y2="305.63"/><ellipse cx="311.22" cy="319.6373" fill="#FFFFFF" rx="3" ry="3" style="stroke:#000000;stroke-width:1.0;"/><text fill="#000000" font-family="Verdana" font-size="14" font-weight="bold" lengthAdjust="spacing" textLength="14.5742" x="318.22" y="323.7052">id</text><text fill="#000000" font-family="Verdana" font-size="14" lengthAdjust="spacing" textLength="103.7285" x="337.7161" y="323.7052">: BIGINT &#171;PK&#187;</text><line style="stroke:#000000;stroke-width:1.0;" x1="301.22" x2="524.2171" y1="330.6446" y2="330.6446"/><ellipse cx="311.22" cy="344.652" fill="#FFFFFF" rx="3" ry="3" style="stroke:#000000;stroke-width:1.0;"/><text fill="#000000" font-family="Verdana" font-size="14" lengthAdjust="spacing" textLength="185.3359" x="318.22" y="348.7198">canteen_id : BIGINT &#171;FK&#187;</text><text fill="#000000" font-family="Verdana" font-size="14" lengthAdjust="spacing" textLength="163.3174" x="318.22" y="365.7345">name : VARCHAR(255)</text><text fill="#000000" font-family="Verdana" font-size="14" lengthAdjust="spacing" textLength="200.9971" x="318.22" y="382.7491">description : VARCHAR(500)</text><text fill="#000000" font-family="Verdana" font-size="14" lengthAdjust="spacing" textLength="182.0205" x="318.22" y="399.7638">created_time : DATETIME</text><text fill="#000000" font-family="Verdana" font-size="14" lengthAdjust="spacing" textLength="186.7168" x="318.22" y="416.7784">updated_time : DATETIME</text><text fill="#000000" font-family="Verdana" font-size="14" lengthAdjust="spacing" textLength="113.0527" x="318.22" y="433.7931">is_deleted : INT</text></g><!--class dishes--><g id="elem_dishes"><rect codeLine="38" fill="#FFFFFF" height="248.1758" id="dishes" rx="2.5" ry="2.5" style="stroke:#000000;stroke-width:1.0;" width="246.9814" x="498.22" y="526.24"/><ellipse cx="565.9666" cy="540.24" fill="#FFFFFF" rx="9" ry="9" style="stroke:#000000;stroke-width:1.0;"/><path d="M569.5808,546.74 L561.8611,546.74 L561.8611,534.3469 L569.5808,534.3469 L569.5808,536.5051 L564.3098,536.5051 L564.3098,539.178 L569.0828,539.178 L569.0828,541.3362 L564.3098,541.3362 L564.3098,544.5818 L569.5808,544.5818 Z " fill="#000000"/><text fill="#000000" font-family="Verdana" font-size="14" lengthAdjust="spacing" textLength="103.9883" x="583.4666" y="545.8079">dishes (&#33756;&#21697;&#34920;)</text><line style="stroke:#000000;stroke-width:1.0;" x1="499.22" x2="744.2014" y1="554.24" y2="554.24"/><ellipse cx="509.22" cy="568.2473" fill="#FFFFFF" rx="3" ry="3" style="stroke:#000000;stroke-width:1.0;"/><text fill="#000000" font-family="Verdana" font-size="14" font-weight="bold" lengthAdjust="spacing" textLength="14.5742" x="516.22" y="572.3152">id</text><text fill="#000000" font-family="Verdana" font-size="14" lengthAdjust="spacing" textLength="103.7285" x="535.7161" y="572.3152">: BIGINT &#171;PK&#187;</text><line style="stroke:#000000;stroke-width:1.0;" x1="499.22" x2="744.2014" y1="579.2546" y2="579.2546"/><ellipse cx="509.22" cy="593.262" fill="#FFFFFF" rx="3" ry="3" style="stroke:#000000;stroke-width:1.0;"/><text fill="#000000" font-family="Verdana" font-size="14" lengthAdjust="spacing" textLength="158.6211" x="516.22" y="597.3298">stall_id : BIGINT &#171;FK&#187;</text><text fill="#000000" font-family="Verdana" font-size="14" lengthAdjust="spacing" textLength="163.3174" x="516.22" y="614.3445">name : VARCHAR(255)</text><text fill="#000000" font-family="Verdana" font-size="14" lengthAdjust="spacing" textLength="144.0674" x="516.22" y="631.3591">publish_date : DATE</text><text fill="#000000" font-family="Verdana" font-size="14" lengthAdjust="spacing" textLength="159.3525" x="516.22" y="648.3738">price : DECIMAL(10,2)</text><text fill="#000000" font-family="Verdana" font-size="14" lengthAdjust="spacing" textLength="200.9971" x="516.22" y="665.3884">description : VARCHAR(500)</text><text fill="#000000" font-family="Verdana" font-size="14" lengthAdjust="spacing" textLength="207.4297" x="516.22" y="682.4031">image_path : VARCHAR(255)</text><text fill="#000000" font-family="Verdana" font-size="14" lengthAdjust="spacing" textLength="222.9814" x="516.22" y="699.4177">average_rating : DECIMAL(3,2)</text><text fill="#000000" font-family="Verdana" font-size="14" lengthAdjust="spacing" textLength="130.4434" x="516.22" y="716.4324">rating_count : INT</text><text fill="#000000" font-family="Verdana" font-size="14" lengthAdjust="spacing" textLength="182.0205" x="516.22" y="733.447">created_time : DATETIME</text><text fill="#000000" font-family="Verdana" font-size="14" lengthAdjust="spacing" textLength="186.7168" x="516.22" y="750.4617">updated_time : DATETIME</text><text fill="#000000" font-family="Verdana" font-size="14" lengthAdjust="spacing" textLength="113.0527" x="516.22" y="767.4763">is_deleted : INT</text></g><!--class ratings--><g id="elem_ratings"><rect codeLine="54" fill="#FFFFFF" height="214.1465" id="ratings" rx="2.5" ry="2.5" style="stroke:#000000;stroke-width:1.0;" width="231.4297" x="12" y="851.41"/><ellipse cx="69.8379" cy="865.41" fill="#FFFFFF" rx="9" ry="9" style="stroke:#000000;stroke-width:1.0;"/><path d="M73.4521,871.91 L65.7324,871.91 L65.7324,859.5169 L73.4521,859.5169 L73.4521,861.6751 L68.1812,861.6751 L68.1812,864.348 L72.9541,864.348 L72.9541,866.5062 L68.1812,866.5062 L68.1812,869.7518 L73.4521,869.7518 Z " fill="#000000"/><text fill="#000000" font-family="Verdana" font-size="14" lengthAdjust="spacing" textLength="108.2539" x="87.3379" y="870.9779">ratings (&#35780;&#20215;&#34920;)</text><line style="stroke:#000000;stroke-width:1.0;" x1="13" x2="242.4297" y1="879.41" y2="879.41"/><ellipse cx="23" cy="893.4173" fill="#FFFFFF" rx="3" ry="3" style="stroke:#000000;stroke-width:1.0;"/><text fill="#000000" font-family="Verdana" font-size="14" font-weight="bold" lengthAdjust="spacing" textLength="14.5742" x="30" y="897.4852">id</text><text fill="#000000" font-family="Verdana" font-size="14" lengthAdjust="spacing" textLength="103.7285" x="49.4961" y="897.4852">: BIGINT &#171;PK&#187;</text><line style="stroke:#000000;stroke-width:1.0;" x1="13" x2="242.4297" y1="904.4246" y2="904.4246"/><ellipse cx="23" cy="918.432" fill="#FFFFFF" rx="3" ry="3" style="stroke:#000000;stroke-width:1.0;"/><text fill="#000000" font-family="Verdana" font-size="14" lengthAdjust="spacing" textLength="160.1865" x="30" y="922.4998">user_id : BIGINT &#171;FK&#187;</text><ellipse cx="23" cy="935.4466" fill="#FFFFFF" rx="3" ry="3" style="stroke:#000000;stroke-width:1.0;"/><text fill="#000000" font-family="Verdana" font-size="14" lengthAdjust="spacing" textLength="158.4365" x="30" y="939.5145">dish_id : BIGINT &#171;FK&#187;</text><text fill="#000000" font-family="Verdana" font-size="14" lengthAdjust="spacing" textLength="78.5928" x="30" y="956.5291">score : INT</text><text fill="#000000" font-family="Verdana" font-size="14" lengthAdjust="spacing" textLength="117.6396" x="30" y="973.5438">comment : TEXT</text><text fill="#000000" font-family="Verdana" font-size="14" lengthAdjust="spacing" textLength="207.4297" x="30" y="990.5584">image_path : VARCHAR(255)</text><text fill="#000000" font-family="Verdana" font-size="14" lengthAdjust="spacing" textLength="135.249" x="30" y="1007.5731">rating_date : DATE</text><text fill="#000000" font-family="Verdana" font-size="14" lengthAdjust="spacing" textLength="182.0205" x="30" y="1024.5877">created_time : DATETIME</text><text fill="#000000" font-family="Verdana" font-size="14" lengthAdjust="spacing" textLength="186.7168" x="30" y="1041.6024">updated_time : DATETIME</text><text fill="#000000" font-family="Verdana" font-size="14" lengthAdjust="spacing" textLength="113.0527" x="30" y="1058.617">is_deleted : INT</text></g><!--class complaints--><g id="elem_complaints"><rect codeLine="68" fill="#FFFFFF" height="231.1611" id="complaints" rx="2.5" ry="2.5" style="stroke:#000000;stroke-width:1.0;" width="210.7168" x="252.36" y="534.75"/><ellipse cx="273.9944" cy="548.75" fill="#FFFFFF" rx="9" ry="9" style="stroke:#000000;stroke-width:1.0;"/><path d="M277.6086,555.25 L269.8889,555.25 L269.8889,542.8569 L277.6086,542.8569 L277.6086,545.0151 L272.3376,545.0151 L272.3376,547.688 L277.1106,547.688 L277.1106,549.8462 L272.3376,549.8462 L272.3376,553.0918 L277.6086,553.0918 Z " fill="#000000"/><text fill="#000000" font-family="Verdana" font-size="14" lengthAdjust="spacing" textLength="163.5293" x="287.9131" y="554.3179">complaints (&#25237;&#35785;&#24314;&#35758;&#34920;)</text><line style="stroke:#000000;stroke-width:1.0;" x1="253.36" x2="462.0768" y1="562.75" y2="562.75"/><ellipse cx="263.36" cy="576.7573" fill="#FFFFFF" rx="3" ry="3" style="stroke:#000000;stroke-width:1.0;"/><text fill="#000000" font-family="Verdana" font-size="14" font-weight="bold" lengthAdjust="spacing" textLength="14.5742" x="270.36" y="580.8252">id</text><text fill="#000000" font-family="Verdana" font-size="14" lengthAdjust="spacing" textLength="103.7285" x="289.8561" y="580.8252">: BIGINT &#171;PK&#187;</text><line style="stroke:#000000;stroke-width:1.0;" x1="253.36" x2="462.0768" y1="587.7646" y2="587.7646"/><ellipse cx="263.36" cy="601.772" fill="#FFFFFF" rx="3" ry="3" style="stroke:#000000;stroke-width:1.0;"/><text fill="#000000" font-family="Verdana" font-size="14" lengthAdjust="spacing" textLength="160.1865" x="270.36" y="605.8398">user_id : BIGINT &#171;FK&#187;</text><text fill="#000000" font-family="Verdana" font-size="14" lengthAdjust="spacing" textLength="158.6211" x="270.36" y="622.8545">stall_id : BIGINT &#171;FK&#187;</text><text fill="#000000" font-family="Verdana" font-size="14" lengthAdjust="spacing" textLength="146.0566" x="270.36" y="639.8691">type : VARCHAR(50)</text><text fill="#000000" font-family="Verdana" font-size="14" lengthAdjust="spacing" textLength="151.1494" x="270.36" y="656.8838">title : VARCHAR(255)</text><text fill="#000000" font-family="Verdana" font-size="14" lengthAdjust="spacing" textLength="104.7813" x="270.36" y="673.8984">content : TEXT</text><text fill="#000000" font-family="Verdana" font-size="14" lengthAdjust="spacing" textLength="158.0811" x="270.36" y="690.9131">status : VARCHAR(50)</text><text fill="#000000" font-family="Verdana" font-size="14" lengthAdjust="spacing" textLength="139.4121" x="270.36" y="707.9277">admin_reply : TEXT</text><text fill="#000000" font-family="Verdana" font-size="14" lengthAdjust="spacing" textLength="182.0205" x="270.36" y="724.9424">created_time : DATETIME</text><text fill="#000000" font-family="Verdana" font-size="14" lengthAdjust="spacing" textLength="186.7168" x="270.36" y="741.957">updated_time : DATETIME</text><text fill="#000000" font-family="Verdana" font-size="14" lengthAdjust="spacing" textLength="113.0527" x="270.36" y="758.9717">is_deleted : INT</text></g><!--class sensitive_words--><g id="elem_sensitive_words"><rect codeLine="83" fill="#FFFFFF" height="146.0879" id="sensitive_words" rx="2.5" ry="2.5" style="stroke:#000000;stroke-width:1.0;" width="214.0947" x="548.67" y="29.02"/><ellipse cx="561.67" cy="43.02" fill="#FFFFFF" rx="9" ry="9" style="stroke:#000000;stroke-width:1.0;"/><path d="M565.2843,49.52 L557.5645,49.52 L557.5645,37.1269 L565.2843,37.1269 L565.2843,39.2851 L560.0133,39.2851 L560.0133,41.958 L564.7862,41.958 L564.7862,44.1162 L560.0133,44.1162 L560.0133,47.3618 L565.2843,47.3618 Z " fill="#000000"/><text fill="#000000" font-family="Verdana" font-size="14" lengthAdjust="spacing" textLength="186.0947" x="573.67" y="48.5879">sensitive_words (&#25935;&#24863;&#35789;&#34920;)</text><line style="stroke:#000000;stroke-width:1.0;" x1="549.67" x2="761.7647" y1="57.02" y2="57.02"/><ellipse cx="559.67" cy="71.0273" fill="#FFFFFF" rx="3" ry="3" style="stroke:#000000;stroke-width:1.0;"/><text fill="#000000" font-family="Verdana" font-size="14" font-weight="bold" lengthAdjust="spacing" textLength="14.5742" x="566.67" y="75.0952">id</text><text fill="#000000" font-family="Verdana" font-size="14" lengthAdjust="spacing" textLength="103.7285" x="586.1661" y="75.0952">: BIGINT &#171;PK&#187;</text><line style="stroke:#000000;stroke-width:1.0;" x1="549.67" x2="761.7647" y1="82.0346" y2="82.0346"/><text fill="#000000" font-family="Verdana" font-size="14" lengthAdjust="spacing" textLength="158.7441" x="554.67" y="100.1098">word : VARCHAR(255)</text><text fill="#000000" font-family="Verdana" font-size="14" lengthAdjust="spacing" textLength="147.8408" x="554.67" y="117.1245">level : VARCHAR(50)</text><text fill="#000000" font-family="Verdana" font-size="14" lengthAdjust="spacing" textLength="182.0205" x="554.67" y="134.1391">created_time : DATETIME</text><text fill="#000000" font-family="Verdana" font-size="14" lengthAdjust="spacing" textLength="186.7168" x="554.67" y="151.1538">updated_time : DATETIME</text><text fill="#000000" font-family="Verdana" font-size="14" lengthAdjust="spacing" textLength="113.0527" x="554.67" y="168.1684">is_deleted : INT</text></g><!--link canteens to stalls--><g id="link_canteens_stalls"><path codeLine="94" d="M412.71,200.29 C412.71,228.02 412.71,232.42 412.71,259.53 " fill="none" id="canteens-stalls" style="stroke:#000000;stroke-width:1.0;"/><line style="stroke:#000000;stroke-width:1.0;" x1="408.71" x2="416.71" y1="196.29" y2="196.29"/><line style="stroke:#000000;stroke-width:1.0;" x1="408.71" x2="416.71" y1="199.29" y2="199.29"/><line style="stroke:#000000;stroke-width:1.0;" x1="412.71" x2="412.71" y1="200.29" y2="192.29"/><line style="stroke:#000000;stroke-width:1.0;" x1="412.71" x2="418.71" y1="269.53" y2="277.53"/><line style="stroke:#000000;stroke-width:1.0;" x1="412.71" x2="406.71" y1="269.53" y2="277.53"/><line style="stroke:#000000;stroke-width:1.0;" x1="412.71" x2="412.71" y1="269.53" y2="277.53"/><ellipse cx="412.71" cy="263.53" fill="none" rx="4" ry="4" style="stroke:#000000;stroke-width:1.0;"/><text fill="#000000" font-family="Verdana" font-size="13" lengthAdjust="spacing" textLength="117" x="413.71" y="236.1898">&#19968;&#20010;&#39135;&#22530;&#26377;&#22810;&#20010;&#26723;&#21475;</text></g><!--link stalls to dishes--><g id="link_stalls_dishes"><path codeLine="95" d="M514.6457,446.8669 C526.4057,458.9669 532.08,466.09 541.71,479.24 C552.23,493.58 553.3778,493.6699 562.0778,509.8799 " fill="none" id="stalls-dishes" style="stroke:#000000;stroke-width:1.0;"/><line style="stroke:#000000;stroke-width:1.0;" x1="508.9894" x2="514.7263" y1="446.7863" y2="441.2106"/><line style="stroke:#000000;stroke-width:1.0;" x1="511.0803" x2="516.8172" y1="448.9376" y2="443.3619"/><line style="stroke:#000000;stroke-width:1.0;" x1="514.6457" x2="509.07" y1="446.8669" y2="441.13"/><line style="stroke:#000000;stroke-width:1.0;" x1="566.8068" x2="575.8767" y1="518.6911" y2="522.9026"/><line style="stroke:#000000;stroke-width:1.0;" x1="566.8068" x2="565.3033" y1="518.6911" y2="528.5774"/><line style="stroke:#000000;stroke-width:1.0;" x1="566.8068" x2="570.59" y1="518.6911" y2="525.74"/><ellipse cx="563.9694" cy="513.4044" fill="none" rx="4" ry="4" style="stroke:#000000;stroke-width:1.0;"/><text fill="#000000" font-family="Verdana" font-size="13" lengthAdjust="spacing" textLength="117" x="554.2" y="493.3098">&#19968;&#20010;&#26723;&#21475;&#26377;&#22810;&#20010;&#33756;&#21697;</text></g><!--link users to ratings--><g id="link_users_ratings"><path codeLine="96" d="M128.5405,457.2663 C122.4505,481.9063 118.78,501.03 115.71,526.24 C102.31,636.46 106.9031,745.7166 114.4531,833.2466 " fill="none" id="users-ratings" style="stroke:#000000;stroke-width:1.0;"/><line style="stroke:#000000;stroke-width:1.0;" x1="125.6171" x2="133.3834" y1="452.4234" y2="454.3429"/><line style="stroke:#000000;stroke-width:1.0;" x1="124.8973" x2="132.6636" y1="455.3358" y2="457.2553"/><line style="stroke:#000000;stroke-width:1.0;" x1="128.5405" x2="130.46" y1="457.2663" y2="449.5"/><line style="stroke:#000000;stroke-width:1.0;" x1="115.3125" x2="121.9778" y1="843.2096" y2="850.6644"/><line style="stroke:#000000;stroke-width:1.0;" x1="115.3125" x2="110.0222" y1="843.2096" y2="851.6956"/><line style="stroke:#000000;stroke-width:1.0;" x1="115.3125" x2="116" y1="843.2096" y2="851.18"/><ellipse cx="114.7969" cy="837.2318" fill="none" rx="4" ry="4" style="stroke:#000000;stroke-width:1.0;"/><text fill="#000000" font-family="Verdana" font-size="13" lengthAdjust="spacing" textLength="117" x="116.71" y="655.8998">&#19968;&#20010;&#29992;&#25143;&#26377;&#22810;&#20010;&#35780;&#20215;</text></g><!--link dishes to ratings--><g id="link_dishes_ratings"><path codeLine="97" d="M491.6461,766.8179 C485.8661,771.1079 486.49,770.48 480.71,774.41 C405.69,825.53 330.8704,864.7411 260.0104,898.2711 " fill="none" id="dishes-ratings" style="stroke:#000000;stroke-width:1.0;"/><line style="stroke:#000000;stroke-width:1.0;" x1="492.4741" x2="497.242" y1="761.222" y2="767.6459"/><line style="stroke:#000000;stroke-width:1.0;" x1="490.0651" x2="494.833" y1="763.01" y2="769.4339"/><line style="stroke:#000000;stroke-width:1.0;" x1="491.6461" x2="498.07" y1="766.8179" y2="762.05"/><line style="stroke:#000000;stroke-width:1.0;" x1="250.9713" x2="246.3063" y1="902.5482" y2="911.3935"/><line style="stroke:#000000;stroke-width:1.0;" x1="250.9713" x2="241.1737" y1="902.5482" y2="900.5465"/><line style="stroke:#000000;stroke-width:1.0;" x1="250.9713" x2="243.74" y1="902.5482" y2="905.97"/><ellipse cx="256.3948" cy="899.9819" fill="none" rx="4" ry="4" style="stroke:#000000;stroke-width:1.0;"/><text fill="#000000" font-family="Verdana" font-size="13" lengthAdjust="spacing" textLength="117" x="426.97" y="818.4798">&#19968;&#20010;&#33756;&#21697;&#26377;&#22810;&#20010;&#35780;&#20215;</text></g><!--link users to complaints--><g id="link_users_complaints"><path codeLine="98" d="M208.5872,456.5766 C217.8172,472.3666 223.71,481.54 233.71,496.24 C242.28,508.82 240.7366,507.313 250.3166,519.933 " fill="none" id="users-complaints" style="stroke:#000000;stroke-width:1.0;"/><line style="stroke:#000000;stroke-width:1.0;" x1="203.1153" x2="210.0219" y1="455.1419" y2="451.1047"/><line style="stroke:#000000;stroke-width:1.0;" x1="204.6293" x2="211.5359" y1="457.7319" y2="453.6946"/><line style="stroke:#000000;stroke-width:1.0;" x1="208.5872" x2="204.55" y1="456.5766" y2="449.67"/><line style="stroke:#000000;stroke-width:1.0;" x1="256.3629" x2="265.979" y1="527.898" y2="530.6422"/><line style="stroke:#000000;stroke-width:1.0;" x1="256.3629" x2="256.421" y1="527.898" y2="537.8978"/><line style="stroke:#000000;stroke-width:1.0;" x1="256.3629" x2="261.2" y1="527.898" y2="534.27"/><ellipse cx="252.7351" cy="523.119" fill="none" rx="4" ry="4" style="stroke:#000000;stroke-width:1.0;"/><text fill="#000000" font-family="Verdana" font-size="13" lengthAdjust="spacing" textLength="143" x="234.71" y="493.3098">&#19968;&#20010;&#29992;&#25143;&#26377;&#22810;&#20010;&#25237;&#35785;&#24314;&#35758;</text></g><!--link stalls to complaints--><g id="link_stalls_complaints"><path codeLine="99" d="M395.8244,448.9689 C390.3244,477.8689 388.8844,485.4672 382.9444,516.6872 " fill="none" id="stalls-complaints" style="stroke:#000000;stroke-width:1.0;"/><line style="stroke:#000000;stroke-width:1.0;" x1="392.6427" x2="400.5016" y1="444.2916" y2="445.7873"/><line style="stroke:#000000;stroke-width:1.0;" x1="392.0818" x2="399.9408" y1="447.2388" y2="448.7344"/><line style="stroke:#000000;stroke-width:1.0;" x1="395.8244" x2="397.32" y1="448.9689" y2="441.11"/><line style="stroke:#000000;stroke-width:1.0;" x1="381.0753" x2="385.4743" y1="526.511" y2="535.4915"/><line style="stroke:#000000;stroke-width:1.0;" x1="381.0753" x2="373.6857" y1="526.511" y2="533.2485"/><line style="stroke:#000000;stroke-width:1.0;" x1="381.0753" x2="379.58" y1="526.511" y2="534.37"/><ellipse cx="382.1967" cy="520.6167" fill="none" rx="4" ry="4" style="stroke:#000000;stroke-width:1.0;"/><text fill="#000000" font-family="Verdana" font-size="13" lengthAdjust="spacing" textLength="143" x="389.51" y="493.3098">&#19968;&#20010;&#26723;&#21475;&#26377;&#22810;&#20010;&#25237;&#35785;&#24314;&#35758;</text></g><!--SRC=[jLL1QnD15BxlhnZtOheOY9LSGYd46ZLeHK8GRyku-sW6PdUMdKcaj89A3wqWEMWlKgWb7eg7vcYnVoU9yLyuixFPtIGR6p6z1FQzzxqttvUPxzqIBV001HGJtp305qJi8hFD8UIeyElp-UZmn_ZiVCr4c2CTtJCGif1b4TUoK0NThp-gFskYZOtdJpOtPQfOb3-gqiUoRmMzg3Qs7bSRXVLoUKrcGi3Kpay5cFFNB7HpG8ncwyib5NHaAm6kBKZKx46rMMlMjsjgUk0ko11kkq119cLS7jjuat9si2y0V4dxT-zq-FLzGZj9BCCydnfb3XQ4-VCP5e0_EUWCFyeuB4Yjc3eNc599V7JM6tPx2V4ul0njQwAIJTnipKDTaw-A2zm9IJ0ZJBbq8nnTmbiWEOwx9yDFxnAESNWvZf4W_y8mQB-YSe2j3XmVLKL3uaIVjQtwTlLfuMxfplgrUX0Fxu0TOD6Q7uCx4AfiA2-PlvFfV4ytrd7ROMrVnCgiNc0zH2dSFnXSfQunYIydiNAEV8MjwB_Apt67XP0oOvu74TDcxMNp6krYRQR_ePLx2_CYXnNgaNqu7lUFXbS_nnSNgSUa1V-hqrykgTWDvir4df3cN5s7oVUS5L7s5Mq-1yUkHtmxX83kfhKhDoXflqIG3jXgGIWHZxkZWzDn_sDgLZCboyYOlsqeT83UcEVUHWsWqJBWBH9m8zak-_l58jkRc6u5cOFBjuFBxtePZKwEXj- -o4zjqQOHbyMWsCKIaAvAGDhpJ4Cly1WpUPS9I6_x51GzOzE8Uoz2wTvpgAbHcTkzQ5hsLSooouFFC9o6_m40]--></g></svg>