<?xml version="1.0" encoding="UTF-8"?>
<svg width="1200" height="900" viewBox="0 0 1200 900" xmlns="http://www.w3.org/2000/svg">
  <rect width="1200" height="900" fill="#ffffff"/>
  <rect x="510" y="410" width="180" height="80" fill="#fff" stroke="#333" stroke-width="3"/>
  <text x="600" y="456" text-anchor="middle" font-family="Microsoft YaHei, SimHei, Arial" font-size="18" font-weight="bold" fill="#333">敏感词表</text>
  <line x1="690" y1="450" x2="800" y2="450" stroke="#666" stroke-width="2"/>
  <ellipse cx="880" cy="450" rx="80" ry="40" fill="#fff" stroke="#666" stroke-width="2"/>
  <text x="880" y="456" text-anchor="middle" font-family="Microsoft YaHei, SimHei, Arial" font-size="14" fill="#333">字段中文名</text>
  <line x1="631.8989355552961" y1="490" x2="742.6782089651493" y2="628.9128150910483" stroke="#666" stroke-width="2"/>
  <ellipse cx="774.5771445204455" cy="668.9128150910483" rx="80" ry="40" fill="#fff" stroke="#666" stroke-width="2"/>
  <text x="774.5771445204455" y="674.9128150910483" text-anchor="middle" font-family="Microsoft YaHei, SimHei, Arial" font-size="14" fill="#333">编号</text>
  <line x1="590.870261024394" y1="490" x2="546.823877467838" y2="682.9798154109105" stroke="#666" stroke-width="2"/>
  <ellipse cx="537.694138492232" cy="722.9798154109105" rx="80" ry="40" fill="#fff" stroke="#666" stroke-width="2"/>
  <text x="537.694138492232" y="728.9798154109105" text-anchor="middle" font-family="Microsoft YaHei, SimHei, Arial" font-size="14" fill="#333">敏感词</text>
  <line x1="516.9391441371066" y1="490" x2="427.7287169873227" y2="532.961477448314" stroke="#666" stroke-width="2"/>
  <ellipse cx="347.7287169873227" cy="571.4874469529163" rx="80" ry="40" fill="#fff" stroke="#666" stroke-width="2"/>
  <text x="347.7287169873227" y="577.4874469529163" text-anchor="middle" font-family="Microsoft YaHei, SimHei, Arial" font-size="14" fill="#333">敏感等级</text>
  <line x1="516.9391441371065" y1="410" x2="427.7287169873226" y2="367.03852255168607" stroke="#666" stroke-width="2"/>
  <ellipse cx="347.7287169873226" cy="328.51255304708377" rx="80" ry="40" fill="#fff" stroke="#666" stroke-width="2"/>
  <text x="347.7287169873226" y="334.51255304708377" text-anchor="middle" font-family="Microsoft YaHei, SimHei, Arial" font-size="14" fill="#333">创建时间</text>
  <line x1="590.870261024394" y1="410" x2="546.8238774678379" y2="217.0201845890894" stroke="#666" stroke-width="2"/>
  <ellipse cx="537.6941384922319" cy="177.0201845890894" rx="80" ry="40" fill="#fff" stroke="#666" stroke-width="2"/>
  <text x="537.6941384922319" y="183.0201845890894" text-anchor="middle" font-family="Microsoft YaHei, SimHei, Arial" font-size="14" fill="#333">更新时间</text>
  <line x1="631.8989355552961" y1="410" x2="742.6782089651492" y2="271.0871849089516" stroke="#666" stroke-width="2"/>
  <ellipse cx="774.5771445204454" cy="231.08718490895163" rx="80" ry="40" fill="#fff" stroke="#666" stroke-width="2"/>
  <text x="774.5771445204454" y="237.08718490895163" text-anchor="middle" font-family="Microsoft YaHei, SimHei, Arial" font-size="14" fill="#333">删除标记</text>
</svg>