<?xml version="1.0" encoding="UTF-8"?>
<svg width="770" height="770" viewBox="0 0 770 770" xmlns="http://www.w3.org/2000/svg">
  <rect width="770" height="770" fill="#ffffff"/>
  <rect x="295.0" y="345.0" width="180" height="80" fill="#fff" stroke="#333" stroke-width="3"/>
  <text x="385.0" y="391.0" text-anchor="middle" font-family="Microsoft YaHei, SimHei, Arial" font-size="18" font-weight="bold" fill="#333">档口表</text>
  <line x1="385.0" y1="345.0" x2="385.0" y2="103.0" stroke="#666" stroke-width="2"/>
  <ellipse cx="385.0" cy="135.0" rx="85" ry="32" fill="#fff" stroke="#666" stroke-width="2"/>
  <text x="385.0" y="141.0" text-anchor="middle" font-family="Microsoft YaHei, SimHei, Arial" font-size="14" fill="#333">编号</text>
  <line x1="435.15841350650817" y1="345.0" x2="646.91354662679" y2="209.17587587583716" stroke="#666" stroke-width="2"/>
  <ellipse cx="580.4578706170074" cy="229.12754953531663" rx="85" ry="32" fill="#fff" stroke="#666" stroke-width="2"/>
  <text x="580.4578706170074" y="235.12754953531663" text-anchor="middle" font-family="Microsoft YaHei, SimHei, Arial" font-size="14" fill="#333">食堂编号</text>
  <line x1="475.0" y1="405.54191269511347" x2="711.6008505809109" y2="447.75090337568065" stroke="#666" stroke-width="2"/>
  <ellipse cx="628.7319780454559" cy="440.6302334890786" rx="85" ry="32" fill="#fff" stroke="#666" stroke-width="2"/>
  <text x="628.7319780454559" y="446.6302334890786" text-anchor="middle" font-family="Microsoft YaHei, SimHei, Arial" font-size="14" fill="#333">档口名称</text>
  <line x1="404.2629847523011" y1="425.0" x2="530.351052604382" y2="639.0732207484823" stroke="#666" stroke-width="2"/>
  <ellipse cx="493.47093477938955" cy="610.2422169756048" rx="85" ry="32" fill="#fff" stroke="#666" stroke-width="2"/>
  <text x="493.47093477938955" y="616.2422169756048" text-anchor="middle" font-family="Microsoft YaHei, SimHei, Arial" font-size="14" fill="#333">档口描述</text>
  <line x1="365.7370152476989" y1="425.0" x2="239.64894739561805" y2="639.0732207484823" stroke="#666" stroke-width="2"/>
  <ellipse cx="276.5290652206105" cy="610.2422169756048" rx="85" ry="32" fill="#fff" stroke="#666" stroke-width="2"/>
  <text x="276.5290652206105" y="616.2422169756048" text-anchor="middle" font-family="Microsoft YaHei, SimHei, Arial" font-size="14" fill="#333">创建时间</text>
  <line x1="295.0" y1="405.5419126951135" x2="58.39914941908907" y2="447.7509033756807" stroke="#666" stroke-width="2"/>
  <ellipse cx="141.26802195454408" cy="440.63023348907865" rx="85" ry="32" fill="#fff" stroke="#666" stroke-width="2"/>
  <text x="141.26802195454408" y="446.63023348907865" text-anchor="middle" font-family="Microsoft YaHei, SimHei, Arial" font-size="14" fill="#333">更新时间</text>
  <line x1="334.84158649349183" y1="345.0" x2="123.08645337320998" y2="209.1758758758372" stroke="#666" stroke-width="2"/>
  <ellipse cx="189.54212938299253" cy="229.12754953531666" rx="85" ry="32" fill="#fff" stroke="#666" stroke-width="2"/>
  <text x="189.54212938299253" y="235.12754953531666" text-anchor="middle" font-family="Microsoft YaHei, SimHei, Arial" font-size="14" fill="#333">删除标记</text>
</svg>