<?xml version="1.0" encoding="UTF-8"?>
<svg width="770" height="770" viewBox="0 0 770 770" xmlns="http://www.w3.org/2000/svg">
  <rect width="770" height="770" fill="#ffffff"/>
  <rect x="295.0" y="345.0" width="180" height="80" fill="#fff" stroke="#333" stroke-width="3"/>
  <text x="385.0" y="391.0" text-anchor="middle" font-family="Microsoft YaHei, SimHei, Arial" font-size="18" font-weight="bold" fill="#333">用户表</text>
  <line x1="385.0" y1="345.0" x2="385.0" y2="103.0" stroke="#666" stroke-width="2"/>
  <ellipse cx="385.0" cy="135.0" rx="85" ry="32" fill="#fff" stroke="#666" stroke-width="2"/>
  <text x="385.0" y="141.0" text-anchor="middle" font-family="Microsoft YaHei, SimHei, Arial" font-size="14" fill="#333">编号</text>
  <line x1="425.0" y1="345.0" x2="621.8807716974935" y2="185.59588770539364" stroke="#666" stroke-width="2"/>
  <ellipse cx="561.776695296637" cy="208.22330470336314" rx="85" ry="32" fill="#fff" stroke="#666" stroke-width="2"/>
  <text x="561.776695296637" y="214.22330470336314" text-anchor="middle" font-family="Microsoft YaHei, SimHei, Arial" font-size="14" fill="#333">学号/工号</text>
  <line x1="475.0" y1="385.0" x2="720.0" y2="385.0" stroke="#666" stroke-width="2"/>
  <ellipse cx="635.0" cy="385.0" rx="85" ry="32" fill="#fff" stroke="#666" stroke-width="2"/>
  <text x="635.0" y="391.0" text-anchor="middle" font-family="Microsoft YaHei, SimHei, Arial" font-size="14" fill="#333">真实姓名</text>
  <line x1="425.0" y1="425.0" x2="621.8807716974935" y2="584.4041122946063" stroke="#666" stroke-width="2"/>
  <ellipse cx="561.776695296637" cy="561.7766952966368" rx="85" ry="32" fill="#fff" stroke="#666" stroke-width="2"/>
  <text x="561.776695296637" y="567.7766952966368" text-anchor="middle" font-family="Microsoft YaHei, SimHei, Arial" font-size="14" fill="#333">密码</text>
  <line x1="385.0" y1="425.0" x2="385.0" y2="667.0" stroke="#666" stroke-width="2"/>
  <ellipse cx="385.0" cy="635.0" rx="85" ry="32" fill="#fff" stroke="#666" stroke-width="2"/>
  <text x="385.0" y="641.0" text-anchor="middle" font-family="Microsoft YaHei, SimHei, Arial" font-size="14" fill="#333">角色</text>
  <line x1="345.0" y1="425.0" x2="148.1192283025066" y2="584.4041122946064" stroke="#666" stroke-width="2"/>
  <ellipse cx="208.22330470336314" cy="561.776695296637" rx="85" ry="32" fill="#fff" stroke="#666" stroke-width="2"/>
  <text x="208.22330470336314" y="567.776695296637" text-anchor="middle" font-family="Microsoft YaHei, SimHei, Arial" font-size="14" fill="#333">创建时间</text>
  <line x1="295.0" y1="385.0" x2="50.0" y2="385.00000000000006" stroke="#666" stroke-width="2"/>
  <ellipse cx="135.0" cy="385.00000000000006" rx="85" ry="32" fill="#fff" stroke="#666" stroke-width="2"/>
  <text x="135.0" y="391.00000000000006" text-anchor="middle" font-family="Microsoft YaHei, SimHei, Arial" font-size="14" fill="#333">更新时间</text>
  <line x1="345.0" y1="345.0" x2="148.1192283025065" y2="185.59588770539364" stroke="#666" stroke-width="2"/>
  <ellipse cx="208.22330470336308" cy="208.22330470336314" rx="85" ry="32" fill="#fff" stroke="#666" stroke-width="2"/>
  <text x="208.22330470336308" y="214.22330470336314" text-anchor="middle" font-family="Microsoft YaHei, SimHei, Arial" font-size="14" fill="#333">删除标记</text>
</svg>