<?xml version="1.0" encoding="UTF-8"?>
<svg width="910" height="910" viewBox="0 0 910 910" xmlns="http://www.w3.org/2000/svg">
  <rect width="910" height="910" fill="#ffffff"/>
  <rect x="365.0" y="415.0" width="180" height="80" fill="#fff" stroke="#333" stroke-width="3"/>
  <text x="455.0" y="461.0" text-anchor="middle" font-family="Microsoft YaHei, SimHei, Arial" font-size="18" font-weight="bold" fill="#333">菜品表</text>
  <line x1="455.0" y1="415.0" x2="455.0" y2="103.0" stroke="#666" stroke-width="2"/>
  <ellipse cx="455.0" cy="135.0" rx="85" ry="32" fill="#fff" stroke="#666" stroke-width="2"/>
  <text x="455.0" y="141.0" text-anchor="middle" font-family="Microsoft YaHei, SimHei, Arial" font-size="14" fill="#333">编号</text>
  <line x1="478.094010767585" y1="415.0" x2="657.5" y2="150.15905786787758" stroke="#666" stroke-width="2"/>
  <ellipse cx="615.0" cy="177.8718707889796" rx="85" ry="32" fill="#fff" stroke="#666" stroke-width="2"/>
  <text x="615.0" y="183.8718707889796" text-anchor="middle" font-family="Microsoft YaHei, SimHei, Arial" font-size="14" fill="#333">菜品名称</text>
  <line x1="524.282032302755" y1="415.0" x2="805.7402885326976" y2="279.0" stroke="#666" stroke-width="2"/>
  <ellipse cx="732.1281292110203" cy="295.0" rx="85" ry="32" fill="#fff" stroke="#666" stroke-width="2"/>
  <text x="732.1281292110203" y="301.0" text-anchor="middle" font-family="Microsoft YaHei, SimHei, Arial" font-size="14" fill="#333">档口编号</text>
  <line x1="545.0" y1="455.0" x2="860.0" y2="455.0" stroke="#666" stroke-width="2"/>
  <ellipse cx="775.0" cy="455.0" rx="85" ry="32" fill="#fff" stroke="#666" stroke-width="2"/>
  <text x="775.0" y="461.0" text-anchor="middle" font-family="Microsoft YaHei, SimHei, Arial" font-size="14" fill="#333">发布日期</text>
  <line x1="524.2820323027552" y1="495.0" x2="805.7402885326977" y2="631.0" stroke="#666" stroke-width="2"/>
  <ellipse cx="732.1281292110205" cy="615.0" rx="85" ry="32" fill="#fff" stroke="#666" stroke-width="2"/>
  <text x="732.1281292110205" y="621.0" text-anchor="middle" font-family="Microsoft YaHei, SimHei, Arial" font-size="14" fill="#333">菜品价格</text>
  <line x1="478.094010767585" y1="495.0" x2="657.5" y2="759.8409421321224" stroke="#666" stroke-width="2"/>
  <ellipse cx="615.0" cy="732.1281292110205" rx="85" ry="32" fill="#fff" stroke="#666" stroke-width="2"/>
  <text x="615.0" y="738.1281292110205" text-anchor="middle" font-family="Microsoft YaHei, SimHei, Arial" font-size="14" fill="#333">菜品描述</text>
  <line x1="455.0" y1="495.0" x2="455.0" y2="807.0" stroke="#666" stroke-width="2"/>
  <ellipse cx="455.0" cy="775.0" rx="85" ry="32" fill="#fff" stroke="#666" stroke-width="2"/>
  <text x="455.0" y="781.0" text-anchor="middle" font-family="Microsoft YaHei, SimHei, Arial" font-size="14" fill="#333">图片路径</text>
  <line x1="431.905989232415" y1="495.0" x2="252.50000000000006" y2="759.8409421321224" stroke="#666" stroke-width="2"/>
  <ellipse cx="295.00000000000006" cy="732.1281292110205" rx="85" ry="32" fill="#fff" stroke="#666" stroke-width="2"/>
  <text x="295.00000000000006" y="738.1281292110205" text-anchor="middle" font-family="Microsoft YaHei, SimHei, Arial" font-size="14" fill="#333">平均评分</text>
  <line x1="385.71796769724494" y1="495.0" x2="104.2597114673024" y2="631.0000000000001" stroke="#666" stroke-width="2"/>
  <ellipse cx="177.87187078897966" cy="615.0000000000001" rx="85" ry="32" fill="#fff" stroke="#666" stroke-width="2"/>
  <text x="177.87187078897966" y="621.0000000000001" text-anchor="middle" font-family="Microsoft YaHei, SimHei, Arial" font-size="14" fill="#333">评价数量</text>
  <line x1="365.0" y1="455.0" x2="50.0" y2="455.00000000000006" stroke="#666" stroke-width="2"/>
  <ellipse cx="135.0" cy="455.00000000000006" rx="85" ry="32" fill="#fff" stroke="#666" stroke-width="2"/>
  <text x="135.0" y="461.00000000000006" text-anchor="middle" font-family="Microsoft YaHei, SimHei, Arial" font-size="14" fill="#333">创建时间</text>
  <line x1="385.7179676972449" y1="415.0" x2="104.25971146730237" y2="279.0" stroke="#666" stroke-width="2"/>
  <ellipse cx="177.87187078897966" cy="295.0" rx="85" ry="32" fill="#fff" stroke="#666" stroke-width="2"/>
  <text x="177.87187078897966" y="301.0" text-anchor="middle" font-family="Microsoft YaHei, SimHei, Arial" font-size="14" fill="#333">更新时间</text>
  <line x1="431.9059892324149" y1="415.0" x2="252.49999999999986" y2="150.1590578678777" stroke="#666" stroke-width="2"/>
  <ellipse cx="294.9999999999999" cy="177.87187078897972" rx="85" ry="32" fill="#fff" stroke="#666" stroke-width="2"/>
  <text x="294.9999999999999" y="183.87187078897972" text-anchor="middle" font-family="Microsoft YaHei, SimHei, Arial" font-size="14" fill="#333">删除标记</text>
</svg>