<?xml version="1.0" encoding="UTF-8"?>
<svg width="770" height="770" viewBox="0 0 770 770" xmlns="http://www.w3.org/2000/svg">
  <rect width="770" height="770" fill="#ffffff"/>
  <rect x="295.0" y="345.0" width="180" height="80" fill="#fff" stroke="#333" stroke-width="3"/>
  <text x="385.0" y="391.0" text-anchor="middle" font-family="Microsoft YaHei, SimHei, Arial" font-size="18" font-weight="bold" fill="#333">敏感词表</text>
  <line x1="385.0" y1="345.0" x2="385.0" y2="103.0" stroke="#666" stroke-width="2"/>
  <ellipse cx="385.0" cy="135.0" rx="85" ry="32" fill="#fff" stroke="#666" stroke-width="2"/>
  <text x="385.0" y="141.0" text-anchor="middle" font-family="Microsoft YaHei, SimHei, Arial" font-size="14" fill="#333">编号</text>
  <line x1="454.2820323027551" y1="345.0" x2="675.118510267787" y2="244.0" stroke="#666" stroke-width="2"/>
  <ellipse cx="601.5063509461097" cy="260.0" rx="85" ry="32" fill="#fff" stroke="#666" stroke-width="2"/>
  <text x="601.5063509461097" y="266.0" text-anchor="middle" font-family="Microsoft YaHei, SimHei, Arial" font-size="14" fill="#333">敏感词</text>
  <line x1="454.28203230275517" y1="425.0" x2="675.118510267787" y2="525.9999999999999" stroke="#666" stroke-width="2"/>
  <ellipse cx="601.5063509461097" cy="509.99999999999994" rx="85" ry="32" fill="#fff" stroke="#666" stroke-width="2"/>
  <text x="601.5063509461097" y="516.0" text-anchor="middle" font-family="Microsoft YaHei, SimHei, Arial" font-size="14" fill="#333">敏感等级</text>
  <line x1="385.0" y1="425.0" x2="385.0" y2="667.0" stroke="#666" stroke-width="2"/>
  <ellipse cx="385.0" cy="635.0" rx="85" ry="32" fill="#fff" stroke="#666" stroke-width="2"/>
  <text x="385.0" y="641.0" text-anchor="middle" font-family="Microsoft YaHei, SimHei, Arial" font-size="14" fill="#333">创建时间</text>
  <line x1="315.71796769724494" y1="425.0" x2="94.88148973221311" y2="526.0000000000001" stroke="#666" stroke-width="2"/>
  <ellipse cx="168.49364905389038" cy="510.0000000000001" rx="85" ry="32" fill="#fff" stroke="#666" stroke-width="2"/>
  <text x="168.49364905389038" y="516.0000000000001" text-anchor="middle" font-family="Microsoft YaHei, SimHei, Arial" font-size="14" fill="#333">更新时间</text>
  <line x1="315.7179676972449" y1="345.0" x2="94.88148973221305" y2="244.0" stroke="#666" stroke-width="2"/>
  <ellipse cx="168.49364905389035" cy="260.0" rx="85" ry="32" fill="#fff" stroke="#666" stroke-width="2"/>
  <text x="168.49364905389035" y="266.0" text-anchor="middle" font-family="Microsoft YaHei, SimHei, Arial" font-size="14" fill="#333">删除标记</text>
</svg>