<?xml version="1.0" encoding="UTF-8"?>
<svg width="910" height="910" viewBox="0 0 910 910" xmlns="http://www.w3.org/2000/svg">
  <rect width="910" height="910" fill="#ffffff"/>
  <rect x="365.0" y="415.0" width="180" height="80" fill="#fff" stroke="#333" stroke-width="3"/>
  <text x="455.0" y="461.0" text-anchor="middle" font-family="Microsoft YaHei, SimHei, Arial" font-size="18" font-weight="bold" fill="#333">投诉建议表</text>
  <line x1="455.0" y1="415.0" x2="455.0" y2="103.0" stroke="#666" stroke-width="2"/>
  <ellipse cx="455.0" cy="135.0" rx="85" ry="32" fill="#fff" stroke="#666" stroke-width="2"/>
  <text x="455.0" y="141.0" text-anchor="middle" font-family="Microsoft YaHei, SimHei, Arial" font-size="14" fill="#333">编号</text>
  <line x1="480.70643908673327" y1="415.0" x2="673.9595310695171" y2="158.87875644342424" stroke="#666" stroke-width="2"/>
  <ellipse cx="628.0050615857913" cy="185.79886949402203" rx="85" ry="32" fill="#fff" stroke="#666" stroke-width="2"/>
  <text x="628.0050615857913" y="191.79886949402203" text-anchor="middle" font-family="Microsoft YaHei, SimHei, Arial" font-size="14" fill="#333">用户编号</text>
  <line x1="542.5877825195873" y1="415.0" x2="823.40095811858" y2="308.773915423336" stroke="#666" stroke-width="2"/>
  <ellipse cx="746.0822385134459" cy="322.0671958393964" rx="85" ry="32" fill="#fff" stroke="#666" stroke-width="2"/>
  <text x="746.0822385134459" y="328.0671958393964" text-anchor="middle" font-family="Microsoft YaHei, SimHei, Arial" font-size="14" fill="#333">档口编号</text>
  <line x1="545.0" y1="467.9400464595476" x2="855.8776839617777" y2="505.09482307219633" stroke="#666" stroke-width="2"/>
  <ellipse cx="771.7428614018985" cy="500.54074824745123" rx="85" ry="32" fill="#fff" stroke="#666" stroke-width="2"/>
  <text x="771.7428614018985" y="506.54074824745123" text-anchor="middle" font-family="Microsoft YaHei, SimHei, Arial" font-size="14" fill="#333">类型</text>
  <line x1="501.1624608213204" y1="495.0" x2="761.0785776134745" y2="685.5109783487403" stroke="#666" stroke-width="2"/>
  <ellipse cx="696.8398637933626" cy="664.5554348624912" rx="85" ry="32" fill="#fff" stroke="#666" stroke-width="2"/>
  <text x="696.8398637933626" y="670.5554348624912" text-anchor="middle" font-family="Microsoft YaHei, SimHei, Arial" font-size="14" fill="#333">标题</text>
  <line x1="466.7450597175347" y1="495.0" x2="569.101685520779" y2="792.7415267123031" stroke="#666" stroke-width="2"/>
  <ellipse cx="545.1544181892575" cy="762.0377515566391" rx="85" ry="32" fill="#fff" stroke="#666" stroke-width="2"/>
  <text x="545.1544181892575" y="768.0377515566391" text-anchor="middle" font-family="Microsoft YaHei, SimHei, Arial" font-size="14" fill="#333">内容</text>
  <line x1="443.2549402824653" y1="495.0" x2="340.8983144792211" y2="792.7415267123032" stroke="#666" stroke-width="2"/>
  <ellipse cx="364.8455818107426" cy="762.0377515566393" rx="85" ry="32" fill="#fff" stroke="#666" stroke-width="2"/>
  <text x="364.8455818107426" y="768.0377515566393" text-anchor="middle" font-family="Microsoft YaHei, SimHei, Arial" font-size="14" fill="#333">状态</text>
  <line x1="408.83753917867966" y1="495.0" x2="148.92142238652545" y2="685.5109783487403" stroke="#666" stroke-width="2"/>
  <ellipse cx="213.1601362066374" cy="664.5554348624912" rx="85" ry="32" fill="#fff" stroke="#666" stroke-width="2"/>
  <text x="213.1601362066374" y="670.5554348624912" text-anchor="middle" font-family="Microsoft YaHei, SimHei, Arial" font-size="14" fill="#333">管理员回复</text>
  <line x1="365.0" y1="467.9400464595476" x2="54.12231603822228" y2="505.09482307219633" stroke="#666" stroke-width="2"/>
  <ellipse cx="138.25713859810156" cy="500.54074824745123" rx="85" ry="32" fill="#fff" stroke="#666" stroke-width="2"/>
  <text x="138.25713859810156" y="506.54074824745123" text-anchor="middle" font-family="Microsoft YaHei, SimHei, Arial" font-size="14" fill="#333">创建时间</text>
  <line x1="367.4122174804126" y1="415.0" x2="86.59904188142" y2="308.77391542333606" stroke="#666" stroke-width="2"/>
  <ellipse cx="163.91776148655407" cy="322.06719583939645" rx="85" ry="32" fill="#fff" stroke="#666" stroke-width="2"/>
  <text x="163.91776148655407" y="328.06719583939645" text-anchor="middle" font-family="Microsoft YaHei, SimHei, Arial" font-size="14" fill="#333">更新时间</text>
  <line x1="429.2935609132668" y1="415.0" x2="236.04046893048303" y2="158.87875644342424" stroke="#666" stroke-width="2"/>
  <ellipse cx="281.99493841420883" cy="185.79886949402203" rx="85" ry="32" fill="#fff" stroke="#666" stroke-width="2"/>
  <text x="281.99493841420883" y="191.79886949402203" text-anchor="middle" font-family="Microsoft YaHei, SimHei, Arial" font-size="14" fill="#333">删除标记</text>
</svg>