<?xml version="1.0" encoding="UTF-8"?>
<svg width="1360" height="1360" viewBox="0 0 1360 1360" xmlns="http://www.w3.org/2000/svg">
  <rect width="1360" height="1360" fill="#ffffff"/>
  <rect x="520.0" y="610.0" width="320" height="140" fill="#fff" stroke="#333" stroke-width="5"/>
  <text x="680.0" y="692.0" text-anchor="middle" font-family="Microsoft YaHei, SimHei, Arial" font-size="32" font-weight="bold" fill="#333">管理员用户表</text>
  <line x1="680.0" y1="610.0" x2="680.0" y2="175.0" stroke="#666" stroke-width="3"/>
  <ellipse cx="680.0" cy="230.0" rx="150" ry="55" fill="#fff" stroke="#666" stroke-width="3"/>
  <text x="680.0" y="238.0" text-anchor="middle" font-family="Microsoft YaHei, SimHei, Arial" font-size="24" fill="#333">管理员编号</text>
  <line x1="840.0" y1="628.012848602735" x2="1250.6339097770922" y2="523.9464178406515" stroke="#666" stroke-width="3"/>
  <ellipse cx="1107.975432332819" cy="540.9423525312736" rx="150" ry="55" fill="#fff" stroke="#666" stroke-width="3"/>
  <text x="1107.975432332819" y="548.9423525312736" text-anchor="middle" font-family="Microsoft YaHei, SimHei, Arial" font-size="24" fill="#333">登录用户名</text>
  <line x1="730.8579769603753" y1="750.0" x2="1032.6711513754838" y2="1088.5535821593485" stroke="#666" stroke-width="3"/>
  <ellipse cx="944.5033635316129" cy="1044.0576474687264" rx="150" ry="55" fill="#fff" stroke="#666" stroke-width="3"/>
  <text x="944.5033635316129" y="1052.0576474687264" text-anchor="middle" font-family="Microsoft YaHei, SimHei, Arial" font-size="24" fill="#333">登录密码</text>
  <line x1="629.1420230396247" y1="750.0" x2="327.3288486245162" y2="1088.5535821593485" stroke="#666" stroke-width="3"/>
  <ellipse cx="415.4966364683871" cy="1044.0576474687264" rx="150" ry="55" fill="#fff" stroke="#666" stroke-width="3"/>
  <text x="415.4966364683871" y="1052.0576474687264" text-anchor="middle" font-family="Microsoft YaHei, SimHei, Arial" font-size="24" fill="#333">昵称</text>
  <line x1="520.0" y1="628.0128486027351" x2="109.36609022290784" y2="523.9464178406516" stroke="#666" stroke-width="3"/>
  <ellipse cx="252.02456766718086" cy="540.9423525312737" rx="150" ry="55" fill="#fff" stroke="#666" stroke-width="3"/>
  <text x="252.02456766718086" y="548.9423525312737" text-anchor="middle" font-family="Microsoft YaHei, SimHei, Arial" font-size="24" fill="#333">锁定状态</text>
</svg>