<?xml version="1.0" encoding="UTF-8"?>
<svg width="1620" height="1620" viewBox="0 0 1620 1620" xmlns="http://www.w3.org/2000/svg">
  <rect width="1620" height="1620" fill="#ffffff"/>
  <rect x="650.0" y="740.0" width="320" height="140" fill="#fff" stroke="#333" stroke-width="5"/>
  <text x="810.0" y="822.0" text-anchor="middle" font-family="Microsoft YaHei, SimHei, Arial" font-size="32" font-weight="bold" fill="#333">轮播图配置表</text>
  <line x1="810.0" y1="740.0" x2="810.0" y2="175.0" stroke="#666" stroke-width="3"/>
  <ellipse cx="810.0" cy="230.0" rx="150" ry="55" fill="#fff" stroke="#666" stroke-width="3"/>
  <text x="810.0" y="238.0" text-anchor="middle" font-family="Microsoft YaHei, SimHei, Arial" font-size="24" fill="#333">轮播图编号</text>
  <line x1="868.7369741824095" y1="740.0" x2="1279.2349550711738" y2="323.56177861944894" stroke="#666" stroke-width="3"/>
  <ellipse cx="1182.8168136181928" cy="365.6942229909927" rx="150" ry="55" fill="#fff" stroke="#666" stroke-width="3"/>
  <text x="1182.8168136181928" y="373.6942229909927" text-anchor="middle" font-family="Microsoft YaHei, SimHei, Arial" font-size="24" fill="#333">轮播图图片URL</text>
  <line x1="970.0" y1="781.7876830866456" x2="1528.9096596989118" y2="699.7334071814993" stroke="#666" stroke-width="3"/>
  <ellipse cx="1381.1884967470805" cy="709.2840569531804" rx="150" ry="55" fill="#fff" stroke="#666" stroke-width="3"/>
  <text x="1381.1884967470805" y="717.2840569531804" text-anchor="middle" font-family="Microsoft YaHei, SimHei, Arial" font-size="24" fill="#333">跳转链接</text>
  <line x1="931.2435565298214" y1="880.0" x2="1442.1985447626403" y2="1127.5" stroke="#666" stroke-width="3"/>
  <ellipse cx="1312.2947341949744" cy="1100.0" rx="150" ry="55" fill="#fff" stroke="#666" stroke-width="3"/>
  <text x="1312.2947341949744" y="1108.0" text-anchor="middle" font-family="Microsoft YaHei, SimHei, Arial" font-size="24" fill="#333">轮播图排序</text>
  <line x1="835.4779163986342" y1="880.0" x2="1059.6747046277383" y2="1406.7048141990517" stroke="#666" stroke-width="3"/>
  <ellipse cx="1008.371683128888" cy="1355.0217200558268" rx="150" ry="55" fill="#fff" stroke="#666" stroke-width="3"/>
  <text x="1008.371683128888" y="1363.0217200558268" text-anchor="middle" font-family="Microsoft YaHei, SimHei, Arial" font-size="24" fill="#333">删除标记</text>
  <line x1="784.5220836013658" y1="880.0" x2="560.3252953722618" y2="1406.7048141990517" stroke="#666" stroke-width="3"/>
  <ellipse cx="611.6283168711121" cy="1355.0217200558268" rx="150" ry="55" fill="#fff" stroke="#666" stroke-width="3"/>
  <text x="611.6283168711121" y="1363.0217200558268" text-anchor="middle" font-family="Microsoft YaHei, SimHei, Arial" font-size="24" fill="#333">创建时间</text>
  <line x1="688.7564434701787" y1="880.0" x2="177.80145523735993" y2="1127.5000000000002" stroke="#666" stroke-width="3"/>
  <ellipse cx="307.7052658050257" cy="1100.0000000000002" rx="150" ry="55" fill="#fff" stroke="#666" stroke-width="3"/>
  <text x="307.7052658050257" y="1108.0000000000002" text-anchor="middle" font-family="Microsoft YaHei, SimHei, Arial" font-size="24" fill="#333">创建人</text>
  <line x1="650.0" y1="781.7876830866456" x2="91.09034030108805" y2="699.7334071814994" stroke="#666" stroke-width="3"/>
  <ellipse cx="238.81150325291924" cy="709.2840569531805" rx="150" ry="55" fill="#fff" stroke="#666" stroke-width="3"/>
  <text x="238.81150325291924" y="717.2840569531805" text-anchor="middle" font-family="Microsoft YaHei, SimHei, Arial" font-size="24" fill="#333">更新时间</text>
  <line x1="751.2630258175905" y1="740.0" x2="340.7650449288261" y2="323.56177861944906" stroke="#666" stroke-width="3"/>
  <ellipse cx="437.1831863818071" cy="365.69422299099284" rx="150" ry="55" fill="#fff" stroke="#666" stroke-width="3"/>
  <text x="437.1831863818071" y="373.69422299099284" text-anchor="middle" font-family="Microsoft YaHei, SimHei, Arial" font-size="24" fill="#333">更新人</text>
</svg>