<?xml version="1.0" encoding="UTF-8"?>
<svg width="1200" height="900" viewBox="0 0 1200 900" xmlns="http://www.w3.org/2000/svg">
  <rect width="1200" height="900" fill="#ffffff"/>
  <rect x="510" y="410" width="180" height="80" fill="#fff" stroke="#333" stroke-width="3"/>
  <text x="600" y="456" text-anchor="middle" font-family="Microsoft YaHei, SimHei, Arial" font-size="18" font-weight="bold" fill="#333">订单主表</text>
  <line x1="690" y1="450" x2="800" y2="450" stroke="#666" stroke-width="2"/>
  <ellipse cx="880" cy="450" rx="80" ry="40" fill="#fff" stroke="#666" stroke-width="2"/>
  <text x="880" y="456" text-anchor="middle" font-family="Microsoft YaHei, SimHei, Arial" font-size="14" fill="#333">字段中文名</text>
  <line x1="676.2136324521227" y1="490" x2="771.7140547307761" y2="540.1224881722552" stroke="#666" stroke-width="2"/>
  <ellipse cx="847.9276871828988" cy="580.1224881722552" rx="80" ry="40" fill="#fff" stroke="#666" stroke-width="2"/>
  <text x="847.9276871828988" y="586.1224881722552" text-anchor="middle" font-family="Microsoft YaHei, SimHei, Arial" font-size="14" fill="#333">订单编号</text>
  <line x1="627.610006478769" y1="490" x2="731.4481226059546" y2="640.4354824502238" stroke="#666" stroke-width="2"/>
  <ellipse cx="759.0581290847236" cy="680.4354824502238" rx="80" ry="40" fill="#fff" stroke="#666" stroke-width="2"/>
  <text x="759.0581290847236" y="686.4354824502238" text-anchor="middle" font-family="Microsoft YaHei, SimHei, Arial" font-size="14" fill="#333">订单号</text>
  <line x1="604.8568793288904" y1="490" x2="628.8933911426001" y2="687.958484747455" stroke="#666" stroke-width="2"/>
  <ellipse cx="633.7502704714905" cy="727.958484747455" rx="80" ry="40" fill="#fff" stroke="#666" stroke-width="2"/>
  <text x="633.7502704714905" y="733.958484747455" text-anchor="middle" font-family="Microsoft YaHei, SimHei, Arial" font-size="14" fill="#333">用户编号</text>
  <line x1="584.8300009837651" y1="490" x2="515.880630644325" y2="671.8045479519162" stroke="#666" stroke-width="2"/>
  <ellipse cx="500.7106316280901" cy="711.8045479519162" rx="80" ry="40" fill="#fff" stroke="#666" stroke-width="2"/>
  <text x="500.7106316280901" y="717.8045479519162" text-anchor="middle" font-family="Microsoft YaHei, SimHei, Arial" font-size="14" fill="#333">订单总价</text>
  <line x1="554.8493335964823" y1="490" x2="435.5676569156094" y2="595.6743443074228" stroke="#666" stroke-width="2"/>
  <ellipse cx="390.41699051209173" cy="635.6743443074228" rx="80" ry="40" fill="#fff" stroke="#666" stroke-width="2"/>
  <text x="390.41699051209173" y="641.6743443074228" text-anchor="middle" font-family="Microsoft YaHei, SimHei, Arial" font-size="14" fill="#333">支付状态</text>
  <line x1="510" y1="472.183007672878" x2="408.1362911207055" y2="497.290156957958" stroke="#666" stroke-width="2"/>
  <ellipse cx="328.1362911207055" cy="517.0083860005162" rx="80" ry="40" fill="#fff" stroke="#666" stroke-width="2"/>
  <text x="328.1362911207055" y="523.0083860005162" text-anchor="middle" font-family="Microsoft YaHei, SimHei, Arial" font-size="14" fill="#333">支付方式</text>
  <line x1="510" y1="427.8169923271221" x2="408.1362911207054" y2="402.70984304204205" stroke="#666" stroke-width="2"/>
  <ellipse cx="328.1362911207054" cy="382.9916139994839" rx="80" ry="40" fill="#fff" stroke="#666" stroke-width="2"/>
  <text x="328.1362911207054" y="388.9916139994839" text-anchor="middle" font-family="Microsoft YaHei, SimHei, Arial" font-size="14" fill="#333">支付时间</text>
  <line x1="554.8493335964822" y1="410" x2="435.5676569156094" y2="304.3256556925774" stroke="#666" stroke-width="2"/>
  <ellipse cx="390.4169905120916" cy="264.3256556925774" rx="80" ry="40" fill="#fff" stroke="#666" stroke-width="2"/>
  <text x="390.4169905120916" y="270.3256556925774" text-anchor="middle" font-family="Microsoft YaHei, SimHei, Arial" font-size="14" fill="#333">订单状态</text>
  <line x1="584.8300009837651" y1="410" x2="515.8806306443248" y2="228.1954520480839" stroke="#666" stroke-width="2"/>
  <ellipse cx="500.7106316280899" cy="188.1954520480839" rx="80" ry="40" fill="#fff" stroke="#666" stroke-width="2"/>
  <text x="500.7106316280899" y="194.1954520480839" text-anchor="middle" font-family="Microsoft YaHei, SimHei, Arial" font-size="14" fill="#333">订单备注</text>
  <line x1="604.8568793288904" y1="410" x2="628.8933911425999" y2="212.04151525254485" stroke="#666" stroke-width="2"/>
  <ellipse cx="633.7502704714902" cy="172.04151525254485" rx="80" ry="40" fill="#fff" stroke="#666" stroke-width="2"/>
  <text x="633.7502704714902" y="178.04151525254485" text-anchor="middle" font-family="Microsoft YaHei, SimHei, Arial" font-size="14" fill="#333">删除标记</text>
  <line x1="627.610006478769" y1="410" x2="731.4481226059545" y2="259.56451754977616" stroke="#666" stroke-width="2"/>
  <ellipse cx="759.0581290847235" cy="219.56451754977616" rx="80" ry="40" fill="#fff" stroke="#666" stroke-width="2"/>
  <text x="759.0581290847235" y="225.56451754977616" text-anchor="middle" font-family="Microsoft YaHei, SimHei, Arial" font-size="14" fill="#333">创建时间</text>
  <line x1="676.2136324521226" y1="410" x2="771.7140547307761" y2="359.8775118277446" stroke="#666" stroke-width="2"/>
  <ellipse cx="847.9276871828987" cy="319.8775118277446" rx="80" ry="40" fill="#fff" stroke="#666" stroke-width="2"/>
  <text x="847.9276871828987" y="325.8775118277446" text-anchor="middle" font-family="Microsoft YaHei, SimHei, Arial" font-size="14" fill="#333">更新时间</text>
</svg>