<?xml version="1.0" encoding="UTF-8"?>
<svg width="1200" height="900" viewBox="0 0 1200 900" xmlns="http://www.w3.org/2000/svg">
  <rect width="1200" height="900" fill="#ffffff"/>
  <rect x="510.0" y="410.0" width="180" height="80" fill="#fff" stroke="#333" stroke-width="3"/>
  <text x="600.0" y="456.0" text-anchor="middle" font-family="Microsoft YaHei, SimHei, Arial" font-size="18" font-weight="bold" fill="#333">订单主表</text>
  <line x1="600.0" y1="410.0" x2="600.0" y2="98.0" stroke="#666" stroke-width="2"/>
  <ellipse cx="600.0" cy="130.0" rx="85" ry="32" fill="#fff" stroke="#666" stroke-width="2"/>
  <text x="600.0" y="136.0" text-anchor="middle" font-family="Microsoft YaHei, SimHei, Arial" font-size="14" fill="#333">订单编号</text>
  <line x1="623.094010767585" y1="410.0" x2="802.5" y2="145.15905786787758" stroke="#666" stroke-width="2"/>
  <ellipse cx="760.0" cy="172.8718707889796" rx="85" ry="32" fill="#fff" stroke="#666" stroke-width="2"/>
  <text x="760.0" y="178.8718707889796" text-anchor="middle" font-family="Microsoft YaHei, SimHei, Arial" font-size="14" fill="#333">订单号</text>
  <line x1="669.282032302755" y1="410.0" x2="950.7402885326976" y2="274.0" stroke="#666" stroke-width="2"/>
  <ellipse cx="877.1281292110203" cy="290.0" rx="85" ry="32" fill="#fff" stroke="#666" stroke-width="2"/>
  <text x="877.1281292110203" y="296.0" text-anchor="middle" font-family="Microsoft YaHei, SimHei, Arial" font-size="14" fill="#333">用户编号</text>
  <line x1="690.0" y1="450.0" x2="1005.0" y2="450.0" stroke="#666" stroke-width="2"/>
  <ellipse cx="920.0" cy="450.0" rx="85" ry="32" fill="#fff" stroke="#666" stroke-width="2"/>
  <text x="920.0" y="456.0" text-anchor="middle" font-family="Microsoft YaHei, SimHei, Arial" font-size="14" fill="#333">订单总价</text>
  <line x1="669.2820323027552" y1="490.0" x2="950.7402885326977" y2="626.0" stroke="#666" stroke-width="2"/>
  <ellipse cx="877.1281292110205" cy="610.0" rx="85" ry="32" fill="#fff" stroke="#666" stroke-width="2"/>
  <text x="877.1281292110205" y="616.0" text-anchor="middle" font-family="Microsoft YaHei, SimHei, Arial" font-size="14" fill="#333">支付状态</text>
  <line x1="623.094010767585" y1="490.0" x2="802.5" y2="754.8409421321224" stroke="#666" stroke-width="2"/>
  <ellipse cx="760.0" cy="727.1281292110205" rx="85" ry="32" fill="#fff" stroke="#666" stroke-width="2"/>
  <text x="760.0" y="733.1281292110205" text-anchor="middle" font-family="Microsoft YaHei, SimHei, Arial" font-size="14" fill="#333">支付方式</text>
  <line x1="600.0" y1="490.0" x2="600.0" y2="802.0" stroke="#666" stroke-width="2"/>
  <ellipse cx="600.0" cy="770.0" rx="85" ry="32" fill="#fff" stroke="#666" stroke-width="2"/>
  <text x="600.0" y="776.0" text-anchor="middle" font-family="Microsoft YaHei, SimHei, Arial" font-size="14" fill="#333">支付时间</text>
  <line x1="576.905989232415" y1="490.0" x2="397.50000000000006" y2="754.8409421321224" stroke="#666" stroke-width="2"/>
  <ellipse cx="440.00000000000006" cy="727.1281292110205" rx="85" ry="32" fill="#fff" stroke="#666" stroke-width="2"/>
  <text x="440.00000000000006" y="733.1281292110205" text-anchor="middle" font-family="Microsoft YaHei, SimHei, Arial" font-size="14" fill="#333">订单状态</text>
  <line x1="530.717967697245" y1="490.0" x2="249.2597114673024" y2="626.0000000000001" stroke="#666" stroke-width="2"/>
  <ellipse cx="322.87187078897966" cy="610.0000000000001" rx="85" ry="32" fill="#fff" stroke="#666" stroke-width="2"/>
  <text x="322.87187078897966" y="616.0000000000001" text-anchor="middle" font-family="Microsoft YaHei, SimHei, Arial" font-size="14" fill="#333">订单备注</text>
  <line x1="510.0" y1="450.0" x2="195.0" y2="450.00000000000006" stroke="#666" stroke-width="2"/>
  <ellipse cx="280.0" cy="450.00000000000006" rx="85" ry="32" fill="#fff" stroke="#666" stroke-width="2"/>
  <text x="280.0" y="456.00000000000006" text-anchor="middle" font-family="Microsoft YaHei, SimHei, Arial" font-size="14" fill="#333">删除标记</text>
  <line x1="530.7179676972448" y1="410.0" x2="249.2597114673024" y2="274.0" stroke="#666" stroke-width="2"/>
  <ellipse cx="322.87187078897966" cy="290.0" rx="85" ry="32" fill="#fff" stroke="#666" stroke-width="2"/>
  <text x="322.87187078897966" y="296.0" text-anchor="middle" font-family="Microsoft YaHei, SimHei, Arial" font-size="14" fill="#333">创建时间</text>
  <line x1="576.905989232415" y1="410.0" x2="397.49999999999983" y2="145.1590578678777" stroke="#666" stroke-width="2"/>
  <ellipse cx="439.9999999999999" cy="172.87187078897972" rx="85" ry="32" fill="#fff" stroke="#666" stroke-width="2"/>
  <text x="439.9999999999999" y="178.87187078897972" text-anchor="middle" font-family="Microsoft YaHei, SimHei, Arial" font-size="14" fill="#333">更新时间</text>
</svg>