<?xml version="1.0" encoding="UTF-8"?>
<svg width="1200" height="900" viewBox="0 0 1200 900" xmlns="http://www.w3.org/2000/svg">
  <rect width="1200" height="900" fill="#ffffff"/>
  <rect x="510.0" y="410.0" width="180" height="80" fill="#fff" stroke="#333" stroke-width="3"/>
  <text x="600.0" y="456.0" text-anchor="middle" font-family="Microsoft YaHei, SimHei, Arial" font-size="18" font-weight="bold" fill="#333">首页配置表</text>
  <line x1="600.0" y1="410.0" x2="600.0" y2="98.0" stroke="#666" stroke-width="2"/>
  <ellipse cx="600.0" cy="130.0" rx="85" ry="32" fill="#fff" stroke="#666" stroke-width="2"/>
  <text x="600.0" y="136.0" text-anchor="middle" font-family="Microsoft YaHei, SimHei, Arial" font-size="14" fill="#333">配置编号</text>
  <line x1="625.7064390867332" y1="410.0" x2="818.9595310695171" y2="153.87875644342424" stroke="#666" stroke-width="2"/>
  <ellipse cx="773.0050615857913" cy="180.79886949402203" rx="85" ry="32" fill="#fff" stroke="#666" stroke-width="2"/>
  <text x="773.0050615857913" y="186.79886949402203" text-anchor="middle" font-family="Microsoft YaHei, SimHei, Arial" font-size="14" fill="#333">配置名称</text>
  <line x1="687.5877825195873" y1="410.0" x2="968.40095811858" y2="303.773915423336" stroke="#666" stroke-width="2"/>
  <ellipse cx="891.0822385134459" cy="317.0671958393964" rx="85" ry="32" fill="#fff" stroke="#666" stroke-width="2"/>
  <text x="891.0822385134459" y="323.0671958393964" text-anchor="middle" font-family="Microsoft YaHei, SimHei, Arial" font-size="14" fill="#333">配置类型</text>
  <line x1="690.0" y1="462.9400464595476" x2="1000.8776839617777" y2="500.09482307219633" stroke="#666" stroke-width="2"/>
  <ellipse cx="916.7428614018985" cy="495.54074824745123" rx="85" ry="32" fill="#fff" stroke="#666" stroke-width="2"/>
  <text x="916.7428614018985" y="501.54074824745123" text-anchor="middle" font-family="Microsoft YaHei, SimHei, Arial" font-size="14" fill="#333">商品编号</text>
  <line x1="646.1624608213203" y1="490.0" x2="906.0785776134745" y2="680.5109783487403" stroke="#666" stroke-width="2"/>
  <ellipse cx="841.8398637933626" cy="659.5554348624912" rx="85" ry="32" fill="#fff" stroke="#666" stroke-width="2"/>
  <text x="841.8398637933626" y="665.5554348624912" text-anchor="middle" font-family="Microsoft YaHei, SimHei, Arial" font-size="14" fill="#333">跳转链接</text>
  <line x1="611.7450597175347" y1="490.0" x2="714.101685520779" y2="787.7415267123031" stroke="#666" stroke-width="2"/>
  <ellipse cx="690.1544181892575" cy="757.0377515566391" rx="85" ry="32" fill="#fff" stroke="#666" stroke-width="2"/>
  <text x="690.1544181892575" y="763.0377515566391" text-anchor="middle" font-family="Microsoft YaHei, SimHei, Arial" font-size="14" fill="#333">配置排序</text>
  <line x1="588.2549402824653" y1="490.0" x2="485.8983144792211" y2="787.7415267123032" stroke="#666" stroke-width="2"/>
  <ellipse cx="509.8455818107426" cy="757.0377515566393" rx="85" ry="32" fill="#fff" stroke="#666" stroke-width="2"/>
  <text x="509.8455818107426" y="763.0377515566393" text-anchor="middle" font-family="Microsoft YaHei, SimHei, Arial" font-size="14" fill="#333">删除标记</text>
  <line x1="553.8375391786797" y1="490.0" x2="293.9214223865255" y2="680.5109783487403" stroke="#666" stroke-width="2"/>
  <ellipse cx="358.1601362066374" cy="659.5554348624912" rx="85" ry="32" fill="#fff" stroke="#666" stroke-width="2"/>
  <text x="358.1601362066374" y="665.5554348624912" text-anchor="middle" font-family="Microsoft YaHei, SimHei, Arial" font-size="14" fill="#333">创建时间</text>
  <line x1="510.0" y1="462.9400464595476" x2="199.12231603822227" y2="500.09482307219633" stroke="#666" stroke-width="2"/>
  <ellipse cx="283.25713859810156" cy="495.54074824745123" rx="85" ry="32" fill="#fff" stroke="#666" stroke-width="2"/>
  <text x="283.25713859810156" y="501.54074824745123" text-anchor="middle" font-family="Microsoft YaHei, SimHei, Arial" font-size="14" fill="#333">创建人</text>
  <line x1="512.4122174804127" y1="410.0" x2="231.59904188142002" y2="303.77391542333606" stroke="#666" stroke-width="2"/>
  <ellipse cx="308.91776148655407" cy="317.06719583939645" rx="85" ry="32" fill="#fff" stroke="#666" stroke-width="2"/>
  <text x="308.91776148655407" y="323.06719583939645" text-anchor="middle" font-family="Microsoft YaHei, SimHei, Arial" font-size="14" fill="#333">更新时间</text>
  <line x1="574.2935609132668" y1="410.0" x2="381.04046893048303" y2="153.87875644342424" stroke="#666" stroke-width="2"/>
  <ellipse cx="426.99493841420883" cy="180.79886949402203" rx="85" ry="32" fill="#fff" stroke="#666" stroke-width="2"/>
  <text x="426.99493841420883" y="186.79886949402203" text-anchor="middle" font-family="Microsoft YaHei, SimHei, Arial" font-size="14" fill="#333">更新人</text>
</svg>