<?xml version="1.0" encoding="UTF-8"?>
<svg width="1200" height="900" viewBox="0 0 1200 900" xmlns="http://www.w3.org/2000/svg">
  <rect width="1200" height="900" fill="#ffffff"/>
  <rect x="510" y="410" width="180" height="80" fill="#fff" stroke="#333" stroke-width="3"/>
  <text x="600" y="456" text-anchor="middle" font-family="Microsoft YaHei, SimHei, Arial" font-size="18" font-weight="bold" fill="#333">管理员用户表</text>
  <line x1="690" y1="450" x2="800" y2="450" stroke="#666" stroke-width="2"/>
  <ellipse cx="880" cy="450" rx="80" ry="40" fill="#fff" stroke="#666" stroke-width="2"/>
  <text x="880" y="456" text-anchor="middle" font-family="Microsoft YaHei, SimHei, Arial" font-size="14" fill="#333">字段中文名</text>
  <line x1="623.094010767585" y1="490" x2="716.905989232415" y2="652.4871130596428" stroke="#666" stroke-width="2"/>
  <ellipse cx="740" cy="692.4871130596428" rx="80" ry="40" fill="#fff" stroke="#666" stroke-width="2"/>
  <text x="740" y="698.4871130596428" text-anchor="middle" font-family="Microsoft YaHei, SimHei, Arial" font-size="14" fill="#333">管理员编号</text>
  <line x1="576.905989232415" y1="490" x2="483.0940107675851" y2="652.4871130596429" stroke="#666" stroke-width="2"/>
  <ellipse cx="460.00000000000006" cy="692.4871130596429" rx="80" ry="40" fill="#fff" stroke="#666" stroke-width="2"/>
  <text x="460.00000000000006" y="698.4871130596429" text-anchor="middle" font-family="Microsoft YaHei, SimHei, Arial" font-size="14" fill="#333">登录用户名</text>
  <line x1="510" y1="450" x2="400" y2="450.00000000000006" stroke="#666" stroke-width="2"/>
  <ellipse cx="320" cy="450.00000000000006" rx="80" ry="40" fill="#fff" stroke="#666" stroke-width="2"/>
  <text x="320" y="456.00000000000006" text-anchor="middle" font-family="Microsoft YaHei, SimHei, Arial" font-size="14" fill="#333">登录密码</text>
  <line x1="576.905989232415" y1="410" x2="483.09401076758496" y2="247.51288694035722" stroke="#666" stroke-width="2"/>
  <ellipse cx="459.9999999999999" cy="207.51288694035722" rx="80" ry="40" fill="#fff" stroke="#666" stroke-width="2"/>
  <text x="459.9999999999999" y="213.51288694035722" text-anchor="middle" font-family="Microsoft YaHei, SimHei, Arial" font-size="14" fill="#333">昵称</text>
  <line x1="623.094010767585" y1="410" x2="716.9059892324148" y2="247.51288694035708" stroke="#666" stroke-width="2"/>
  <ellipse cx="739.9999999999998" cy="207.51288694035708" rx="80" ry="40" fill="#fff" stroke="#666" stroke-width="2"/>
  <text x="739.9999999999998" y="213.51288694035708" text-anchor="middle" font-family="Microsoft YaHei, SimHei, Arial" font-size="14" fill="#333">锁定状态</text>
</svg>