<?xml version="1.0" encoding="UTF-8"?>
<svg width="1200" height="900" viewBox="0 0 1200 900" xmlns="http://www.w3.org/2000/svg">
  <rect width="1200" height="900" fill="#ffffff"/>
  <rect x="510" y="410" width="180" height="80" fill="#fff" stroke="#333" stroke-width="3"/>
  <text x="600" y="456" text-anchor="middle" font-family="Microsoft YaHei, SimHei, Arial" font-size="18" font-weight="bold" fill="#333">购物车商品表</text>
  <line x1="690" y1="450" x2="800" y2="450" stroke="#666" stroke-width="2"/>
  <ellipse cx="880" cy="450" rx="80" ry="40" fill="#fff" stroke="#666" stroke-width="2"/>
  <text x="880" y="456" text-anchor="middle" font-family="Microsoft YaHei, SimHei, Arial" font-size="14" fill="#333">字段中文名</text>
  <line x1="640" y1="490" x2="757.9898987322333" y2="607.9898987322333" stroke="#666" stroke-width="2"/>
  <ellipse cx="797.9898987322333" cy="647.9898987322333" rx="80" ry="40" fill="#fff" stroke="#666" stroke-width="2"/>
  <text x="797.9898987322333" y="653.9898987322333" text-anchor="middle" font-family="Microsoft YaHei, SimHei, Arial" font-size="14" fill="#333">购物车项编号</text>
  <line x1="600" y1="490" x2="600" y2="690" stroke="#666" stroke-width="2"/>
  <ellipse cx="600" cy="730" rx="80" ry="40" fill="#fff" stroke="#666" stroke-width="2"/>
  <text x="600" y="736" text-anchor="middle" font-family="Microsoft YaHei, SimHei, Arial" font-size="14" fill="#333">用户编号</text>
  <line x1="560" y1="490" x2="442.0101012677667" y2="607.9898987322333" stroke="#666" stroke-width="2"/>
  <ellipse cx="402.0101012677667" cy="647.9898987322333" rx="80" ry="40" fill="#fff" stroke="#666" stroke-width="2"/>
  <text x="402.0101012677667" y="653.9898987322333" text-anchor="middle" font-family="Microsoft YaHei, SimHei, Arial" font-size="14" fill="#333">商品编号</text>
  <line x1="510" y1="450" x2="400" y2="450.00000000000006" stroke="#666" stroke-width="2"/>
  <ellipse cx="320" cy="450.00000000000006" rx="80" ry="40" fill="#fff" stroke="#666" stroke-width="2"/>
  <text x="320" y="456.00000000000006" text-anchor="middle" font-family="Microsoft YaHei, SimHei, Arial" font-size="14" fill="#333">商品数量</text>
  <line x1="560" y1="410" x2="442.0101012677667" y2="292.0101012677667" stroke="#666" stroke-width="2"/>
  <ellipse cx="402.0101012677667" cy="252.01010126776671" rx="80" ry="40" fill="#fff" stroke="#666" stroke-width="2"/>
  <text x="402.0101012677667" y="258.0101012677667" text-anchor="middle" font-family="Microsoft YaHei, SimHei, Arial" font-size="14" fill="#333">删除标记</text>
  <line x1="600" y1="410" x2="600" y2="210" stroke="#666" stroke-width="2"/>
  <ellipse cx="600" cy="170" rx="80" ry="40" fill="#fff" stroke="#666" stroke-width="2"/>
  <text x="600" y="176" text-anchor="middle" font-family="Microsoft YaHei, SimHei, Arial" font-size="14" fill="#333">创建时间</text>
  <line x1="640" y1="410" x2="757.9898987322333" y2="292.0101012677667" stroke="#666" stroke-width="2"/>
  <ellipse cx="797.9898987322333" cy="252.01010126776666" rx="80" ry="40" fill="#fff" stroke="#666" stroke-width="2"/>
  <text x="797.9898987322333" y="258.0101012677667" text-anchor="middle" font-family="Microsoft YaHei, SimHei, Arial" font-size="14" fill="#333">更新时间</text>
</svg>