<?xml version="1.0" encoding="UTF-8"?>
<svg width="1360" height="1360" viewBox="0 0 1360 1360" xmlns="http://www.w3.org/2000/svg">
  <rect width="1360" height="1360" fill="#ffffff"/>
  <rect x="520.0" y="610.0" width="320" height="140" fill="#fff" stroke="#333" stroke-width="5"/>
  <text x="680.0" y="692.0" text-anchor="middle" font-family="Microsoft YaHei, SimHei, Arial" font-size="32" font-weight="bold" fill="#333">订单收货地址表</text>
  <line x1="680.0" y1="610.0" x2="680.0" y2="175.0" stroke="#666" stroke-width="3"/>
  <ellipse cx="680.0" cy="230.0" rx="150" ry="55" fill="#fff" stroke="#666" stroke-width="3"/>
  <text x="680.0" y="238.0" text-anchor="middle" font-family="Microsoft YaHei, SimHei, Arial" font-size="24" fill="#333">订单编号</text>
  <line x1="767.7772236363893" y1="610.0" x2="1149.098889480818" y2="365.13765006133957" stroke="#666" stroke-width="3"/>
  <ellipse cx="1031.8241671106134" cy="399.4295891635699" rx="150" ry="55" fill="#fff" stroke="#666" stroke-width="3"/>
  <text x="1031.8241671106134" y="407.4295891635699" text-anchor="middle" font-family="Microsoft YaHei, SimHei, Arial" font-size="24" fill="#333">收货人姓名</text>
  <line x1="840.0" y1="716.518955902424" x2="1264.9567473090942" y2="792.3730716479388" stroke="#666" stroke-width="3"/>
  <ellipse cx="1118.7175604818206" cy="780.1344202803415" rx="150" ry="55" fill="#fff" stroke="#666" stroke-width="3"/>
  <text x="1118.7175604818206" y="788.1344202803415" text-anchor="middle" font-family="Microsoft YaHei, SimHei, Arial" font-size="24" fill="#333">收货人电话</text>
  <line x1="713.710223316527" y1="750.0" x2="940.3302434705349" y2="1134.9892782907218" stroke="#666" stroke-width="3"/>
  <ellipse cx="875.2476826029012" cy="1085.4359905560887" rx="150" ry="55" fill="#fff" stroke="#666" stroke-width="3"/>
  <text x="875.2476826029012" y="1093.4359905560887" text-anchor="middle" font-family="Microsoft YaHei, SimHei, Arial" font-size="24" fill="#333">省份</text>
  <line x1="646.289776683473" y1="750.0" x2="419.6697565294652" y2="1134.9892782907218" stroke="#666" stroke-width="3"/>
  <ellipse cx="484.75231739709886" cy="1085.4359905560887" rx="150" ry="55" fill="#fff" stroke="#666" stroke-width="3"/>
  <text x="484.75231739709886" y="1093.4359905560887" text-anchor="middle" font-family="Microsoft YaHei, SimHei, Arial" font-size="24" fill="#333">城市</text>
  <line x1="520.0" y1="716.518955902424" x2="95.04325269090583" y2="792.3730716479388" stroke="#666" stroke-width="3"/>
  <ellipse cx="241.2824395181794" cy="780.1344202803415" rx="150" ry="55" fill="#fff" stroke="#666" stroke-width="3"/>
  <text x="241.2824395181794" y="788.1344202803415" text-anchor="middle" font-family="Microsoft YaHei, SimHei, Arial" font-size="24" fill="#333">区县</text>
  <line x1="592.2227763636107" y1="610.0" x2="210.90111051918203" y2="365.1376500613396" stroke="#666" stroke-width="3"/>
  <ellipse cx="328.1758328893865" cy="399.42958916357" rx="150" ry="55" fill="#fff" stroke="#666" stroke-width="3"/>
  <text x="328.1758328893865" y="407.42958916357" text-anchor="middle" font-family="Microsoft YaHei, SimHei, Arial" font-size="24" fill="#333">详细地址</text>
</svg>