<?xml version="1.0" encoding="UTF-8"?>
<svg width="1200" height="900" viewBox="0 0 1200 900" xmlns="http://www.w3.org/2000/svg">
  <rect width="1200" height="900" fill="#ffffff"/>
  <rect x="510.0" y="410.0" width="180" height="80" fill="#fff" stroke="#333" stroke-width="3"/>
  <text x="600.0" y="456.0" text-anchor="middle" font-family="Microsoft YaHei, SimHei, Arial" font-size="18" font-weight="bold" fill="#333">商品分类表</text>
  <line x1="600.0" y1="410.0" x2="600.0" y2="98.0" stroke="#666" stroke-width="2"/>
  <ellipse cx="600.0" cy="130.0" rx="85" ry="32" fill="#fff" stroke="#666" stroke-width="2"/>
  <text x="600.0" y="136.0" text-anchor="middle" font-family="Microsoft YaHei, SimHei, Arial" font-size="14" fill="#333">分类编号</text>
  <line x1="629.0617011202145" y1="410.0" x2="838.0530271784517" y2="165.2260179800185" stroke="#666" stroke-width="2"/>
  <ellipse cx="788.0912807335915" cy="191.11456180001682" rx="85" ry="32" fill="#fff" stroke="#666" stroke-width="2"/>
  <text x="788.0912807335915" y="197.11456180001682" text-anchor="middle" font-family="Microsoft YaHei, SimHei, Arial" font-size="14" fill="#333">分类层级</text>
  <line x1="690.0" y1="420.7572273390384" x2="985.1778890995372" y2="341.2260179800185" stroke="#666" stroke-width="2"/>
  <ellipse cx="904.3380852144492" cy="351.1145618000168" rx="85" ry="32" fill="#fff" stroke="#666" stroke-width="2"/>
  <text x="904.3380852144492" y="357.1145618000168" text-anchor="middle" font-family="Microsoft YaHei, SimHei, Arial" font-size="14" fill="#333">父分类编号</text>
  <line x1="690.0" y1="479.2427726609616" x2="985.1778890995372" y2="558.7739820199814" stroke="#666" stroke-width="2"/>
  <ellipse cx="904.3380852144492" cy="548.8854381999831" rx="85" ry="32" fill="#fff" stroke="#666" stroke-width="2"/>
  <text x="904.3380852144492" y="554.8854381999831" text-anchor="middle" font-family="Microsoft YaHei, SimHei, Arial" font-size="14" fill="#333">分类名称</text>
  <line x1="629.0617011202145" y1="490.0" x2="838.0530271784517" y2="734.7739820199814" stroke="#666" stroke-width="2"/>
  <ellipse cx="788.0912807335915" cy="708.8854381999831" rx="85" ry="32" fill="#fff" stroke="#666" stroke-width="2"/>
  <text x="788.0912807335915" y="714.8854381999831" text-anchor="middle" font-family="Microsoft YaHei, SimHei, Arial" font-size="14" fill="#333">分类排序</text>
  <line x1="600.0" y1="490.0" x2="600.0" y2="802.0" stroke="#666" stroke-width="2"/>
  <ellipse cx="600.0" cy="770.0" rx="85" ry="32" fill="#fff" stroke="#666" stroke-width="2"/>
  <text x="600.0" y="776.0" text-anchor="middle" font-family="Microsoft YaHei, SimHei, Arial" font-size="14" fill="#333">删除标记</text>
  <line x1="570.9382988797855" y1="490.0" x2="361.94697282154846" y2="734.7739820199814" stroke="#666" stroke-width="2"/>
  <ellipse cx="411.90871926640864" cy="708.8854381999831" rx="85" ry="32" fill="#fff" stroke="#666" stroke-width="2"/>
  <text x="411.90871926640864" y="714.8854381999831" text-anchor="middle" font-family="Microsoft YaHei, SimHei, Arial" font-size="14" fill="#333">创建时间</text>
  <line x1="510.0" y1="479.2427726609616" x2="214.82211090046286" y2="558.7739820199815" stroke="#666" stroke-width="2"/>
  <ellipse cx="295.6619147855509" cy="548.8854381999832" rx="85" ry="32" fill="#fff" stroke="#666" stroke-width="2"/>
  <text x="295.6619147855509" y="554.8854381999832" text-anchor="middle" font-family="Microsoft YaHei, SimHei, Arial" font-size="14" fill="#333">创建人</text>
  <line x1="510.0" y1="420.7572273390385" x2="214.8221109004628" y2="341.2260179800185" stroke="#666" stroke-width="2"/>
  <ellipse cx="295.66191478555083" cy="351.1145618000169" rx="85" ry="32" fill="#fff" stroke="#666" stroke-width="2"/>
  <text x="295.66191478555083" y="357.1145618000169" text-anchor="middle" font-family="Microsoft YaHei, SimHei, Arial" font-size="14" fill="#333">更新时间</text>
  <line x1="570.9382988797855" y1="410.0" x2="361.9469728215483" y2="165.22601798001855" stroke="#666" stroke-width="2"/>
  <ellipse cx="411.9087192664085" cy="191.11456180001687" rx="85" ry="32" fill="#fff" stroke="#666" stroke-width="2"/>
  <text x="411.9087192664085" y="197.11456180001687" text-anchor="middle" font-family="Microsoft YaHei, SimHei, Arial" font-size="14" fill="#333">更新人</text>
</svg>