<?xml version="1.0" encoding="UTF-8"?>
<svg width="1200" height="900" viewBox="0 0 1200 900" xmlns="http://www.w3.org/2000/svg">
  <rect width="1200" height="900" fill="#ffffff"/>
  <rect x="510.0" y="410.0" width="180" height="80" fill="#fff" stroke="#333" stroke-width="3"/>
  <text x="600.0" y="456.0" text-anchor="middle" font-family="Microsoft YaHei, SimHei, Arial" font-size="18" font-weight="bold" fill="#333">管理员用户表</text>
  <line x1="600.0" y1="410.0" x2="600.0" y2="168.0" stroke="#666" stroke-width="2"/>
  <ellipse cx="600.0" cy="200.0" rx="85" ry="32" fill="#fff" stroke="#666" stroke-width="2"/>
  <text x="600.0" y="206.0" text-anchor="middle" font-family="Microsoft YaHei, SimHei, Arial" font-size="14" fill="#333">管理员编号</text>
  <line x1="690.0" y1="420.7572273390384" x2="918.6039329588764" y2="362.85720758626485" stroke="#666" stroke-width="2"/>
  <ellipse cx="837.7641290737884" cy="372.74575140626314" rx="85" ry="32" fill="#fff" stroke="#666" stroke-width="2"/>
  <text x="837.7641290737884" y="378.74575140626314" text-anchor="middle" font-family="Microsoft YaHei, SimHei, Arial" font-size="14" fill="#333">登录用户名</text>
  <line x1="629.0617011202145" y1="490.0" x2="796.9080595179785" y2="678.1427924137352" stroke="#666" stroke-width="2"/>
  <ellipse cx="746.9463130731183" cy="652.2542485937369" rx="85" ry="32" fill="#fff" stroke="#666" stroke-width="2"/>
  <text x="746.9463130731183" y="658.2542485937369" text-anchor="middle" font-family="Microsoft YaHei, SimHei, Arial" font-size="14" fill="#333">登录密码</text>
  <line x1="570.9382988797855" y1="490.0" x2="403.0919404820215" y2="678.1427924137352" stroke="#666" stroke-width="2"/>
  <ellipse cx="453.0536869268817" cy="652.2542485937369" rx="85" ry="32" fill="#fff" stroke="#666" stroke-width="2"/>
  <text x="453.0536869268817" y="658.2542485937369" text-anchor="middle" font-family="Microsoft YaHei, SimHei, Arial" font-size="14" fill="#333">昵称</text>
  <line x1="510.0" y1="420.7572273390385" x2="281.39606704112356" y2="362.85720758626485" stroke="#666" stroke-width="2"/>
  <ellipse cx="362.2358709262116" cy="372.7457514062632" rx="85" ry="32" fill="#fff" stroke="#666" stroke-width="2"/>
  <text x="362.2358709262116" y="378.7457514062632" text-anchor="middle" font-family="Microsoft YaHei, SimHei, Arial" font-size="14" fill="#333">锁定状态</text>
</svg>