<?xml version="1.0" encoding="UTF-8"?>
<svg width="1620" height="1620" viewBox="0 0 1620 1620" xmlns="http://www.w3.org/2000/svg">
  <rect width="1620" height="1620" fill="#ffffff"/>
  <rect x="650.0" y="740.0" width="320" height="140" fill="#fff" stroke="#333" stroke-width="5"/>
  <text x="810.0" y="822.0" text-anchor="middle" font-family="Microsoft YaHei, SimHei, Arial" font-size="32" font-weight="bold" fill="#333">用户收货地址表</text>
  <line x1="810.0" y1="740.0" x2="810.0" y2="175.0" stroke="#666" stroke-width="3"/>
  <ellipse cx="810.0" cy="230.0" rx="150" ry="55" fill="#fff" stroke="#666" stroke-width="3"/>
  <text x="810.0" y="238.0" text-anchor="middle" font-family="Microsoft YaHei, SimHei, Arial" font-size="24" fill="#333">地址编号</text>
  <line x1="850.4145188432738" y1="740.0" x2="1175.0" y2="260.0738685968814" stroke="#666" stroke-width="3"/>
  <ellipse cx="1100.0" cy="307.70526580502553" rx="150" ry="55" fill="#fff" stroke="#666" stroke-width="3"/>
  <text x="1100.0" y="315.70526580502553" text-anchor="middle" font-family="Microsoft YaHei, SimHei, Arial" font-size="24" fill="#333">用户编号</text>
  <line x1="931.2435565298214" y1="740.0" x2="1442.1985447626403" y2="492.5" stroke="#666" stroke-width="3"/>
  <ellipse cx="1312.2947341949744" cy="520.0" rx="150" ry="55" fill="#fff" stroke="#666" stroke-width="3"/>
  <text x="1312.2947341949744" y="528.0" text-anchor="middle" font-family="Microsoft YaHei, SimHei, Arial" font-size="24" fill="#333">收货人姓名</text>
  <line x1="970.0" y1="810.0" x2="1540.0" y2="810.0" stroke="#666" stroke-width="3"/>
  <ellipse cx="1390.0" cy="810.0" rx="150" ry="55" fill="#fff" stroke="#666" stroke-width="3"/>
  <text x="1390.0" y="818.0" text-anchor="middle" font-family="Microsoft YaHei, SimHei, Arial" font-size="24" fill="#333">收货人电话</text>
  <line x1="931.2435565298214" y1="880.0" x2="1442.1985447626403" y2="1127.5" stroke="#666" stroke-width="3"/>
  <ellipse cx="1312.2947341949744" cy="1100.0" rx="150" ry="55" fill="#fff" stroke="#666" stroke-width="3"/>
  <text x="1312.2947341949744" y="1108.0" text-anchor="middle" font-family="Microsoft YaHei, SimHei, Arial" font-size="24" fill="#333">默认地址标记</text>
  <line x1="850.4145188432739" y1="880.0" x2="1175.0" y2="1359.9261314031185" stroke="#666" stroke-width="3"/>
  <ellipse cx="1100.0" cy="1312.2947341949744" rx="150" ry="55" fill="#fff" stroke="#666" stroke-width="3"/>
  <text x="1100.0" y="1320.2947341949744" text-anchor="middle" font-family="Microsoft YaHei, SimHei, Arial" font-size="24" fill="#333">省份</text>
  <line x1="810.0" y1="880.0" x2="810.0" y2="1445.0" stroke="#666" stroke-width="3"/>
  <ellipse cx="810.0" cy="1390.0" rx="150" ry="55" fill="#fff" stroke="#666" stroke-width="3"/>
  <text x="810.0" y="1398.0" text-anchor="middle" font-family="Microsoft YaHei, SimHei, Arial" font-size="24" fill="#333">城市</text>
  <line x1="769.5854811567262" y1="880.0" x2="445.0000000000001" y2="1359.9261314031185" stroke="#666" stroke-width="3"/>
  <ellipse cx="520.0000000000001" cy="1312.2947341949744" rx="150" ry="55" fill="#fff" stroke="#666" stroke-width="3"/>
  <text x="520.0000000000001" y="1320.2947341949744" text-anchor="middle" font-family="Microsoft YaHei, SimHei, Arial" font-size="24" fill="#333">区县</text>
  <line x1="688.7564434701787" y1="880.0" x2="177.80145523735993" y2="1127.5000000000002" stroke="#666" stroke-width="3"/>
  <ellipse cx="307.7052658050257" cy="1100.0000000000002" rx="150" ry="55" fill="#fff" stroke="#666" stroke-width="3"/>
  <text x="307.7052658050257" y="1108.0000000000002" text-anchor="middle" font-family="Microsoft YaHei, SimHei, Arial" font-size="24" fill="#333">详细地址</text>
  <line x1="650.0" y1="810.0" x2="80.0" y2="810.0000000000001" stroke="#666" stroke-width="3"/>
  <ellipse cx="230.0" cy="810.0000000000001" rx="150" ry="55" fill="#fff" stroke="#666" stroke-width="3"/>
  <text x="230.0" y="818.0000000000001" text-anchor="middle" font-family="Microsoft YaHei, SimHei, Arial" font-size="24" fill="#333">删除标记</text>
  <line x1="688.7564434701785" y1="740.0" x2="177.8014552373598" y2="492.5" stroke="#666" stroke-width="3"/>
  <ellipse cx="307.7052658050256" cy="520.0" rx="150" ry="55" fill="#fff" stroke="#666" stroke-width="3"/>
  <text x="307.7052658050256" y="528.0" text-anchor="middle" font-family="Microsoft YaHei, SimHei, Arial" font-size="24" fill="#333">创建时间</text>
  <line x1="769.5854811567261" y1="740.0" x2="444.99999999999966" y2="260.07386859688165" stroke="#666" stroke-width="3"/>
  <ellipse cx="519.9999999999998" cy="307.70526580502576" rx="150" ry="55" fill="#fff" stroke="#666" stroke-width="3"/>
  <text x="519.9999999999998" y="315.70526580502576" text-anchor="middle" font-family="Microsoft YaHei, SimHei, Arial" font-size="24" fill="#333">更新时间</text>
</svg>