<?xml version="1.0" encoding="UTF-8"?>
<svg width="1620" height="1620" viewBox="0 0 1620 1620" xmlns="http://www.w3.org/2000/svg">
  <rect width="1620" height="1620" fill="#ffffff"/>
  <rect x="650.0" y="740.0" width="320" height="140" fill="#fff" stroke="#333" stroke-width="5"/>
  <text x="810.0" y="822.0" text-anchor="middle" font-family="Microsoft YaHei, SimHei, Arial" font-size="32" font-weight="bold" fill="#333">首页配置表</text>
  <line x1="810.0" y1="740.0" x2="810.0" y2="175.0" stroke="#666" stroke-width="3"/>
  <ellipse cx="810.0" cy="230.0" rx="150" ry="55" fill="#fff" stroke="#666" stroke-width="3"/>
  <text x="810.0" y="238.0" text-anchor="middle" font-family="Microsoft YaHei, SimHei, Arial" font-size="24" fill="#333">配置编号</text>
  <line x1="854.9862684017833" y1="740.0" x2="1204.6677967425865" y2="275.8040066522" stroke="#666" stroke-width="3"/>
  <ellipse cx="1123.5716741242468" cy="322.07295095791494" rx="150" ry="55" fill="#fff" stroke="#666" stroke-width="3"/>
  <text x="1123.5716741242468" y="330.07295095791494" text-anchor="middle" font-family="Microsoft YaHei, SimHei, Arial" font-size="24" fill="#333">配置名称</text>
  <line x1="963.2786194092778" y1="740.0" x2="1474.0313566087984" y2="546.2114667438021" stroke="#666" stroke-width="3"/>
  <ellipse cx="1337.5865573056208" cy="569.0592924589059" rx="150" ry="55" fill="#fff" stroke="#666" stroke-width="3"/>
  <text x="1337.5865573056208" y="577.0592924589059" text-anchor="middle" font-family="Microsoft YaHei, SimHei, Arial" font-size="24" fill="#333">配置类型</text>
  <line x1="970.0" y1="833.0045270391958" x2="1532.569652573081" y2="900.3699223035361" stroke="#666" stroke-width="3"/>
  <ellipse cx="1384.096436290941" cy="892.5426061985054" rx="150" ry="55" fill="#fff" stroke="#666" stroke-width="3"/>
  <text x="1384.096436290941" y="900.5426061985054" text-anchor="middle" font-family="Microsoft YaHei, SimHei, Arial" font-size="24" fill="#333">商品编号</text>
  <line x1="890.7843064373106" y1="880.0" x2="1361.6971892786087" y2="1225.836566055256" stroke="#666" stroke-width="3"/>
  <ellipse cx="1248.33475312547" cy="1189.8192256882653" rx="150" ry="55" fill="#fff" stroke="#666" stroke-width="3"/>
  <text x="1248.33475312547" y="1197.8192256882653" text-anchor="middle" font-family="Microsoft YaHei, SimHei, Arial" font-size="24" fill="#333">跳转链接</text>
  <line x1="830.5538545056856" y1="880.0" x2="1015.6647664942436" y2="1419.2780382452056" stroke="#666" stroke-width="3"/>
  <ellipse cx="973.4048829680291" cy="1366.5059246964083" rx="150" ry="55" fill="#fff" stroke="#666" stroke-width="3"/>
  <text x="973.4048829680291" y="1374.5059246964083" text-anchor="middle" font-family="Microsoft YaHei, SimHei, Arial" font-size="24" fill="#333">配置排序</text>
  <line x1="789.4461454943144" y1="880.0" x2="604.3352335057565" y2="1419.2780382452058" stroke="#666" stroke-width="3"/>
  <ellipse cx="646.5951170319709" cy="1366.5059246964086" rx="150" ry="55" fill="#fff" stroke="#666" stroke-width="3"/>
  <text x="646.5951170319709" y="1374.5059246964086" text-anchor="middle" font-family="Microsoft YaHei, SimHei, Arial" font-size="24" fill="#333">删除标记</text>
  <line x1="729.2156935626894" y1="880.0" x2="258.30281072139155" y2="1225.836566055256" stroke="#666" stroke-width="3"/>
  <ellipse cx="371.6652468745303" cy="1189.8192256882653" rx="150" ry="55" fill="#fff" stroke="#666" stroke-width="3"/>
  <text x="371.6652468745303" y="1197.8192256882653" text-anchor="middle" font-family="Microsoft YaHei, SimHei, Arial" font-size="24" fill="#333">创建时间</text>
  <line x1="650.0" y1="833.0045270391958" x2="87.43034742691918" y2="900.3699223035361" stroke="#666" stroke-width="3"/>
  <ellipse cx="235.90356370905909" cy="892.5426061985054" rx="150" ry="55" fill="#fff" stroke="#666" stroke-width="3"/>
  <text x="235.90356370905909" y="900.5426061985054" text-anchor="middle" font-family="Microsoft YaHei, SimHei, Arial" font-size="24" fill="#333">创建人</text>
  <line x1="656.7213805907222" y1="740.0" x2="145.96864339120145" y2="546.2114667438024" stroke="#666" stroke-width="3"/>
  <ellipse cx="282.4134426943792" cy="569.059292458906" rx="150" ry="55" fill="#fff" stroke="#666" stroke-width="3"/>
  <text x="282.4134426943792" y="577.059292458906" text-anchor="middle" font-family="Microsoft YaHei, SimHei, Arial" font-size="24" fill="#333">更新时间</text>
  <line x1="765.0137315982169" y1="740.0" x2="415.3322032574139" y2="275.8040066521999" stroke="#666" stroke-width="3"/>
  <ellipse cx="496.4283258757535" cy="322.0729509579149" rx="150" ry="55" fill="#fff" stroke="#666" stroke-width="3"/>
  <text x="496.4283258757535" y="330.0729509579149" text-anchor="middle" font-family="Microsoft YaHei, SimHei, Arial" font-size="24" fill="#333">更新人</text>
</svg>