<?xml version="1.0" encoding="UTF-8"?>
<svg width="1200" height="900" viewBox="0 0 1200 900" xmlns="http://www.w3.org/2000/svg">
  <rect width="1200" height="900" fill="#ffffff"/>
  <rect x="510" y="410" width="180" height="80" fill="#fff" stroke="#333" stroke-width="3"/>
  <text x="600" y="456" text-anchor="middle" font-family="Microsoft YaHei, SimHei, Arial" font-size="18" font-weight="bold" fill="#333">首页配置表</text>
  <line x1="690" y1="450" x2="800" y2="450" stroke="#666" stroke-width="2"/>
  <ellipse cx="880" cy="450" rx="80" ry="40" fill="#fff" stroke="#666" stroke-width="2"/>
  <text x="880" y="456" text-anchor="middle" font-family="Microsoft YaHei, SimHei, Arial" font-size="14" fill="#333">字段中文名</text>
  <line x1="669.282032302755" y1="490" x2="773.2050807568878" y2="550" stroke="#666" stroke-width="2"/>
  <ellipse cx="842.4871130596429" cy="590" rx="80" ry="40" fill="#fff" stroke="#666" stroke-width="2"/>
  <text x="842.4871130596429" y="596" text-anchor="middle" font-family="Microsoft YaHei, SimHei, Arial" font-size="14" fill="#333">配置编号</text>
  <line x1="623.094010767585" y1="490" x2="716.905989232415" y2="652.4871130596428" stroke="#666" stroke-width="2"/>
  <ellipse cx="740" cy="692.4871130596428" rx="80" ry="40" fill="#fff" stroke="#666" stroke-width="2"/>
  <text x="740" y="698.4871130596428" text-anchor="middle" font-family="Microsoft YaHei, SimHei, Arial" font-size="14" fill="#333">配置名称</text>
  <line x1="600" y1="490" x2="600" y2="690" stroke="#666" stroke-width="2"/>
  <ellipse cx="600" cy="730" rx="80" ry="40" fill="#fff" stroke="#666" stroke-width="2"/>
  <text x="600" y="736" text-anchor="middle" font-family="Microsoft YaHei, SimHei, Arial" font-size="14" fill="#333">配置类型</text>
  <line x1="576.905989232415" y1="490" x2="483.0940107675851" y2="652.4871130596429" stroke="#666" stroke-width="2"/>
  <ellipse cx="460.00000000000006" cy="692.4871130596429" rx="80" ry="40" fill="#fff" stroke="#666" stroke-width="2"/>
  <text x="460.00000000000006" y="698.4871130596429" text-anchor="middle" font-family="Microsoft YaHei, SimHei, Arial" font-size="14" fill="#333">商品编号</text>
  <line x1="530.717967697245" y1="490" x2="426.79491924311225" y2="550.0000000000001" stroke="#666" stroke-width="2"/>
  <ellipse cx="357.51288694035725" cy="590.0000000000001" rx="80" ry="40" fill="#fff" stroke="#666" stroke-width="2"/>
  <text x="357.51288694035725" y="596.0000000000001" text-anchor="middle" font-family="Microsoft YaHei, SimHei, Arial" font-size="14" fill="#333">跳转链接</text>
  <line x1="510" y1="450" x2="400" y2="450.00000000000006" stroke="#666" stroke-width="2"/>
  <ellipse cx="320" cy="450.00000000000006" rx="80" ry="40" fill="#fff" stroke="#666" stroke-width="2"/>
  <text x="320" y="456.00000000000006" text-anchor="middle" font-family="Microsoft YaHei, SimHei, Arial" font-size="14" fill="#333">配置排序</text>
  <line x1="530.7179676972448" y1="410" x2="426.7949192431123" y2="350.0000000000001" stroke="#666" stroke-width="2"/>
  <ellipse cx="357.51288694035713" cy="310.0000000000001" rx="80" ry="40" fill="#fff" stroke="#666" stroke-width="2"/>
  <text x="357.51288694035713" y="316.0000000000001" text-anchor="middle" font-family="Microsoft YaHei, SimHei, Arial" font-size="14" fill="#333">删除标记</text>
  <line x1="576.905989232415" y1="410" x2="483.09401076758496" y2="247.51288694035722" stroke="#666" stroke-width="2"/>
  <ellipse cx="459.9999999999999" cy="207.51288694035722" rx="80" ry="40" fill="#fff" stroke="#666" stroke-width="2"/>
  <text x="459.9999999999999" y="213.51288694035722" text-anchor="middle" font-family="Microsoft YaHei, SimHei, Arial" font-size="14" fill="#333">创建时间</text>
  <line x1="600" y1="410" x2="600" y2="210" stroke="#666" stroke-width="2"/>
  <ellipse cx="600" cy="170" rx="80" ry="40" fill="#fff" stroke="#666" stroke-width="2"/>
  <text x="600" y="176" text-anchor="middle" font-family="Microsoft YaHei, SimHei, Arial" font-size="14" fill="#333">创建人</text>
  <line x1="623.094010767585" y1="410" x2="716.9059892324148" y2="247.51288694035708" stroke="#666" stroke-width="2"/>
  <ellipse cx="739.9999999999998" cy="207.51288694035708" rx="80" ry="40" fill="#fff" stroke="#666" stroke-width="2"/>
  <text x="739.9999999999998" y="213.51288694035708" text-anchor="middle" font-family="Microsoft YaHei, SimHei, Arial" font-size="14" fill="#333">更新时间</text>
  <line x1="669.282032302755" y1="410" x2="773.2050807568877" y2="349.9999999999999" stroke="#666" stroke-width="2"/>
  <ellipse cx="842.4871130596428" cy="309.9999999999999" rx="80" ry="40" fill="#fff" stroke="#666" stroke-width="2"/>
  <text x="842.4871130596428" y="315.9999999999999" text-anchor="middle" font-family="Microsoft YaHei, SimHei, Arial" font-size="14" fill="#333">更新人</text>
</svg>