<?xml version="1.0" encoding="UTF-8"?>
<svg width="1360" height="1360" viewBox="0 0 1360 1360" xmlns="http://www.w3.org/2000/svg">
  <rect width="1360" height="1360" fill="#ffffff"/>
  <rect x="520.0" y="610.0" width="320" height="140" fill="#fff" stroke="#333" stroke-width="5"/>
  <text x="680.0" y="692.0" text-anchor="middle" font-family="Microsoft YaHei, SimHei, Arial" font-size="32" font-weight="bold" fill="#333">订单商品明细表</text>
  <line x1="680.0" y1="610.0" x2="680.0" y2="175.0" stroke="#666" stroke-width="3"/>
  <ellipse cx="680.0" cy="230.0" rx="150" ry="55" fill="#fff" stroke="#666" stroke-width="3"/>
  <text x="680.0" y="238.0" text-anchor="middle" font-family="Microsoft YaHei, SimHei, Arial" font-size="24" fill="#333">订单商品编号</text>
  <line x1="750.0" y1="610.0" x2="1104.2640687119285" y2="322.9110755007936" stroke="#666" stroke-width="3"/>
  <ellipse cx="998.1980515339465" cy="361.80194846605366" rx="150" ry="55" fill="#fff" stroke="#666" stroke-width="3"/>
  <text x="998.1980515339465" y="369.80194846605366" text-anchor="middle" font-family="Microsoft YaHei, SimHei, Arial" font-size="24" fill="#333">订单编号</text>
  <line x1="840.0" y1="680.0" x2="1280.0" y2="680.0" stroke="#666" stroke-width="3"/>
  <ellipse cx="1130.0" cy="680.0" rx="150" ry="55" fill="#fff" stroke="#666" stroke-width="3"/>
  <text x="1130.0" y="688.0" text-anchor="middle" font-family="Microsoft YaHei, SimHei, Arial" font-size="24" fill="#333">商品编号</text>
  <line x1="750.0" y1="750.0" x2="1104.2640687119285" y2="1037.0889244992065" stroke="#666" stroke-width="3"/>
  <ellipse cx="998.1980515339465" cy="998.1980515339463" rx="150" ry="55" fill="#fff" stroke="#666" stroke-width="3"/>
  <text x="998.1980515339465" y="1006.1980515339463" text-anchor="middle" font-family="Microsoft YaHei, SimHei, Arial" font-size="24" fill="#333">商品名称</text>
  <line x1="680.0" y1="750.0" x2="680.0" y2="1185.0" stroke="#666" stroke-width="3"/>
  <ellipse cx="680.0" cy="1130.0" rx="150" ry="55" fill="#fff" stroke="#666" stroke-width="3"/>
  <text x="680.0" y="1138.0" text-anchor="middle" font-family="Microsoft YaHei, SimHei, Arial" font-size="24" fill="#333">商品封面图</text>
  <line x1="610.0" y1="750.0" x2="255.73593128807153" y2="1037.0889244992065" stroke="#666" stroke-width="3"/>
  <ellipse cx="361.80194846605366" cy="998.1980515339465" rx="150" ry="55" fill="#fff" stroke="#666" stroke-width="3"/>
  <text x="361.80194846605366" y="1006.1980515339465" text-anchor="middle" font-family="Microsoft YaHei, SimHei, Arial" font-size="24" fill="#333">销售价</text>
  <line x1="520.0" y1="680.0" x2="80.0" y2="680.0" stroke="#666" stroke-width="3"/>
  <ellipse cx="230.0" cy="680.0" rx="150" ry="55" fill="#fff" stroke="#666" stroke-width="3"/>
  <text x="230.0" y="688.0" text-anchor="middle" font-family="Microsoft YaHei, SimHei, Arial" font-size="24" fill="#333">购买数量</text>
  <line x1="610.0" y1="610.0" x2="255.73593128807136" y2="322.9110755007936" stroke="#666" stroke-width="3"/>
  <ellipse cx="361.80194846605355" cy="361.80194846605366" rx="150" ry="55" fill="#fff" stroke="#666" stroke-width="3"/>
  <text x="361.80194846605355" y="369.80194846605366" text-anchor="middle" font-family="Microsoft YaHei, SimHei, Arial" font-size="24" fill="#333">创建时间</text>
</svg>