<?xml version="1.0" encoding="UTF-8"?>
<svg width="1200" height="900" viewBox="0 0 1200 900" xmlns="http://www.w3.org/2000/svg">
  <rect width="1200" height="900" fill="#ffffff"/>
  <rect x="510" y="410" width="180" height="80" fill="#fff" stroke="#333" stroke-width="3"/>
  <text x="600" y="456" text-anchor="middle" font-family="Microsoft YaHei, SimHei, Arial" font-size="18" font-weight="bold" fill="#333">轮播图配置表</text>
  <line x1="690" y1="450" x2="800" y2="450" stroke="#666" stroke-width="2"/>
  <ellipse cx="880" cy="450" rx="80" ry="40" fill="#fff" stroke="#666" stroke-width="2"/>
  <text x="880" y="456" text-anchor="middle" font-family="Microsoft YaHei, SimHei, Arial" font-size="14" fill="#333">字段中文名</text>
  <line x1="655.0552768188469" y1="490" x2="771.4694816061384" y2="574.5798706418925" stroke="#666" stroke-width="2"/>
  <ellipse cx="826.5247584249853" cy="614.5798706418925" rx="80" ry="40" fill="#fff" stroke="#666" stroke-width="2"/>
  <text x="826.5247584249853" y="620.5798706418925" text-anchor="middle" font-family="Microsoft YaHei, SimHei, Arial" font-size="14" fill="#333">轮播图编号</text>
  <line x1="612.9967878493162" y1="490" x2="673.5279705756691" y2="676.295824562643" stroke="#666" stroke-width="2"/>
  <ellipse cx="686.5247584249853" cy="716.295824562643" rx="80" ry="40" fill="#fff" stroke="#666" stroke-width="2"/>
  <text x="686.5247584249853" y="722.295824562643" text-anchor="middle" font-family="Microsoft YaHei, SimHei, Arial" font-size="14" fill="#333">轮播图图片URL</text>
  <line x1="587.0032121506838" y1="490" x2="526.4720294243309" y2="676.295824562643" stroke="#666" stroke-width="2"/>
  <ellipse cx="513.4752415750147" cy="716.295824562643" rx="80" ry="40" fill="#fff" stroke="#666" stroke-width="2"/>
  <text x="513.4752415750147" y="722.295824562643" text-anchor="middle" font-family="Microsoft YaHei, SimHei, Arial" font-size="14" fill="#333">跳转链接</text>
  <line x1="544.9447231811531" y1="490" x2="428.53051839386166" y2="574.5798706418925" stroke="#666" stroke-width="2"/>
  <ellipse cx="373.4752415750147" cy="614.5798706418925" rx="80" ry="40" fill="#fff" stroke="#666" stroke-width="2"/>
  <text x="373.4752415750147" y="620.5798706418925" text-anchor="middle" font-family="Microsoft YaHei, SimHei, Arial" font-size="14" fill="#333">轮播图排序</text>
  <line x1="510" y1="450" x2="400" y2="450.00000000000006" stroke="#666" stroke-width="2"/>
  <ellipse cx="320" cy="450.00000000000006" rx="80" ry="40" fill="#fff" stroke="#666" stroke-width="2"/>
  <text x="320" y="456.00000000000006" text-anchor="middle" font-family="Microsoft YaHei, SimHei, Arial" font-size="14" fill="#333">删除标记</text>
  <line x1="544.944723181153" y1="410" x2="428.53051839386166" y2="325.42012935810754" stroke="#666" stroke-width="2"/>
  <ellipse cx="373.4752415750147" cy="285.42012935810754" rx="80" ry="40" fill="#fff" stroke="#666" stroke-width="2"/>
  <text x="373.4752415750147" y="291.42012935810754" text-anchor="middle" font-family="Microsoft YaHei, SimHei, Arial" font-size="14" fill="#333">创建时间</text>
  <line x1="587.0032121506838" y1="410" x2="526.4720294243309" y2="223.70417543735704" stroke="#666" stroke-width="2"/>
  <ellipse cx="513.4752415750147" cy="183.70417543735704" rx="80" ry="40" fill="#fff" stroke="#666" stroke-width="2"/>
  <text x="513.4752415750147" y="189.70417543735704" text-anchor="middle" font-family="Microsoft YaHei, SimHei, Arial" font-size="14" fill="#333">创建人</text>
  <line x1="612.9967878493162" y1="410" x2="673.527970575669" y2="223.70417543735698" stroke="#666" stroke-width="2"/>
  <ellipse cx="686.5247584249852" cy="183.70417543735698" rx="80" ry="40" fill="#fff" stroke="#666" stroke-width="2"/>
  <text x="686.5247584249852" y="189.70417543735698" text-anchor="middle" font-family="Microsoft YaHei, SimHei, Arial" font-size="14" fill="#333">更新时间</text>
  <line x1="655.0552768188469" y1="410" x2="771.4694816061384" y2="325.4201293581075" stroke="#666" stroke-width="2"/>
  <ellipse cx="826.5247584249853" cy="285.4201293581075" rx="80" ry="40" fill="#fff" stroke="#666" stroke-width="2"/>
  <text x="826.5247584249853" y="291.4201293581075" text-anchor="middle" font-family="Microsoft YaHei, SimHei, Arial" font-size="14" fill="#333">更新人</text>
</svg>