<?xml version="1.0" encoding="UTF-8"?>
<svg width="1200" height="900" viewBox="0 0 1200 900" xmlns="http://www.w3.org/2000/svg">
  <rect width="1200" height="900" fill="#ffffff"/>
  <rect x="510" y="410" width="180" height="80" fill="#fff" stroke="#333" stroke-width="3"/>
  <text x="600" y="456" text-anchor="middle" font-family="Microsoft YaHei, SimHei, Arial" font-size="18" font-weight="bold" fill="#333">会员卡表</text>
  <line x1="690" y1="450" x2="800" y2="450" stroke="#666" stroke-width="2"/>
  <ellipse cx="880" cy="450" rx="80" ry="40" fill="#fff" stroke="#666" stroke-width="2"/>
  <text x="880" y="456" text-anchor="middle" font-family="Microsoft YaHei, SimHei, Arial" font-size="14" fill="#333">字段中文名</text>
  <line x1="690" y1="487.27922061357856" x2="778.6862691031603" y2="524.0142760723775" stroke="#666" stroke-width="2"/>
  <ellipse cx="858.6862691031603" cy="557.1513610622251" rx="80" ry="40" fill="#fff" stroke="#666" stroke-width="2"/>
  <text x="858.6862691031603" y="563.1513610622251" text-anchor="middle" font-family="Microsoft YaHei, SimHei, Arial" font-size="14" fill="#333">编号</text>
  <line x1="640" y1="490" x2="757.9898987322333" y2="607.9898987322333" stroke="#666" stroke-width="2"/>
  <ellipse cx="797.9898987322333" cy="647.9898987322333" rx="80" ry="40" fill="#fff" stroke="#666" stroke-width="2"/>
  <text x="797.9898987322333" y="653.9898987322333" text-anchor="middle" font-family="Microsoft YaHei, SimHei, Arial" font-size="14" fill="#333">用户编号</text>
  <line x1="616.5685424949238" y1="490" x2="690.5828185673014" y2="668.6862691031603" stroke="#666" stroke-width="2"/>
  <ellipse cx="707.1513610622252" cy="708.6862691031603" rx="80" ry="40" fill="#fff" stroke="#666" stroke-width="2"/>
  <text x="707.1513610622252" y="714.6862691031603" text-anchor="middle" font-family="Microsoft YaHei, SimHei, Arial" font-size="14" fill="#333">卡类型</text>
  <line x1="600" y1="490" x2="600" y2="690" stroke="#666" stroke-width="2"/>
  <ellipse cx="600" cy="730" rx="80" ry="40" fill="#fff" stroke="#666" stroke-width="2"/>
  <text x="600" y="736" text-anchor="middle" font-family="Microsoft YaHei, SimHei, Arial" font-size="14" fill="#333">卡名称</text>
  <line x1="583.4314575050762" y1="490" x2="509.41718143269867" y2="668.6862691031603" stroke="#666" stroke-width="2"/>
  <ellipse cx="492.84863893777487" cy="708.6862691031603" rx="80" ry="40" fill="#fff" stroke="#666" stroke-width="2"/>
  <text x="492.84863893777487" y="714.6862691031603" text-anchor="middle" font-family="Microsoft YaHei, SimHei, Arial" font-size="14" fill="#333">总次数</text>
  <line x1="560" y1="490" x2="442.0101012677667" y2="607.9898987322333" stroke="#666" stroke-width="2"/>
  <ellipse cx="402.0101012677667" cy="647.9898987322333" rx="80" ry="40" fill="#fff" stroke="#666" stroke-width="2"/>
  <text x="402.0101012677667" y="653.9898987322333" text-anchor="middle" font-family="Microsoft YaHei, SimHei, Arial" font-size="14" fill="#333">剩余次数</text>
  <line x1="510" y1="487.27922061357856" x2="421.31373089683973" y2="524.0142760723776" stroke="#666" stroke-width="2"/>
  <ellipse cx="341.31373089683973" cy="557.1513610622252" rx="80" ry="40" fill="#fff" stroke="#666" stroke-width="2"/>
  <text x="341.31373089683973" y="563.1513610622252" text-anchor="middle" font-family="Microsoft YaHei, SimHei, Arial" font-size="14" fill="#333">生效日期</text>
  <line x1="510" y1="450" x2="400" y2="450.00000000000006" stroke="#666" stroke-width="2"/>
  <ellipse cx="320" cy="450.00000000000006" rx="80" ry="40" fill="#fff" stroke="#666" stroke-width="2"/>
  <text x="320" y="456.00000000000006" text-anchor="middle" font-family="Microsoft YaHei, SimHei, Arial" font-size="14" fill="#333">到期日期</text>
  <line x1="510" y1="412.72077938642144" x2="421.3137308968397" y2="375.98572392762253" stroke="#666" stroke-width="2"/>
  <ellipse cx="341.3137308968397" cy="342.8486389377749" rx="80" ry="40" fill="#fff" stroke="#666" stroke-width="2"/>
  <text x="341.3137308968397" y="348.8486389377749" text-anchor="middle" font-family="Microsoft YaHei, SimHei, Arial" font-size="14" fill="#333">购买价格</text>
  <line x1="560" y1="410" x2="442.0101012677667" y2="292.0101012677667" stroke="#666" stroke-width="2"/>
  <ellipse cx="402.0101012677667" cy="252.01010126776671" rx="80" ry="40" fill="#fff" stroke="#666" stroke-width="2"/>
  <text x="402.0101012677667" y="258.0101012677667" text-anchor="middle" font-family="Microsoft YaHei, SimHei, Arial" font-size="14" fill="#333">状态</text>
  <line x1="583.4314575050762" y1="410" x2="509.4171814326985" y2="231.3137308968398" stroke="#666" stroke-width="2"/>
  <ellipse cx="492.8486389377747" cy="191.3137308968398" rx="80" ry="40" fill="#fff" stroke="#666" stroke-width="2"/>
  <text x="492.8486389377747" y="197.3137308968398" text-anchor="middle" font-family="Microsoft YaHei, SimHei, Arial" font-size="14" fill="#333">购买时间</text>
  <line x1="600" y1="410" x2="600" y2="210" stroke="#666" stroke-width="2"/>
  <ellipse cx="600" cy="170" rx="80" ry="40" fill="#fff" stroke="#666" stroke-width="2"/>
  <text x="600" y="176" text-anchor="middle" font-family="Microsoft YaHei, SimHei, Arial" font-size="14" fill="#333">备注</text>
  <line x1="616.5685424949238" y1="410" x2="690.5828185673014" y2="231.31373089683973" stroke="#666" stroke-width="2"/>
  <ellipse cx="707.1513610622252" cy="191.31373089683973" rx="80" ry="40" fill="#fff" stroke="#666" stroke-width="2"/>
  <text x="707.1513610622252" y="197.31373089683973" text-anchor="middle" font-family="Microsoft YaHei, SimHei, Arial" font-size="14" fill="#333">创建时间</text>
  <line x1="640" y1="410" x2="757.9898987322333" y2="292.0101012677667" stroke="#666" stroke-width="2"/>
  <ellipse cx="797.9898987322333" cy="252.01010126776666" rx="80" ry="40" fill="#fff" stroke="#666" stroke-width="2"/>
  <text x="797.9898987322333" y="258.0101012677667" text-anchor="middle" font-family="Microsoft YaHei, SimHei, Arial" font-size="14" fill="#333">更新时间</text>
  <line x1="690" y1="412.7207793864214" x2="778.6862691031602" y2="375.98572392762236" stroke="#666" stroke-width="2"/>
  <ellipse cx="858.6862691031602" cy="342.8486389377747" rx="80" ry="40" fill="#fff" stroke="#666" stroke-width="2"/>
  <text x="858.6862691031602" y="348.8486389377747" text-anchor="middle" font-family="Microsoft YaHei, SimHei, Arial" font-size="14" fill="#333">是否删除</text>
</svg>