<?xml version="1.0" encoding="UTF-8"?>
<svg width="1200" height="900" viewBox="0 0 1200 900" xmlns="http://www.w3.org/2000/svg">
  <rect width="1200" height="900" fill="#ffffff"/>
  <rect x="510.0" y="410.0" width="180" height="80" fill="#fff" stroke="#333" stroke-width="3"/>
  <text x="600.0" y="456.0" text-anchor="middle" font-family="Microsoft YaHei, SimHei, Arial" font-size="18" font-weight="bold" fill="#333">首页配置表</text>
  <line x1="600.0" y1="410.0" x2="600.0" y2="155.0" stroke="#666" stroke-width="2"/>
  <ellipse cx="600.0" cy="190.0" rx="90" ry="35" fill="#fff" stroke="#666" stroke-width="2"/>
  <text x="600.0" y="196.0" text-anchor="middle" font-family="Microsoft YaHei, SimHei, Arial" font-size="14" fill="#333">配置编号</text>
  <line x1="625.7064390867332" y1="410.0" x2="789.2242861094592" y2="201.83020781480158" stroke="#666" stroke-width="2"/>
  <ellipse cx="740.5666125384554" cy="231.2740814638929" rx="90" ry="35" fill="#fff" stroke="#666" stroke-width="2"/>
  <text x="740.5666125384554" y="237.2740814638929" text-anchor="middle" font-family="Microsoft YaHei, SimHei, Arial" font-size="14" fill="#333">配置名称</text>
  <line x1="687.5877825195872" y1="410.0" x2="918.3711983740815" y2="327.4525711644435" stroke="#666" stroke-width="2"/>
  <ellipse cx="836.5043187921748" cy="341.99209661950954" rx="90" ry="35" fill="#fff" stroke="#666" stroke-width="2"/>
  <text x="836.5043187921748" y="347.99209661950954" text-anchor="middle" font-family="Microsoft YaHei, SimHei, Arial" font-size="14" fill="#333">配置类型</text>
  <line x1="690.0" y1="462.9400464595476" x2="946.4375046583265" y2="491.98287729061906" stroke="#666" stroke-width="2"/>
  <ellipse cx="857.3535748890425" cy="487.0018579510541" rx="90" ry="35" fill="#fff" stroke="#666" stroke-width="2"/>
  <text x="857.3535748890425" y="493.0018579510541" text-anchor="middle" font-family="Microsoft YaHei, SimHei, Arial" font-size="14" fill="#333">商品编号</text>
  <line x1="646.1624608213203" y1="490.0" x2="864.5123510239904" y2="643.1839165138591" stroke="#666" stroke-width="2"/>
  <ellipse cx="796.4948893321072" cy="620.2637908257741" rx="90" ry="35" fill="#fff" stroke="#666" stroke-width="2"/>
  <text x="796.4948893321072" y="626.2637908257741" text-anchor="middle" font-family="Microsoft YaHei, SimHei, Arial" font-size="14" fill="#333">跳转链接</text>
  <line x1="611.7450597175347" y1="490.0" x2="698.6063948945005" y2="733.0504272162767" stroke="#666" stroke-width="2"/>
  <ellipse cx="673.2504647787717" cy="699.4681731397693" rx="90" ry="35" fill="#fff" stroke="#666" stroke-width="2"/>
  <text x="673.2504647787717" y="705.4681731397693" text-anchor="middle" font-family="Microsoft YaHei, SimHei, Arial" font-size="14" fill="#333">配置排序</text>
  <line x1="588.2549402824653" y1="490.0" x2="501.3936051054997" y2="733.0504272162767" stroke="#666" stroke-width="2"/>
  <ellipse cx="526.7495352212284" cy="699.4681731397693" rx="90" ry="35" fill="#fff" stroke="#666" stroke-width="2"/>
  <text x="526.7495352212284" y="705.4681731397693" text-anchor="middle" font-family="Microsoft YaHei, SimHei, Arial" font-size="14" fill="#333">删除标记</text>
  <line x1="553.8375391786797" y1="490.0" x2="335.48764897600967" y2="643.1839165138591" stroke="#666" stroke-width="2"/>
  <ellipse cx="403.5051106678929" cy="620.2637908257741" rx="90" ry="35" fill="#fff" stroke="#666" stroke-width="2"/>
  <text x="403.5051106678929" y="626.2637908257741" text-anchor="middle" font-family="Microsoft YaHei, SimHei, Arial" font-size="14" fill="#333">创建时间</text>
  <line x1="510.0" y1="462.9400464595476" x2="253.56249534167358" y2="491.9828772906191" stroke="#666" stroke-width="2"/>
  <ellipse cx="342.6464251109575" cy="487.00185795105415" rx="90" ry="35" fill="#fff" stroke="#666" stroke-width="2"/>
  <text x="342.6464251109575" y="493.00185795105415" text-anchor="middle" font-family="Microsoft YaHei, SimHei, Arial" font-size="14" fill="#333">创建人</text>
  <line x1="512.4122174804127" y1="410.0" x2="281.6288016259185" y2="327.45257116444355" stroke="#666" stroke-width="2"/>
  <ellipse cx="363.4956812078252" cy="341.9920966195096" rx="90" ry="35" fill="#fff" stroke="#666" stroke-width="2"/>
  <text x="363.4956812078252" y="347.9920966195096" text-anchor="middle" font-family="Microsoft YaHei, SimHei, Arial" font-size="14" fill="#333">更新时间</text>
  <line x1="574.2935609132668" y1="410.0" x2="410.7757138905409" y2="201.83020781480155" stroke="#666" stroke-width="2"/>
  <ellipse cx="459.43338746154467" cy="231.27408146389288" rx="90" ry="35" fill="#fff" stroke="#666" stroke-width="2"/>
  <text x="459.43338746154467" y="237.27408146389288" text-anchor="middle" font-family="Microsoft YaHei, SimHei, Arial" font-size="14" fill="#333">更新人</text>
</svg>