<?xml version="1.0" encoding="UTF-8"?>
<svg width="1200" height="900" viewBox="0 0 1200 900" xmlns="http://www.w3.org/2000/svg">
  <rect width="1200" height="900" fill="#ffffff"/>
  <rect x="510.0" y="410.0" width="180" height="80" fill="#fff" stroke="#333" stroke-width="3"/>
  <text x="600.0" y="456.0" text-anchor="middle" font-family="Microsoft YaHei, SimHei, Arial" font-size="18" font-weight="bold" fill="#333">轮播图配置表</text>
  <line x1="600.0" y1="410.0" x2="600.0" y2="155.0" stroke="#666" stroke-width="2"/>
  <ellipse cx="600.0" cy="190.0" rx="90" ry="35" fill="#fff" stroke="#666" stroke-width="2"/>
  <text x="600.0" y="196.0" text-anchor="middle" font-family="Microsoft YaHei, SimHei, Arial" font-size="14" fill="#333">轮播图编号</text>
  <line x1="633.5639852470912" y1="410.0" x2="824.9756633902887" y2="224.01688927990148" stroke="#666" stroke-width="2"/>
  <ellipse cx="767.1247785185002" cy="250.8284447890657" rx="90" ry="35" fill="#fff" stroke="#666" stroke-width="2"/>
  <text x="767.1247785185002" y="256.8284447890657" text-anchor="middle" font-family="Microsoft YaHei, SimHei, Arial" font-size="14" fill="#333">轮播图图片URL</text>
  <line x1="690.0" y1="434.13057173623815" x2="944.6827135542728" y2="398.7737875882556" stroke="#666" stroke-width="2"/>
  <ellipse cx="856.0500157831741" cy="404.8514738065981" rx="90" ry="35" fill="#fff" stroke="#666" stroke-width="2"/>
  <text x="856.0500157831741" y="410.8514738065981" text-anchor="middle" font-family="Microsoft YaHei, SimHei, Arial" font-size="14" fill="#333">跳转链接</text>
  <line x1="669.2820323027552" y1="490.0" x2="903.1088913245536" y2="597.5" stroke="#666" stroke-width="2"/>
  <ellipse cx="825.1666049839541" cy="580.0" rx="90" ry="35" fill="#fff" stroke="#666" stroke-width="2"/>
  <text x="825.1666049839541" y="586.0" text-anchor="middle" font-family="Microsoft YaHei, SimHei, Arial" font-size="14" fill="#333">轮播图排序</text>
  <line x1="614.5588093706481" y1="490.0" x2="719.7070501639841" y2="727.209323131843" stroke="#666" stroke-width="2"/>
  <ellipse cx="688.9252372646739" cy="694.3200814043362" rx="90" ry="35" fill="#fff" stroke="#666" stroke-width="2"/>
  <text x="688.9252372646739" y="700.3200814043362" text-anchor="middle" font-family="Microsoft YaHei, SimHei, Arial" font-size="14" fill="#333">删除标记</text>
  <line x1="585.4411906293519" y1="490.0" x2="480.29294983601596" y2="727.209323131843" stroke="#666" stroke-width="2"/>
  <ellipse cx="511.07476273532615" cy="694.3200814043362" rx="90" ry="35" fill="#fff" stroke="#666" stroke-width="2"/>
  <text x="511.07476273532615" y="700.3200814043362" text-anchor="middle" font-family="Microsoft YaHei, SimHei, Arial" font-size="14" fill="#333">创建时间</text>
  <line x1="530.717967697245" y1="490.0" x2="296.8911086754465" y2="597.5000000000001" stroke="#666" stroke-width="2"/>
  <ellipse cx="374.833395016046" cy="580.0000000000001" rx="90" ry="35" fill="#fff" stroke="#666" stroke-width="2"/>
  <text x="374.833395016046" y="586.0000000000001" text-anchor="middle" font-family="Microsoft YaHei, SimHei, Arial" font-size="14" fill="#333">创建人</text>
  <line x1="510.0" y1="434.13057173623815" x2="255.31728644572718" y2="398.77378758825563" stroke="#666" stroke-width="2"/>
  <ellipse cx="343.9499842168259" cy="404.85147380659816" rx="90" ry="35" fill="#fff" stroke="#666" stroke-width="2"/>
  <text x="343.9499842168259" y="410.85147380659816" text-anchor="middle" font-family="Microsoft YaHei, SimHei, Arial" font-size="14" fill="#333">更新时间</text>
  <line x1="566.4360147529088" y1="410.0" x2="375.02433660971116" y2="224.01688927990153" stroke="#666" stroke-width="2"/>
  <ellipse cx="432.87522148149975" cy="250.82844478906574" rx="90" ry="35" fill="#fff" stroke="#666" stroke-width="2"/>
  <text x="432.87522148149975" y="256.82844478906577" text-anchor="middle" font-family="Microsoft YaHei, SimHei, Arial" font-size="14" fill="#333">更新人</text>
</svg>