<?xml version="1.0" encoding="UTF-8"?>
<svg width="1200" height="900" viewBox="0 0 1200 900" xmlns="http://www.w3.org/2000/svg">
  <rect width="1200" height="900" fill="#ffffff"/>
  <rect x="510.0" y="410.0" width="180" height="80" fill="#fff" stroke="#333" stroke-width="3"/>
  <text x="600.0" y="456.0" text-anchor="middle" font-family="Microsoft YaHei, SimHei, Arial" font-size="18" font-weight="bold" fill="#333">订单收货地址表</text>
  <line x1="600.0" y1="410.0" x2="600.0" y2="155.0" stroke="#666" stroke-width="2"/>
  <ellipse cx="600.0" cy="190.0" rx="90" ry="35" fill="#fff" stroke="#666" stroke-width="2"/>
  <text x="600.0" y="196.0" text-anchor="middle" font-family="Microsoft YaHei, SimHei, Arial" font-size="14" fill="#333">订单编号</text>
  <line x1="650.1584135065082" y1="410.0" x2="873.6410188638105" y2="266.0705084516736" stroke="#666" stroke-width="2"/>
  <ellipse cx="803.2761854416877" cy="287.8926515167293" rx="90" ry="35" fill="#fff" stroke="#666" stroke-width="2"/>
  <text x="803.2761854416877" y="293.8926515167293" text-anchor="middle" font-family="Microsoft YaHei, SimHei, Arial" font-size="14" fill="#333">收货人姓名</text>
  <line x1="690.0" y1="470.54191269511347" x2="941.2247692636383" y2="515.6436755171128" stroke="#666" stroke-width="2"/>
  <ellipse cx="853.4812571672742" cy="507.85544282864174" rx="90" ry="35" fill="#fff" stroke="#666" stroke-width="2"/>
  <text x="853.4812571672742" y="513.8554428286418" text-anchor="middle" font-family="Microsoft YaHei, SimHei, Arial" font-size="14" fill="#333">收货人电话</text>
  <line x1="619.2629847523011" y1="490.0" x2="751.8593086911453" y2="715.7858160312137" stroke="#666" stroke-width="2"/>
  <ellipse cx="712.8097721705651" cy="684.251905654629" rx="90" ry="35" fill="#fff" stroke="#666" stroke-width="2"/>
  <text x="712.8097721705651" y="690.251905654629" text-anchor="middle" font-family="Microsoft YaHei, SimHei, Arial" font-size="14" fill="#333">省份</text>
  <line x1="580.7370152476989" y1="490.0" x2="448.1406913088547" y2="715.7858160312137" stroke="#666" stroke-width="2"/>
  <ellipse cx="487.1902278294349" cy="684.251905654629" rx="90" ry="35" fill="#fff" stroke="#666" stroke-width="2"/>
  <text x="487.1902278294349" y="690.251905654629" text-anchor="middle" font-family="Microsoft YaHei, SimHei, Arial" font-size="14" fill="#333">城市</text>
  <line x1="510.0" y1="470.5419126951135" x2="258.77523073636166" y2="515.6436755171128" stroke="#666" stroke-width="2"/>
  <ellipse cx="346.5187428327258" cy="507.8554428286418" rx="90" ry="35" fill="#fff" stroke="#666" stroke-width="2"/>
  <text x="346.5187428327258" y="513.8554428286418" text-anchor="middle" font-family="Microsoft YaHei, SimHei, Arial" font-size="14" fill="#333">区县</text>
  <line x1="549.8415864934918" y1="410.0" x2="326.3589811361896" y2="266.0705084516736" stroke="#666" stroke-width="2"/>
  <ellipse cx="396.72381455831226" cy="287.8926515167293" rx="90" ry="35" fill="#fff" stroke="#666" stroke-width="2"/>
  <text x="396.72381455831226" y="293.8926515167293" text-anchor="middle" font-family="Microsoft YaHei, SimHei, Arial" font-size="14" fill="#333">详细地址</text>
</svg>