<?xml version="1.0" encoding="UTF-8"?>
<svg width="1200" height="900" viewBox="0 0 1200 900" xmlns="http://www.w3.org/2000/svg">
  <rect width="1200" height="900" fill="#ffffff"/>
  <rect x="510.0" y="410.0" width="180" height="80" fill="#fff" stroke="#333" stroke-width="3"/>
  <text x="600.0" y="456.0" text-anchor="middle" font-family="Microsoft YaHei, SimHei, Arial" font-size="18" font-weight="bold" fill="#333">用户收货地址表</text>
  <line x1="600.0" y1="410.0" x2="600.0" y2="155.0" stroke="#666" stroke-width="2"/>
  <ellipse cx="600.0" cy="190.0" rx="90" ry="35" fill="#fff" stroke="#666" stroke-width="2"/>
  <text x="600.0" y="196.0" text-anchor="middle" font-family="Microsoft YaHei, SimHei, Arial" font-size="14" fill="#333">地址编号</text>
  <line x1="623.094010767585" y1="410.0" x2="775.0" y2="194.52250588359058" stroke="#666" stroke-width="2"/>
  <ellipse cx="730.0" cy="224.83339501604593" rx="90" ry="35" fill="#fff" stroke="#666" stroke-width="2"/>
  <text x="730.0" y="230.83339501604593" text-anchor="middle" font-family="Microsoft YaHei, SimHei, Arial" font-size="14" fill="#333">用户编号</text>
  <line x1="669.282032302755" y1="410.0" x2="903.1088913245535" y2="302.5" stroke="#666" stroke-width="2"/>
  <ellipse cx="825.166604983954" cy="320.0" rx="90" ry="35" fill="#fff" stroke="#666" stroke-width="2"/>
  <text x="825.166604983954" y="326.0" text-anchor="middle" font-family="Microsoft YaHei, SimHei, Arial" font-size="14" fill="#333">收货人姓名</text>
  <line x1="690.0" y1="450.0" x2="950.0" y2="450.0" stroke="#666" stroke-width="2"/>
  <ellipse cx="860.0" cy="450.0" rx="90" ry="35" fill="#fff" stroke="#666" stroke-width="2"/>
  <text x="860.0" y="456.0" text-anchor="middle" font-family="Microsoft YaHei, SimHei, Arial" font-size="14" fill="#333">收货人电话</text>
  <line x1="669.2820323027552" y1="490.0" x2="903.1088913245536" y2="597.5" stroke="#666" stroke-width="2"/>
  <ellipse cx="825.1666049839541" cy="580.0" rx="90" ry="35" fill="#fff" stroke="#666" stroke-width="2"/>
  <text x="825.1666049839541" y="586.0" text-anchor="middle" font-family="Microsoft YaHei, SimHei, Arial" font-size="14" fill="#333">默认地址标记</text>
  <line x1="623.094010767585" y1="490.0" x2="775.0" y2="705.4774941164095" stroke="#666" stroke-width="2"/>
  <ellipse cx="730.0" cy="675.1666049839541" rx="90" ry="35" fill="#fff" stroke="#666" stroke-width="2"/>
  <text x="730.0" y="681.1666049839541" text-anchor="middle" font-family="Microsoft YaHei, SimHei, Arial" font-size="14" fill="#333">省份</text>
  <line x1="600.0" y1="490.0" x2="600.0" y2="745.0" stroke="#666" stroke-width="2"/>
  <ellipse cx="600.0" cy="710.0" rx="90" ry="35" fill="#fff" stroke="#666" stroke-width="2"/>
  <text x="600.0" y="716.0" text-anchor="middle" font-family="Microsoft YaHei, SimHei, Arial" font-size="14" fill="#333">城市</text>
  <line x1="576.905989232415" y1="490.0" x2="425.00000000000006" y2="705.4774941164095" stroke="#666" stroke-width="2"/>
  <ellipse cx="470.00000000000006" cy="675.1666049839541" rx="90" ry="35" fill="#fff" stroke="#666" stroke-width="2"/>
  <text x="470.00000000000006" y="681.1666049839541" text-anchor="middle" font-family="Microsoft YaHei, SimHei, Arial" font-size="14" fill="#333">区县</text>
  <line x1="530.717967697245" y1="490.0" x2="296.8911086754465" y2="597.5000000000001" stroke="#666" stroke-width="2"/>
  <ellipse cx="374.833395016046" cy="580.0000000000001" rx="90" ry="35" fill="#fff" stroke="#666" stroke-width="2"/>
  <text x="374.833395016046" y="586.0000000000001" text-anchor="middle" font-family="Microsoft YaHei, SimHei, Arial" font-size="14" fill="#333">详细地址</text>
  <line x1="510.0" y1="450.0" x2="250.0" y2="450.00000000000006" stroke="#666" stroke-width="2"/>
  <ellipse cx="340.0" cy="450.00000000000006" rx="90" ry="35" fill="#fff" stroke="#666" stroke-width="2"/>
  <text x="340.0" y="456.00000000000006" text-anchor="middle" font-family="Microsoft YaHei, SimHei, Arial" font-size="14" fill="#333">删除标记</text>
  <line x1="530.7179676972448" y1="410.0" x2="296.8911086754465" y2="302.5" stroke="#666" stroke-width="2"/>
  <ellipse cx="374.833395016046" cy="320.0" rx="90" ry="35" fill="#fff" stroke="#666" stroke-width="2"/>
  <text x="374.833395016046" y="326.0" text-anchor="middle" font-family="Microsoft YaHei, SimHei, Arial" font-size="14" fill="#333">创建时间</text>
  <line x1="576.905989232415" y1="410.0" x2="424.99999999999983" y2="194.52250588359067" stroke="#666" stroke-width="2"/>
  <ellipse cx="469.9999999999999" cy="224.833395016046" rx="90" ry="35" fill="#fff" stroke="#666" stroke-width="2"/>
  <text x="469.9999999999999" y="230.833395016046" text-anchor="middle" font-family="Microsoft YaHei, SimHei, Arial" font-size="14" fill="#333">更新时间</text>
</svg>